<mxfile host="app.diagrams.net" agent="Mozilla/5.0 (Windows NT 10.0; Win64; x64) AppleWebKit/537.36 (KHTML, like Gecko) Chrome/139.0.0.0 Safari/537.36" version="28.0.9">
  <diagram id="Recode-HLA-1" name="Recode High-Level Architecture">
    <mxGraphModel dx="4187" dy="2527" grid="0" gridSize="10" guides="0" tooltips="1" connect="1" arrows="1" fold="1" page="0" pageScale="1" pageWidth="1920" pageHeight="1080" background="#ffffff" math="0" shadow="0">
      <root>
        <mxCell id="0" />
        <mxCell id="1" parent="0" />
        <mxCell id="IJoVcqCJSkyeiCKx4dnM-18" value="" style="shape=ext;double=1;rounded=0;whiteSpace=wrap;html=1;" vertex="1" parent="1">
          <mxGeometry x="894" y="-457" width="220" height="200" as="geometry" />
        </mxCell>
        <mxCell id="IJoVcqCJSkyeiCKx4dnM-16" value="" style="shape=ext;double=1;rounded=0;whiteSpace=wrap;html=1;" vertex="1" parent="1">
          <mxGeometry x="544" y="-456" width="220" height="200" as="geometry" />
        </mxCell>
        <mxCell id="IJoVcqCJSkyeiCKx4dnM-15" value="" style="shape=ext;double=1;rounded=0;whiteSpace=wrap;html=1;" vertex="1" parent="1">
          <mxGeometry x="14" y="-561.5" width="390" height="454" as="geometry" />
        </mxCell>
        <mxCell id="IJoVcqCJSkyeiCKx4dnM-14" value="" style="shape=ext;double=1;rounded=0;whiteSpace=wrap;html=1;" vertex="1" parent="1">
          <mxGeometry x="1277" y="-444.75" width="410" height="170" as="geometry" />
        </mxCell>
        <mxCell id="title" value="Recode â€” Lower Level Architecture" style="text;html=1;strokeColor=none;fillColor=none;align=left;verticalAlign=top;fontSize=20;fontStyle=1" parent="1" vertex="1">
          <mxGeometry x="18" y="-32" width="800" height="30" as="geometry" />
        </mxCell>
        <mxCell id="client_lane" value="Client" style="swimlane;childLayout=stackLayout;horizontal=1;startSize=28;fillColor=#f7f7f7;strokeColor=#d0d0d0;rounded=1;container=0;" parent="1" vertex="1">
          <mxGeometry x="16" y="18" width="410" height="279" as="geometry" />
        </mxCell>
        <mxCell id="backend_lane" value="Backend / API" style="swimlane;childLayout=stackLayout;horizontal=1;startSize=28;fillColor=#f7f7f7;strokeColor=#d0d0d0;rounded=1;container=0;" parent="1" vertex="1">
          <mxGeometry x="452" y="13" width="470" height="578" as="geometry" />
        </mxCell>
        <mxCell id="data_lane" value="Data &amp; Storage" style="swimlane;childLayout=stackLayout;horizontal=1;startSize=28;fillColor=#f7f7f7;strokeColor=#d0d0d0;rounded=1;container=0;" parent="1" vertex="1">
          <mxGeometry x="954" y="13" width="420" height="364" as="geometry" />
        </mxCell>
        <mxCell id="external_lane" value="External Services" style="swimlane;childLayout=stackLayout;horizontal=1;startSize=28;fillColor=#f7f7f7;strokeColor=#d0d0d0;rounded=1;container=0;" parent="1" vertex="1">
          <mxGeometry x="1402" y="18" width="420" height="360" as="geometry" />
        </mxCell>
        <mxCell id="edge1" style="endArrow=block;strokeColor=#B029BF;" parent="1" source="webapp" target="api" edge="1">
          <mxGeometry relative="1" as="geometry" />
        </mxCell>
        <mxCell id="edge2" style="endArrow=block;strokeColor=#82b366;" parent="1" source="api" target="db" edge="1">
          <mxGeometry relative="1" as="geometry" />
        </mxCell>
        <mxCell id="edge3" style="endArrow=block;strokeColor=#28B336;" parent="1" source="api" target="auth" edge="1">
          <mxGeometry relative="1" as="geometry" />
        </mxCell>
        <mxCell id="edge4" style="endArrow=block;strokeColor=#28B336;" parent="1" source="api" target="storage" edge="1">
          <mxGeometry relative="1" as="geometry" />
        </mxCell>
        <mxCell id="edge5" style="endArrow=block;strokeColor=#BF4032;entryX=0;entryY=0.75;entryDx=0;entryDy=0;" parent="1" source="api" target="judge0" edge="1">
          <mxGeometry relative="1" as="geometry" />
        </mxCell>
        <mxCell id="edge6" style="endArrow=block;strokeColor=#BF4032;" parent="1" source="worker" edge="1">
          <mxGeometry relative="1" as="geometry">
            <mxPoint x="1420" y="220" as="targetPoint" />
          </mxGeometry>
        </mxCell>
        <mxCell id="edge7" style="endArrow=block;strokeColor=#D7D741;" parent="1" source="api" target="cache" edge="1">
          <mxGeometry relative="1" as="geometry" />
        </mxCell>
        <mxCell id="edge8" style="endArrow=block;strokeColor=#d79b00;" parent="1" source="worker" target="cache" edge="1">
          <mxGeometry relative="1" as="geometry" />
        </mxCell>
        <mxCell id="edge9" style="endArrow=block;dashed=1;strokeColor=#b85450;exitX=0.75;exitY=0;exitDx=0;exitDy=0;" parent="1" source="monitoring" target="api" edge="1">
          <mxGeometry relative="1" as="geometry" />
        </mxCell>
        <mxCell id="edge10" style="endArrow=block;dashed=1;strokeColor=#B029BF;entryX=0.5;entryY=1;entryDx=0;entryDy=0;" parent="1" source="cdn" target="browser" edge="1">
          <mxGeometry relative="1" as="geometry" />
        </mxCell>
        <mxCell id="edge11" style="endArrow=block;strokeColor=#6c8ebf;" parent="1" source="users" target="webapp" edge="1">
          <mxGeometry relative="1" as="geometry" />
        </mxCell>
        <mxCell id="IJoVcqCJSkyeiCKx4dnM-1" value="React" style="icon;html=1;image=data:image/svg+xml,PHN2ZyB4bWxucz0iaHR0cDovL3d3dy53My5vcmcvMjAwMC9zdmciIGhlaWdodD0iMzYxOC42MDAwOTc2NTYyNSIgd2lkdGg9IjM2MTguNjAwMDk3NjU2MjUiIHZpZXdCb3g9IjAgMCAzNjE4LjYwMDA5NzY1NjI1IDM2MTguNjAwMDk3NjU2MjUiIGlkPSJMYXllcl8yIj48c3R5bGU+LnN0MHtmaWxsOiMyMjJ9LnN0MXtmaWxsOiMwMGQ4ZmZ9LnN0MntmaWxsOm5vbmU7c3Ryb2tlOiMwMGQ4ZmY7c3Ryb2tlLXdpZHRoOjE0NC43NDU2O3N0cm9rZS1taXRlcmxpbWl0OjEwfTwvc3R5bGU+PHBhdGggZD0iTTAgMGgzNjE4LjZ2MzYxOC42SDB6IiBjbGFzcz0ic3QwIi8+PGNpcmNsZSByPSIzMDIuNiIgY3k9IjE4MDcuMSIgY3g9IjE4MDYuNSIgY2xhc3M9InN0MSIvPjxwYXRoIGQ9Ik0xODA2LjUgMTE5MS45YzQwNi4yIDAgNzgzLjYgNTguMyAxMDY4LjEgMTU2LjIgMzQyLjggMTE4IDU1My42IDI5Ni45IDU1My42IDQ1OC45IDAgMTY4LjgtMjIzLjQgMzU4LjktNTkxLjUgNDgwLjgtMjc4LjMgOTIuMi02NDQuNiAxNDAuNC0xMDMwLjIgMTQwLjQtMzk1LjQgMC03NjkuNy00NS4yLTEwNTEuMi0xNDEuNC0zNTYuMS0xMjEuNy01NzAuNi0zMTQuMi01NzAuNi00NzkuOCAwLTE2MC43IDIwMS4zLTMzOC4yIDUzOS4zLTQ1NiAyODUuNi05OS41IDY3Mi4zLTE1OS4xIDEwODIuNS0xNTkuMXoiIGNsYXNzPSJzdDIiLz48cGF0aCBkPSJNMTI3MSAxNTAxLjNjMjAyLjktMzUxLjkgNDQyLTY0OS43IDY2OS04NDcuMiAyNzMuNS0yMzggNTMzLjgtMzMxLjIgNjc0LjEtMjUwLjMgMTQ2LjIgODQuMyAxOTkuMyAzNzIuOCAxMjEgNzUyLjctNTkuMiAyODcuMi0yMDAuNCA2MjguNS0zOTMuMSA5NjIuNi0xOTcuNSAzNDIuNS00MjMuNyA2NDQuMi02NDcuNiA4NDAtMjgzLjMgMjQ3LjctNTU3LjMgMzM3LjMtNzAwLjcgMjU0LjYtMTM5LjItODAuMy0xOTIuNC0zNDMuMy0xMjUuNy02OTUgNTYuNC0yOTcuNCAxOTgtNjYyLjEgNDAzLTEwMTcuNHoiIGNsYXNzPSJzdDIiLz48cGF0aCBkPSJNMTI3MS41IDIxMTkuOGMtMjAzLjUtMzUxLjYtMzQyLjEtNzA3LjQtMzk5LjktMTAwMi43LTY5LjYtMzU1LjgtMjAuNC02MjcuOSAxMTkuOC03MDkgMTQ2LjEtODQuNiA0MjIuNSAxMy41IDcxMi41IDI3MSAyMTkuMyAxOTQuNyA0NDQuNCA0ODcuNSA2MzcuNiA4MjEuMyAxOTguMSAzNDIuMiAzNDYuNiA2ODguOCA0MDQuMyA5ODAuNSA3My4xIDM2OS4yIDEzLjkgNjUxLjMtMTI5LjQgNzM0LjItMTM5LjEgODAuNS0zOTMuNS00LjctNjY0LjktMjM4LjItMjI5LjItMTk3LjMtNDc0LjUtNTAyLjEtNjgwLTg1Ny4xeiIgY2xhc3M9InN0MiIvPjwvc3ZnPg==;" vertex="1" parent="1">
          <mxGeometry x="172" y="-372" width="72" height="75" as="geometry" />
        </mxCell>
        <object label="Browser" Browser="" id="IJoVcqCJSkyeiCKx4dnM-2">
          <mxCell style="icon;html=1;image=data:image/png,iVBORw0KGgoAAAANSUhEUgAAAgAAAAIACAYAAAD0eNT6AAAABHNCSVQICAgIfAhkiAAAAAlwSFlzAAAOxAAADsQBlSsOGwAAABl0RVh0U29mdHdhcmUAd3d3Lmlua3NjYXBlLm9yZ5vuPBoAACAASURBVHic7N15nFxVmTfw33Nq6+4sJGEPZO+sHbKThCWQkEAEQRwdHBWXeR1F59VxGV/XGUd0dEZ0RscNR3EZZUYF1EER2QIJgSQEEkICna3T3YFAwhISsvRS2/m9f3RAAlm6q/s591bV8/18ekYx3N9TXTd1nzr33HMAY4wxxhhjjDHGGGOMMcYYY4wxxhhjjDHGGGOMMcYYY4wxxhhjjDHGGGOMMcYYY4wxxhhjjDHGGGOMMcYYY4wxxhhjjDHGGGOMMcYYY4wxxhhjjDHGGGOMMcYYY4wxxhhjjDHGGGOMMcYYY4wxxhhjjDHGGGOMMcYYY4wxxhhjjDHGGGOMMcYYY4wxxhhjjDHGGGOMMcYYY4wxxhhjjDHGGGOMMcYYY4wxxhhjjDHGGGOMMdVCoi7AGNM916xhauepHac4Jk+nc6eJ96d4yCAIBjjhQBIDATkBwkEgBkIwEESm69+WGoC1rzrcQACJQ//5IIA8gCKA/Yf+WZsIciQ8iX0AICJtBF8U8AXQ7Qa4mwn/YgKJF/Ms7i4ys/uuYbInyC/DGNNr1gAYEwNXkYm21s4zXSo5ypGjCY6GyHASpwtwGgSngDgl6jq7oQjBiyB2Q9gqlO2AtFL8dhSlNZdIbbcmwZh4sAbAmIDesp2nF6XQQLABggkARxEyGsAIAOmo6wtkH4DtgLQC3E5gG0Qa6ZPrbx8he6MuzphqYQ2AMQre3MpBhWRhmpCTBDiLwCQAkwEMibq2mNsB8nE4bAC7fg4MT29ZJlKIujBjKo01AMb00lU7WNshhWkocrYAswicDcE42N+vvpKDoFGIDSTWiWDlgWGpddYUGNM79gFlTA9dsbNjOPOJ+eJwHoGzQZwFIBl1XVWmTYiHIXywKG5lLpdctWSM7Iu6KGPKiTUAxhzHm55qG1pk8jznZJEnzpeu4XwTPy0QrKDHgw5ccduITGPUBRkTZ9YAGPMaV+zkSSzmFgOyGMR8AMOirsn0nADNBO6EuD9JIrHstqHSHnVNxsSJNQDGALjiyWyDh7scwkUA5sOG9CtNJ4AHQVkCcMntI9Jroy7ImKhZA2Cq0pte4ADfkbsMIm8EsJjl8Yy96TstAtxB7+5w6cRSGx0w1cgaAFM13tzKQQWXfxOdXA7yMgD9oq7JxEKnCJfAyy21tanf3XKKHIy6IGNCsAbAVLTFOzgk5fOXw/EqUi5B9Sy2Y0rTIcJ74eUWSaV+YyMDppJZA2AqzhU7WefzubcQeDcgC/HnNe+N6Yl9BG4l3c0v7E7cs3aW5KMuyJi+ZA2AqQjXkm7N9sIF3vG9AN4KYEDUNZmKsgfA7+jxkztGpR+Kuhhj+oI1AKasXfZ05zh4eTco70bXevrGaHsCwA2C1I22d4EpZ9YAmLJzFZk4+FT2MoH7KICFsPPYRCMLyB8E+NHtw5P3QoRRF2RMT9gHpykbFz/VNjTJ9LsBfhi2OI+JE2IrRH5azCd/dne9PB91OcZ0hzUAJtauJd1DTxbfIMIPAbwMNqHPxFsOwP96h2/eNSz9cNTFGHMs1gCYWLq0iRmk838F4LMAJkZdjzElWAvgO/2Hp/7nFpFi1MUY81rWAJhYuXQXT0au8D7AfwyQ06Oux5g+0CzAdxOp1A22roCJE2sATCy88cnO0UW4jwF4P4C6qOsxps8RL1D4Uy+F79wzvN/OqMsxxhoAE6nLWnPTfEK+APLNAFzU9RgTQIcAP/fO//tdw2q2RV2MqV7WAJhIXLYje5b37gsA/xJ2Hprq5AH5LV3x89YImCjYB68J6g0t2Slw7h/twm/MK/IAfu1R/OLdI2tboy7GVA/7ADZBXPxUbpbz/CIgb4Sdd6F5AKtBLofgkUQCW8Wnn24bjgMH1kJOOhUDJJ870ycwzhFzKHIBiFmwWzKhdYL4YYGpf713tDwXdTGm8tkHsVG1eEdnPYqJf7Fv/JHYJIL/JFO33DVSdvXkX7z06fYzWUi9jeSHIBirVaA5ojaQ309n0t+4bajsjroYU7nsA9mouLSJJ/tU/p8AfBBAKup6qsxqoXzxzpHJu3u7PO21pFv5VPaNQvclANP7qD7TPQcA/kemM/2NP0yQA1EXYyqPNQCmT12xk3XZXOETAD8NYGDU9VQXPgvB3909IvObvj805eKnclc7yrcInNTnxzfHwF1C+YdzRqZ+fq2Ij7oaUzmsATB94lrSrXgy/z6BfAng0KjrqTYEbnSJ1MfvGiZ7NHMu2cZTJFn4HsGrNHPMEa2hyMfvGZFaEXUhpjJYA2B6bVFrbq4TfA/AzKhrqT7cJUh84K6RydtDpi7enn0rIT8AcHLIXAMK8GsWCp+5u75uR9TFmPJmDYAp2cIWnppM5L9G4r2onnMpR2ClQJZ0/Vd+JcJa1tLl3xTVqnJvaO0Y6SVxG4DJUeQD2APwo4DMAXAJgPER1RGFdpDfyGTSX7flhU2pquVD2/Sh+WQyuT3/ERFcC+CEqOtRRhBPULDEwd2DmsTyu0+Ttq65DvkNBMZEU5b8piadfG/UH/6XNnFgIZX7NSCXRlTC9+8Zmf4IACxq7hguicQlIC6GYCGAEyOqKRzBDnh+5p6R6V/3dsKnqT7WAJgeWbw9v8CD3wXQEHUtivIglong1kSy8Ic7zqx7+rV/4OLW7HUQ+XQEtVHAf7l7RPoLcfnAv4pMvLQ9/00IPhpBvPeQ8+8dmVr16n94LekefKpwrpBvFuDN0TVqwdxbdP6D9w2vaY66EFM+rAEw3TK/lYOSyF8ngg+gMs+bdoL3QeSWgk/9Ydkoeelof3BhS3aKc7IGUTzeKPLZe0akrgue2w2XtGavpcgXI4h+YlBbauYtDZI72h9Y/GS2wcNdDvIKAOeiMs/hDiG//uKL6a+unSX5qIsx8VeJfwlMH1u0PftWR3yPkNOirqWPtZG4Fc79KpVPLLljrGSP9y9cRSZeejL/0KGV8oIi5HNLRqW+Fjq3Jy5pzf4rIZ8NnUuRf1wyMvXV7vzZi1o6RjgkrxLhuwBMVS4tCmsp+MCSkel1URdi4s0aAHNU81t5WkoK3yX5l1HX0oeKECyFx40dudT/rujhAiuLWnOfAPBNpdqOSiBfvGdU6suhc0uxqDX7NUA+Ezg2C+H0JSMzm3ryLy18MjtJPN4GyLtQSbcJBAUhrpfa1OfvPk3aoi7HxJM1AOb1SFnUmn8/BF8HMCjqcvqCACsB3OhTqVvuPVNeLOUYF7V0jHAu8QSI/n1c3jEJ+K/3jMp8PmRmr5CysDX/XRF8OHDysiUjUxeVNDeClIWthfOd8GoCb0flTG5tAuSaJaNSy6IuxMSPNQDmMPOb2s9MppI/A7Eo6lr6wB4CN3rHG5aOyDT29mCLWrO3A3JZXxTWA79aMjJ1dVwm/HXXtaR7YHvhVgGvCBos+JslI9M/7c0hrtjJus5s/m0ErgFwTh9VFiVS8JN0PvXJO8bK/qiLMfFhDYB5xcWt2XcQ8n0Ag6OupRcI4H4Ibygw/btlo6SzLw66sDX7VwL5dV8cq9sEa9oSqQtWDZOOoLl95NImDiwk8ysZ9omRPa6Ymnh3vTzfFwdb1Jw9Cwm5BsS7UP6jYa1e5F33jUytjLoQEw/WABgs3sEhhUL+egB/FXUtvbCfwE/E+/+8d0zN1r488BU7WdeeK2wBeWZfHvfYuIvJ4tn3Dat7Jlxm37voqc4xUnSrEfKZfMGP7x2Z/kBfHvKKnaxry+bfJsDfAZjRl8cOSlAQ8quF7emvLFsghajLMdGyBqDKLWrOL2ICPwt7cetTrYT8MOeSP3pwhOzVCFjUmr2WCPp4W6cAC5aMSj8UMFPNwpb8PAiXAEgHivTeYfbSEem1Ggdf1Jw/Hwl8lORbACQ0MgJ4uFj0Vy+rr9kWdSEmOtYAVKn5raxJSv4bJD6MMjwP2DXM/+0LRqR/r7lD2vym9jMTyeQWAHVaGa8jeP+9I9M/CZYXwEWtuY8L8K2AkcvuHZVeoBlwcXPnWC/uYxD8NYB+mllK9gvxd0tGp38RdSEmGmX3wW967+LmzrHeuZsBTIu6lh7yBH4DwXX3jUw/GiJwYUvuvyG4OkQWABDyu/tGpd4aKi8YUhZuz/0JkDeEihThW5eMzPxOO+f8Jzk44wsfAvhxAKdo5ym4qYjUh461+JWpTNYAVJmFrdm3E/IjAAOirqXbBAUAv/LkvywbldkcKnZBa26OAKsQ7O+JPCOp5NRSH1OMu/mtPM0hvwHhdhBszhRSDd1Z4KkvXPIs++U78tc48FOEnB4isw89Bcq77xudWh51ISYcF3UBJoz5raxZ2Jr7NiG/Qvlc/PMQ3ChF33DfyPR7Ql78QYoQ/45wTTIh8oFKvfgDwLJR8izEvRddT2qEMCaXLHwsUBbuPk3alo5Kf2tIe3okgQ8SKKfteodDeN9FrfnPgLQvhlXC3ugqsLC5cxzE3cTyGfLPCfBjYfG6JWNqn4qigIuas++AyC+DBQq+dd+o9N8Hy4vQRc25H0DwoUBx+wWpcfeOlucC5b3iqkam99Tl/w+JzwMYHjq/F272Ham/WdYgB6MuxOiyBqDCLWzJ/iUhP0V5fOv3EPzaOf+FJSNqWqIq4pwdrK3N5zcj1Ic2sTHjUzNCDVVH7YqdrGvrzD8GYGygyBvuG52+JlDW68xvZU3CF/4vhZ9HuWxRLGgU79/S14/UmnixBqBCXUu6+1tz/wzI51AG7zPJO0Tkc0tHp9dHXctFLfl/JPjPgeLoIBfeOzr1QKC8WJjfnF8kwnsCxRUBzIz63FrUzBOKkvs0IB9HyKdKSrcfwvcsHZX5fdSFGB2xvzCYnjtvMwdkUoVfUPjmqGvphtXOyefuHZlaGnUhQNe2x8J8K8Kt+vaTpaPT7w+UFSsLWnP/A+KdYdLkD0tHp64Mk3Vs85p4csrlPkmRTyDc2gilopBfP3F0+h9uESlGXYzpW9YAVJj5rdkJQrkVwPioazmOpwB+aunozM1RF/JqC1qyXwUk1MY7L7h0amIlT/w7loUtPNUjvwlhlp6mAHPvG51+OEBWtyxo6RxPyrdE5NKoazk+3uXS6aur9VytVPYUQAWZ31y4XCirEe+Lf4eQX+pfk5oYt4v/vCaeDMhHQ+VR8Klq/kC9d7Q8R8HnAsUJwS8FyuqWpaNrtiwbk7lM4N8EIOYr8slin8s/sqApG3JfB6PMGoAKcWFz/nMU/3sCA4mu56zi9yO/ERQn3jcmc+1tQ6Vd8/dRikQi92kC/QP9PpYtG5mq+hXY5o9M3UBgVaDz7w0XbcufG+zFddN9o2tuqymmJnvK5wkcjP7v6VF/RjEhDy5ozi/U/H2YcOwWQJmbv5RJjMj/AECc7yM/QScfvT8m9/mPZH4rTyPzzRJmclZRipy6dGzvtyiuBBdsz00XjzUS5gvJvctGp2O71fVFO9rPKBaSXxfiHYjv53MegmuWjUr/V9SFmN6xEYAyNr+R/TEidyvie/HvBPmlkztSM+N88QcA+PxnA138AeBndvH/s+Uj0+sc8D+B4hbOb83PD5TVY/cNq3vm/lHpqx1kPoAtUddzFCkQP7uwJfdtWzSovNmbV6YufqptaC6fuk0knluTElguwg8GXb2vRPO28/SEzzcDqA0Q1+F9Yfzy+rpyWiVO3fym9jORSG5FmPdgxbLR6fMD5PTKOTtYm8nlPkORz0lMnxYQyC2U5HuWjZLOqGsxPWcNQBmavy07mU5uRzxXF9sLwWfvH5m6ASKMupjuuLA1dz2Ivw2RRfAry0dnvhAiq9xc2JL9OiCfCpEllIuXjUktCZHVW/NaslMc5AYAs6Ou5YgEKyWXunLZeNkddSmmZ6wBKDPzm/OLCP4WwMCoa3ktAf6n6FOfeGCsvBB1Ld11UUvHiCITWxHmG9YLnT5Vv3qs7A+QVXbOf5KDE4X8NgBD1MMEq+4fnY7dhMCjuYpMPN9S+Bi6FqiK4yJCm5koXrZ8ZG1r1IWY7rM5AGVkQXP2rQRvR/wu/i8QfOuyMel3ldPFHwCKSPw9Qg2vEv9sF/+je3CE7KXIvwQJI86Z3xTfuQCvdYtI8f4xqW8SfhqB1VHXcwQTpJhYtaAlNzXqQkz3WQNQJi5ozr3PQ25C3O4FUv6QlNRZy8fo77ve185/koNBvC9ImKBldzb1wyBZZaxfMfk9AE+GyPLO/78QOX1p+ZiaJvdU6nxQ/glAPup6XuNUTyxd0JqbE3UhpnusASgD81pyHwFwA4FEDJ4FfvlnP4gP3l+fujKKndb6QqJY+FsGeu4fHtc1Nkgu1GsrV4c2RLouyHsCuey8MlzYZtkCKdxfn/pnL5xFYEMMPgte/TO46HHvPFsroCxYAxBzF7ZkvyzEdxGn94q437ni1Pvr0z+KupRSXdrEDOk/EiZNnt6dTf1XmKzyV+dTPwXkmQBRknBStlswPzA6syGfTs2F4Dt4uaeJh34C/mH+tvwboi7EHFt8LirmcKTMa8l9h5Q4zRgvCuSLp45JLVw2qnZ71MX0RrvLvxOQ00NkCfkN+/bffXeMlSzBfwsUd/X8Vp4WKKvPrRomHctHpz/mKJcBiNP8mzovvPXCbdm/iLoQc3TWAMQR6S5oyf9YiL+LupRXUHY6L4vuH5P6ctnvCkYKgVDf/J7LZVI3BMqqGO21qR8BeD5AVKZYzMXn71mJltWn7kwWCtMBLI+6llfJUOTmC5qzV0ddiDkyawDihpR5LfnvEXhfDO7nvfxzr0skZy4bm1qm/OqDuKCleCmByUF+d5R/XzVMOoK9uAqxdqi0e8g3g8wFEPnb+Y3sH+q1ablvfN0zp45OXQTwSwR8DD43QCBJyI2H5jGZmLEGIE5Imdec/yEQZlGabigQ8tkHRqcuXjZKno26mL5C+DDf/gUv+kLyP4NkVSDmk9dDEGK3xMHFTP7/BMhRd4tIcfmYzLVwsbolICC+M29b+Y+0VBprAOKClPNb8j+A4ANRl9KFzxKy4MExqevKZUW/7rigKTcdQJAZykJ+b8UEORAiqxKtmCAHSPlukDDBJ64iE0GyAnhgVOoun8pPA7Ai6loOEQi+Pa8lF5PPNwNYAxAPXcP+3xfgg1GXcsgjCV88+8ExqQejLqSv0eGjgaKyzqXt238veSZ/ACAbIGrUrubcmwLkBLNieL+dezpTF4kgLk/rCIj/vKA5+86oCzFdbCngqHV98/8uiA9HXQoACPDzRCL1oUrc3GN+KwcVivlnEGYp1RsfrE+/J0BOxTtvW+5nAvy1fhLvfLA+c6l+TnjzmnN/S+LbAFJR1wKgIOBVD9Rnbo26kGpnIwARO78597WYXPyLEPnsA/Xpv67Eiz8AFIv5dyPQOupeEGbougokhN8MkySXzG/tGBkmK6wHxqR/IJAFAOMwlydJyE3nNRcui7qQamcNQITmbct/CpBPR10HgN0OcsmDY1LXRV2IJgLvD5EjwKqVY9KPhMiqBsvHZB4HcH+AKFcour8JkBOJB+pTKyB+DoBHo64FQFrob7lga/6CqAupZtYAROT85tz7CMbhgttUhD9neX3qvqgL0XReU24ugClh0vidMDnVgxLqd+reN38pk2GywntwTO1THXWpeYD8b9S1AKjzjn+c15KL5zbHVcAagAic19T5JhI/JCARP6P7kDB13qr6mm0BXnakBLgmzO9Udra/lP5tsBdWJYaOTv+eQIv++8ehuTNzbwz3ysJbO1TaHxyTfKsng+y5cJyfAd7jrnlNuRn6r9y8ljUAgZ23Lb8A4m4CEPW3jJtSidSCctu+txQzm3kCBX8VIovA9WtnSdx2aSt7t4gUBXJ9iCwXm0dxFYlw5djMZyH4BAAfcTWDvOBPcyt0/kWcWQMQ0PnbcjMB/h5ATZR1kLxuxZjUOyp1st9r1fr81Qgz+a+QSCZ/GiCnKuXyyf9CgEcCCXnD+c0dw7Vz4mDFmPR/QHgVgKhXqzw1WUz86fwnOTjiOqqKNQCBnNvSMYLgHwEMiLCMogAf7Or8K2dxn+MhcE2YJPnTAyNlV5is6vPwRHlRgBD3rhPw7n0BcmJhxZjM70hZCGB3lHUQmMh8/rcNjUxHWUc1sQYggDlNHAif+CMhp0V4ry0L4dseLOMtfEtxTktuNgVTQ/yOweJPQr2uakUnPw3xXnpxf1NJKwMez8qxqVVw/nwCOyKeE7BgUCZ/A0hboyYAawCUXUUmEsj9D4DJEZbRTsqVK8ZkfhdhDdHweHegpOc692XuCJRVtVaMSi4B0KKfxDOfaS5cqJ8THytG12xxUjwfQFOUdRB4z7nbcl+MsoZqYQ2Asmda8t+ByOURlvCSh1yyamzqrghriAbpBHxroKz/ssl/AYgQIr8IE8a3h8mJjwfH1D5VdKl5INZHWojIP523LffeSGuoAjbMoujcbflPkvy3CEt4XojFK8elH4uwhsjM3ZpfJMJ7goR5Tlw1PrM5SFaVm9PUfqZDcjsA7SH6vftzqdMaGySnnBM75z/JwcVc/nYA50RYRp6Uyx4al1oSYQ0VzUYAlJyzLftmkl+PKl+AHa7oL6jWiz8AOGGQR/+EeNAu/uGsHlv3NMAQF4XBJ6SKFwfIiZ0HR8heV0wtJrA0wjJSIrxlTlN2UoQ1VDRrABScuy07GZQbEdHvV4AdgF+wYkLNlijy46ChkWkCbwmR5QGb/BdekN+5F191twFetmKCHJCa1BshiPIb+CAHue2cRg6JsIaKZQ1AHzv/SQ4m5X8B9I+mAj5Lz0tWjq1pjiY/Hgaks4sBhPjQ6KSkqm9yZcQGIf0HAC9p5whw5Tk7WKudE1erhkkHMqk3AYhyqfDRyORvqqanMkKxBqAvka6Yz91IoD6iR2ieI3GRDUcDgHt7kEf/IH9cPVb2B3pR5pA7xkqWglsDvMcDfGdlLw18PKuGSUeuX+oKAssiezyQWPR0sz0Z0NesAehDc5tyXyYlqg+L5whe9NC4zKaI8mNj5k7WAXhTiCwPf1OIHPN6pPwqRI7AVe1tgJetHSrt7e2pywksj6oGUv5x7tZskNt61cIagD4ypyl7JUQ+H1H880Vw4eqxmY0R5cdKqi13OcLcgjngatK3B8gxRzC8PnkvgOf0k/jGmc08QT8n3jZMlTYgdQWA1RGVIBD5r7lbsxMjyq841gD0gblbsxMFciOieaxyrzguemRspjGC7FgSuKsCRd22aphEvYZ61eraIAi/CRBVk/K5KNfyiI3VY2V/3qUWA1gXUQkDIHLTlPXsF1F+RbEGoJemrGc/ivyWwIAI7o21Q+SKVWMyj4d5tfHX0Mi0By8Jc//f/zrQyzJH4Z38Osw96EgX84qVtWNkHxOpSwlsi2hOwFm1tfkfB3mxFc4agF6qq81/H0AUQ1JFCt/1UH1qRQTZsdU/VbgQwMAAUS8NRubuADnmGFaPTq6AYLt6kGDx/KWMegvv2Fg9Wp7z9IshjGbzK8Hb5zTlPh5JdgWxBqAX5jRl30XBeyOIJgXve7g+E2JntPIivCxQ0u/uGCvqW9Oa4xAhwFsCJA1uO6NwboCcsvHIuJoW7+UyAPsiKuEbc7flz4souyJYA1Ci2Zs6x4FyfRTjX/DyqYfr04HWQy8zxBtDvAdOJMRFx3SL3BTiPRf4UM1l2XhkXPoxB7kSRGcEn4VJev63TdAsnTUAJahvYgYJ92tGc99/fZHFP4Z5peVl9qbOcQTGBngP9u/PJqNcGMW8yuoxqUcJPKX9vgM2D+BIVo1N3U/ynQTaIvg8HJko5q8P80orjzUAJRjC/DcATI8ofqpzbvPsrbmWs7fmfji7KXuVdcBd6BJXhAnCndW4QUxsiRCCPwRIapi7qWNkgJyycM4O1p69Nb9o9tbs1yDyDwDqIirlnWc3Za+OKLus2W6APTSnKXvloaV+4/S7ywF4QCB3Fp2/c0195omoC4rC7K25JQAWaudQ+O5Hxmb+WzvHdN/ZW/OLBPo7PwrxkdXj09/XzoklUmZvzU+ByCUAFwM4H0Am6rIO2eeKxWkPTazdHnUh5SROF7HYO3cbTyn4/BMATo66lmPjLqHcS2CJuMK9XbunVbY5TRxI5ncDSClHFRL51KmrGmSPco7pgZlrmEoMzD8PYJBuEv/08LhM1SwNPHdTx0gmExeRuAjkQoicFnVNRyOCFcPrUxfeIlKMupZyYQ1AD5y9Nf8bgG+Nuo4StABYIsIliVz63kq8eM1uyl5Fys3aOSSWrhmfvkg7x/Tc7K25XxJ4h3JMp++fOnHtUGlXzonEudt4SoG5C0lZhK5v+OW1Fa/IFx8Zm/py1GWUC3uutZtmb8m9h+V58QeA0QCuIeWaQipfPHtr7lEIlgP+/nwy88Bjo0R9VzVt3stiCdHOOtwWIMWUgOTvIaLdANTIgeKFAO5Qzgli+ua2oUlJzoOTeSAW5H1+Ull/LyS/MKcpd/fqsemHoi6lHJTxOx3OOVvazyhI8nEAg6OuRckrIwRFn166drzsjrqgnpq9NddEoF47p+j82Efra7Zp55ieO28zB+Rc/gVo35cmv/bI+MznVDOUTN/cNjSVSJ73qm/4E1F514EWJ6nptkvn8VXaG9/3SJnVlLtTIJdEXUogBLARwAohVkrSr1w9pqYp6qKOZfrmtqFJl3omQFTjI+PSkwPkmBKdvTV7JyCLlWNWPTIuHftFgRoame6fzs8oAnOFci7o58X5Hn5fEuCHD49LfyjqOuLObgEcx8xt+Q8BcgmjLiQcAdAAoIGCa1B0OHtr7nlSVkGwksTKAenkmmWjpDPqQl+WkOQFId4fIW34P+ZIuQ0C7QZg1pT17Ne1O158nLOl/Yy8JOZC5Fx4zIXkZxSJGgAgCAS5RxYPBK45e2v+l4+MS0W2fXE5sAbgGGZv7hjliW9EXUfUCJwC4ZUArhQBDubzuVlbc49B8Ag9Hkk6PrK6Pr0ZIj6K+kQkSAPgE87W/o85On+nUH15k1SmtnAOgCXaQUczr097CAAAIABJREFUp4Wnel+YjiKmUzAD4Jw8MAxA1xhe9Vzrj0YovGF+K6fG6ctK3FgDcAxe3PWgbTt5BGkAs0HMFgBFD8zamjuArbm18HwEwMNJ+jWhnskleYF+CNr3SWqleo7plbVja5pnbck2AxijGiS8AIEagJnNHcNRcDMATHfADA9ML+ZzZ7zyB6poeLJHiHEHc7kvAPiHqEuJK+sTj2LW1uw7QPwy6jrK3H6AjwvdWgrWeo/GrE893per6E1v4skJn3sO+ufyHWvGZ2wt+DJw9tbO60n5W9UQ8v41E2rm9/Vhp29uG5pMJGbSy0wBZhJyNsBT+zqnihTgZPaasel1URcSRzYCcARnbeBgMv8ta617bSAg51F4HgCIA2pcrmPmluwGko8J3HrvpLHQmXz88Smyt5QAYW4egzSyjGy41/SMp9wNQLcBEJkzv5U1pQ4vn7eZA7KSnwhiMh2mgH4GINMADPCHbqTxVf/XlCxJzx9eRZ5jCwS9njUAR5DJZL9GiHXdOmoBzBGROQDhSKQzOczckn0GRCNEHqegkR6PF7OpTcebaCWQC4J8SHpRX2bW9I2kS99X8Lk8dFeFrNmXL8wGcMxJZg2N7F+XzE8sCiaL5yQKGgSY1IncCABdrStf/g9GgwBnt2zNfgzAN6OuJW7srHuNGU25ueK5ArZRUjwI9oLcKEAjKS1McGOCaHxkbGY7RPzMLdl1AKYpV/Hs2nHpoV17z5tyMHNL5wOAnK8aIvjC2nGZr8xfymTbGdnhAEYX4UYLOBpEA7pW0RsJ+yyJHtGOBKesHVvTHHUpcWINwKs0NDJdk8ytQ7ktf1mdDgiwhcAMKH/AErjx0fGZ92hmmL41c3P2CxBoLwn7LICX0LXSZlo5y/QWcffaCRntR0TLinWmr1KTzH2SwKQI9rS2n57/DPDALAJOP8uG/8uNiNwV4Bw8jcAEAukY/H2wn+P9CC6ZsTn7NphXWANwyNQt7WcQ+HzUdZjYoSvmbQJgmRk1LrUWwItR12FiRvBvM3eyLuoy4sImAR6SQOJfAfSPug4TO8JEsmXGluxeAHsB2QlwFyl7RbgXIjshfpf4xN6C83trkN5ha5DrOWsDB7va3NCkd4PpioNBdzrIoaQMFuFgQE4HOLR5a24wKnfvDlO6Ydif+ySAf466kDiwOQDomvgHz5Ww34fpGwcgeBbEPkBegnAvyX1CeYkO+wDuA91LoN8Hl3gJ5D4Uiy+xtmZfJezMeCxzmjjQS8cJzCVOYMINghRPoJdBInICwBMoGARyECCDQAyC4AQAJxA4RYAhUddvKkJbEcXx68fXhdg/JNbsgkfKtK25VQLMiboUYwAARDscsiAOEsg7YB8FHpS9EBYF2E+PPIUHha4Tjh0gsiAO26NeAMK9vqHw4EF45F/9z5zAQeSE15VCPwCUw0YKKagRQS0hGdDXCaRWBDUk+gOSAjgQggSJwQI4CE4AkYKNsJmYIPDfj43PvDvqOqJW9Q3A9C2594D8ecDIJ0F8EsJLAXkjgKrYncsYY47gWYC3g3IHBN8EMDxQLsXLuY9OSj8UKC+WqroBaGhk/3QitwXA0FCZQr7p0Yk1r+wqN7Ux2+ASuBzgFYCciyp/T4wxFY7YCMFtTtwf145Lrnx5E7HpWzovBeVPAStZu258enZUm5jFQVVfbKZtzn5Fwm4UceO6CUd/nvzsbe3DCoXkoWYAC4CurTyNMaaMdQK4D5DbksnC7Y/U1+042h+cvin7KwjeHqwykfeuG5/+RbC8mKnaBmDmxrbTiy7ZBCDQbn/yfEJSDWvHy+7u/Okp69lP0tkFAvcGOC4GUa9doTHG9JEmEbmL4u9M7M8sXTtL2o//rwCTHz94ajKV2ohwEz535ovp8Y0NcjBQXqxUbQMwbVPuexB+OFSeEO9cNzHzq1L//ZlNnWOK3i0W8g3sGh2wCVXGmLg4COA+gdxZcP6ux8fVtJR6oKmbc/9HwJ/2YW3HJrj2sfGZLwXLi5GqbADO2to5OuFlE0It30nc/tjEzOV9dbiGRqYTic7zHdxiAIsBTEGVvpfGmEh4ABsEuMvD31Uo1qzos22+SZm2JX8vwAV9crzj25cvpkc3NsieQHmxUZUXjWmbs/8N4OpAcR1Fx8m96YiPZ+YWnpT32XMSIucRWISu9fGr8r01xqhpgXCJwK0A80vWTei3UytoxtbsRO+xHro7Ov6Z4F8fG5+pupVgq+4iMWVjdrI4rEeoZZAFX1w/PqO9KclhGhoPnpZKpOZRuAiUS9C1I5kxxvTELgAPCmWJsHjXukm1T4YMn7op9+8Q/n2guDYmc6M31A94PlBeLFRdAzBtc/b3BN4UIkuA5pcy6cnbR0lniLyjmbaxcywSbj7JeQAuADAiynqMMbG0XYjl3skDyYJf9mhDzbYoi5nTxIGdxdwWhForhfLN9RPTnwySFRNV1QBM35Q/x4tfGSyQvGL9xJo/Bsvrpsnb2oclC4kLCJ4PkXkgJqHKzgVjqhwh2CjkclAe9Mni8g1j656OuqjXmrIl9x4Jt1Bbh0OhXvPWRtxU1Yf+tM3ZPxG4NFDcbesnZIKMNPTW7E08sVOy54m4C0ieK11zCDJR12WM6TNZAo+KyErSL69hZsXDEyX+uyWSMnVL7kEA54bJk++vn5j+SJCsGKiaBuCsTbmZAq4JFJfzSU56YmxNc6C8PtXQyHQC+elI+DmgzAEwF8DoqOsyxnQT0QzBaghXo+hWF5Fa12ez9AObvDk3y5EPI8z1Klv0flxjQ+1TAbIiVzUNwJRN2d8CeEuILIF8a/3EdKjJK0FM2XbgFORTXQ2Bk7kgZwF43eYxxpjABC8BshaeD0G4OpHMPLRurLwQdVl9acqm7C8BvCNMGm/YMLHmmjBZ0aqKBmBqY7aBDhsQZub/3qJP11f8M6WkNGzMjkmKzITDDFJmAJwJ24PdGE17AVkrwkcBrC0U+WjjpEwzRBh1YZqmbO4YBbpNCHNrMs8EJ2g+uh0XyeP/kQrg8DkEeuxPwK9W/MUfAETYCGxD189NL//jKZs7RgFuJogZBGYKZCrAU6Mr1Jiy9SyA9QAeheBRwK/dMKG2NeqiorBhQm3r1E256wl+IkBcyhXd3wOo+LkAFT8CcNbWztEoyhaEaXZaO5LpidvGSjZAVtk4awMHu0yhwXtOEqAB8DMJmYZg+zAYE2s5ANtEsJYejSLcmGdxzaZJ/XZFXVicnLWBg5HKbUOYfQLa0y49ort7t5Srim8AJm/uvEEo7w+RReLtT0zK3HT8P2muIhNbN2fHUGQKibMATAQwAcA42BMIpjJlAWwFsFmAjRA84TzXj52YablFpBh1ceXgrI3Zz0DwtSBhgi88PiHzlSBZEanoBmDixrbTk5LcjgBr/ovgsQ3j0zMq/V6ctqvIxMaN2VEJh4kQTKCXCZBXmgObX2DKwV4Am0FsEsfNIDYXPTZNmpRptQt978xcw7pcv1wzgiwOJM8dqEmNjHohN00V3QA0bM5+WYgvhMii8MrGCTV/CJFVrSZv7vwoKN+Oug5jjkr4sScm1Hwn6jIqWcPGzo+LyLdCZJHygcZJ6R+HyIpCmPXwI1DfxIxQQj3KsbZxfOa2QFnVi2541CUYc0xezoy6hErXVpv5TwDPhMgS4f8DWbHXyYp9YTXF/NWhZp9T+I829K+P5KSoazDmmAR2jirrGpLndYHixjdszr4xUFZwlfsYIPnRQEkrGyfU3Bkoq6qJoEE3gfcP6J+59GBH9nTPxFBHfzrBoYScLsBQUE4HOBRdcxFO163F9FAOwIvoek5+J4S7COwUcJdAdnpxu5wUd7KIvwDk3xTrsAYggM5k5kc1hdynAaiPuAjwSQAVOcJbkXMAztqUv9DTLwuR5cGLN02qWRIiq5o1NLI/JLcfqucsr2+cVPPh7vzJKevZL5fOnuF84lQRfwbA0wA5ieCJgAwRyIkAh6DrkaUTAfTXq7siZQHsAbBHwBcB2eOBPRDsEWI3ILsg/jlPeaYmlX6uuyvfTdzYuchB7lGsm4l8esCGqdKmmGEANGzM/V+A3w+RJU7OfmJCOtRS8sFU5AiAp/9YoKiH7eIfCPMTIboNq8A90d0/e+gDfuuhn+NqaGQaaBsCpIYAbghQHEK4E+H8EECGCDlIRGoB9KfHQBHWEtIPXcst1wKoO/Sfy+G23QGIdMDzIAT7AXQIpI3kPgo6hGyHyD4K9sLLoQu83wMmXhQW9jhfu0fvAlpsVP7YE5/JTwRQcReLuGmrTf20X0f+n0Lc6mWRnwBwtXZOaBXXAEzZ3DGq6BFkFz5BoOdRDZBAA5RnWRQhjVrHPrQRy7OHfkpW38RMbQfqJN05qFh0tc5JbYH+lccjE4Ia76X25f8uTgbh0KgJvc+ISN0r/xtxAgVOiP0UFA/9wzzgDv45kQfoUQAAJygUwQN//t/cQefR4dL+QFIyB3I5dDQ2yKv+3fjZNKnfroaN2RfRNSqjgh6TYA2Auu2jpHNyY/Y7FHxVPUzw1nFb+LGtFbYwUMU1AL7oPgBBQj2I2PzEpPTv1XNMlwATAClJtQagrxxaZTKLrmfNTUm4EZB5eofnRLVjm8NkatLf78zmPg39jckyqWL23QCCPH4YSjkMJ3bb/KVMesF7CUD7B06+BhEf6rUZTFJ+T3dtLof90U2vEWhUPZecTQQMZe0Y2UfKj0N85pNyDciKmjdXUQ3Ac6fmLgcwNEDUUzVtqV8GyDF/pvyhqjf8b+JFgG7P9SgJrQEIKVko/Ae6ngLRJZjQsKVwrnpOQBXVADggzJr/4LfWzpJ8iCwDjGxlDYERmhnqFwUTG10bWSoeHxjVNenThLBhat3TBH4VIst7/4EQOaFUTAMwZX37mQDeECDqQDaT+VmAHHNIbUeuHsrnqgdsBKBK5FyNarNHIOGSudGaGeZwEmiJcAe87awNrJg9SSqmAcilE+/zQEL93j/l5y1jZF+wF2YAoF79/p7YLYBqsXW87PYiz2ueT3nPsQFfUtXb2JBeR2Cl9ueEB2oLyew7w70yXZXRAJBOiPeFSCom/PcC5JjDjdMOSPjkFu0MEx9C3631G3rBGoDwvhsmJtgeM+oqogGYsDm7CMr3iA+5c8uEGrtQBMd65ePvbmyQPboZJl5EtQEQWgMQWl17+rcAdgWImtLwRO7sADnqKqIBkKJcrf8MCCBkoA7THIYYp3tfR/diYGJpi+Y5RTr1UStzuLWzJE/ihyGuBV58iBFndWXfAJy5g7UUvDnAe75t46SMbfoTAUJ05wCwe8v5moqyVbWnVB+1MkciUvgRgUKA68Ffzl/Ksl9Ir+wbgH77c5cDGKidI8SPbcvf8KasZz/or+1gt3WqjNNv+oaduYO1x/9jpi9tmtRvF4A/6SfJSc+elL1IP0dX2TcAArwjQEwBrvCLADnmNYrJ/Fho71rpbQSg+qS3AYf2P9AhAw7kxige3xwFwZ+EyBEnfxUiR1NZNwDT1nEQgEu1cwj88VBnaQIrQP9xKklYA1BtGhskJ8B2zQwW9Z9eMa93+vOZPyHAZEACf1HuCz6VdQPQkc6/hUCN9v0eL/xxuFdlDkOMVn5/fUdtelvAV2RiwmvPA3AcFe7VmJctWyAFCn4RYB7A4JxkLw73yvpeWTcABN4eIObppok2+S8ywhHKCU9tHyWdyhkmlnSf/vBw2ueuOQoR/hQvz8dU5FjetwHKtgGob+LJAoaYhPFziGjeKzTHJCOVj9+se3wTVwKv+t4LOFLz+OboNk+s2QpwZYCoK0e2siZAjoqybQASufwVABLqOYE2mTBHNVLz4CK+RfP4JsY8WlWPL0EWJzNHQXEhdmwdmO7IhdiDRkXZNgAevDLAPZ51GxsytkZ8hAgMV53fQdG9CJjYKjhpVf38IGwOQJQSqZsJ5LWvE/Ao29sAZdkADF3DOgcs0s6h0L79R2jM+gOnAOinGiLK3wJNbNUV0tuhe594wIRNPFHx+OYYto6X3QCWqAcJLi/XNR/KsgEYUJu7mESd8td/z7y3BiBCLpkZpT3EQxsBqFobpkobKC9onl8F5keEfE3mNbz8SvszBET/fvuzF4Z7UX2nLBsAeFypHUHI8m1T657WzjFHJ15/EpUvZK0BqGpUff+laBMBo1TjU78D0Kaf5NTXo9FQfg3AzUx4kTeq39cR/DrYazJHRMEI5fe5rXlK/xcCviQTMwRaNM8xcdYARGnDVGkjcIf29cKT1gCEMH5SYS7AU5RjfMHnblXOMMchUF4DgGi1/R2qG5XngNDWAoie4H8DpIytf7yz7JZ+LrsGgPCXB0hZ0XpW/+f0c8yxEHKmaoBNAKx6TnsOCKl7DpvjyufSfwKQ185xTn9Z+r5Wdg2ADzH7H0E6RnMc1N4FkLJd9fgm9kj/pHLEGcrHN8exfbq8BJFl2jn0Yg2ApkOP1MzQvp+TKNKG/+PhTN15HrRJnlVOKDuUP0+sAYgBErdqXzfosODMleX1OGBZNQAFn7sI2jUTj26ZWmtDwxGbv5RJCE5WDRFYA1DlapjeoRogOB03U33FUnNsiWT+Vhzq+9UQtTUDsvNUM/pYWTUAQqoP/4vAvv3HwNNDOk4DdZd6ZtE9o3l8E38bpkobgJfUAojE+Cntp6od33TLlgn9dgqwRjuHzl2mndGXyqoBIES9AShS7tDOMN2QSqpPnnIo6n77M+WBuiNB+ULKbgPEgAfu0k9hWe0LUDYNwLgNnaMJ5b3hhS+0TE49GvBlmaPwRQ5VvmfH3IDMzoAvycQUBU9rnmviaA1ADFDcXdrzAECMr1/fXjZPfpRNA1CEu1h3BgdAL3dBxAd8WeYoBDxD9/3m7u2jpDPgSzJxRT6tea6JtwYgDoY/n3wIxD7164hLnBfwZfVK2TQAEM7XjnBBhohMd4iI6iOAhNj9fwMAIET1FoCnWAMQA8sWSAHAffpJYg2AAu1fqqfP3a2cYbqJ1F0DQABrAAwAwCk3AKJ8LpseoISYB2ANQF8a83j7MALDlEdu1jVPHfB8wJdljsETp+i+37YGgOlC559RPdcctJcuN91UYPFu5esICEwdv5kDwr2q0pVFAwDRv6fCIENDpgeUH52SXbrHN+XC0+meC7QGIC6e7FrjRXv1x0Qun52rnNEnyqMBCHBPRcD7tTNM94lof2iK7fVgAACUnPa5oLuglekRAZbrZ5THPICyaABInqscUfSFzArlDNNdpED5Q1NAawAMAGB7Y78XAGg+/WMjADHiRR7QT7EGoE+cup79CEzRvGcDYP326aK3GpjpkeGPYxCBtO577qwBMF3eJkWCLyqebzX1TRwY8iWZo6PnA/rzADh3/lImw72q0sS+AeiHzrkAVH+RnmLD/zGSYFb/G5Mr2oRP8wpSVM8H5gKc06Zbtp+V3hLgFmD/1iH5KcoZvRb7BgDiztYPsfv/cSLJhPo9U0lnrAEwr6J7QSgU9c9p000iBKl+G8A5H/vbALFvACiYpp2RLKRXameYHvBe+9tSx7axsl85w5QV3TkhAvVz2vSAgKu0MwiZrp3RW7G/R0Fgxss36pW0bpshL6gmmB7xXk6FqL7pdv/fHE7keVLvnBOINQAxQiYeoeq8T4DAWaoBfSDWIwANjewPYoxyzCPKxzc9JMITdQNgw//mNXRHACg8SfP4pmfakXwUQFEzQ4AG3EzVLc17K9YNwEFfmALlGkVoDUDsyGDNo9NbA2AORyhPAgRUz2nTM89NlTYAG5VjakdOyI1VzuiVeN8CYHE6IaoRRZ9YrRpgeqwIDtF81yl4UfHwpixxr+6dRloDEDME1kB5mJ6CKQA2a2b0RqxHAKA/AbDYmUyuU84wPaf8YSl7dY9vyo3A71FOsAYgZoSiPvorjPc8gHg3ABTtBmDzCw1yUDnD9JBATtBNoDUA5jAiCd1zgjJI9fimx4RYq54BxHotgPg2AKQDMEk5ZYPy8U1JlIdLxRoAczjHgvIIgN0CiJt2STVCdwlo0BqA0oza1DmMQJ3yko3WAMQQgSGa77tQbA6AOcxBX7tH+bPGGoCYeW6qtBHYrvy+jxi5jrEd/YltA1AoynjtDBE+rp1hSqL8YWkjAOZwh2aFZxUjrAGIpyeUjy9eCpOVM0oW2wbAEePUMxLUfvNNT3VtoNFPM0LorAEwR6J5Xgw8dFvTxIiIegMAODaoZ5Qotiekh9MeAdjXOrHmKeUM00OnnYDBgO6znwXv7RaAORLNBsANfxzKk1tNjxGNAUJG62eUJsbrAHCc4sqcAPgERHe9WdNzyUz2BBZ0134oMGNbP5vXIblHs/d06BwE3SbD9FBR8ITorggMArFtAGI7AgBigurxRbaoHt+UhDnXXzvjxAz2aWeYcqS7QZSHU721ZXrOZ9PbAN3dZgQYqXn83ohlA3DmStYCOFMzQ4htmsc3pUmIaDcAucYGySlnmPKkuiaIh/q5bXpo5yxpB7BLOWaU8vFLFssGwNXkRkG7NrEGII6Iova3JFv4yRyZ4IDm4RPirQGIJWpfC06sf4gDlTNKEssGwCc4XPnZTBSL0hTuFZnuokh/5fde9UPelC9SDuqee2K3AGLIU5q1rzed/XIjg72gHohlAwBxw7QjsrWpZu0M03PUHya1BsAckYCqo0MEbAQghpxA/VogjOdtgFg2AAR1GwDBrt0TxC4EMeT0h0ntFoA5Iq98btDbHICYUm8APGkNQHcJcIZqALFd9fimZNrDpALb/MkcmQhVvxQ42ByAOCKkVTtD4GLZAMRyHQBShqs+mSHYoXdw0xvaw6Re+UPelC/CHdT83PH6T7iYEnhX2Ck+oZxiIwA9QNVHAOHlGdXjm9IpD5MK7RaAOTKh9giAzQGIo9Oztc9CeVdAACOUj1+SmDYAUJ4E6K0BiCvxtboBbNM9vilfyucGRfncNqVYO0vyBJ7XzCBwiubxSxW7WwBDHuJAMKd6H5iQpzWPb3qBklE9vrhO1eOb8uXZCdFbCtjT657bpmSOeIbAaVrHF+BEkBK35edjNwLQr1/2ZO1nMkFncwBiioKM6vtPWgNgjohMZjXPPRHl5taUzAM7la87qdFrEbvFgGLXAOQLboh2RtEVtJd+NCWiR1o3QHXPd1PG6HSbQwLWAMQUwZ3aGflM9iTtjJ6KXQOQhD9ZP6VG9X6PKZ2I7ocknTUA5si8p+65oXxum14Q2a0dQe+sATgeOvVfUva5qWITweJL9UPSUflD3pQtJpVvD9EagLhy5B71EO9PVM/oodhNAvT0J2nuyU3gRbWDm16jMANqTsSySYDmyFLeZ4vQex5cYHMA4qpIt0d7fl5B/8ttj8VuBAAU1S7JWQMQa4SozgFwdgvAHAWztcpzAGgNQEw559WvC0JvDcBxCVV/SYRYAxBjojxMSrsFYI4i11+9ObQGIK58Qv8WgPKX21LErgEg5ATlBP032vSG6ggA7SkAcxQvPA/t20PWAMRVQn8EQPvLbSn0braW6LTHsn8AcEXUdRhjjDF96LfPTsv8ZdRFvFrsRgCgvBucMcYYExxRF3UJrxW7pwAA1mluBGiMMcYEp73MeQniNwIQwy7JGGOM6Q1K/PaCiN0IAGENgDHGmEpjIwDdYXMAjDHGVJYYrgQZxwbARgCMMcZUFO19TkoRxwZAdzc4Y4wxJrA47gYZxzkAcWxKjDHGmNLZCEC3xG5xImOMMaY3tJc5L4U1AMYYY4yyON4CsAbAGGOM0Re7BiCOcwCsATDGGFNpYndti10DAMbvl2SMMcb0Uj7qAl7LbgEYY4wx+qwB6IZi1AUYY4wxfSx2DUDsbgEQyCKGdRljjDGlk9g1ADEcAWBH1BUYY4wxfYvWAByfWANgjDGmojCGtwBi2ACgM+oCjDHGmL4kMWwAYnev3QPt9hiAMcaYikJkoy7htWI3AiBiIwDGGGMqjGB/1CW8VuwaAJDWABhjjKkoAuyLuobXit0tAFIO2lJAxpgKtQeCl6Iu4ojIgYAkoi6jmwahzBaNI+I3AhC/BgDYI9TNEGLii7Mym3VTTCmGPJq9GcRVagHE2/bMytyidnxTtgavyZ4lgg2aGQSu2zsj83XNDFOawWuzXxXg83oJjN0IQOxuAYjIXu0MJtwQ7QxTGiFymsenIK15fFO+Ek7Ud2sTMnYTwUwXRypfFyR2IwCxawBA6jcAvmgNQEwdWglSjYj+h7wpT8Wi/rlB56wBiCk6OVE3wG4BHJcn94jo3tqh2AhAXJHMQfP99/Hbk9vEg3eFjFP+TsQYPgpmDqEMIfTuPxO0BuB4RLhHPUR9qMeUSgRZzb+EIqxRO7gpa04kA+pOQBLo3uIypSO87nVBbA7A8VF/DoATawDiisofkBSxOQDmiEhRbw5tnZNYO0nz4A7yrObxSxG7BkCcVx8BIJXv9ZiSaU+SImEjAOaIHPQniJK0EYD4Uv1i6L17TvP4pYjdLYAC3QsBupKh+hGmFB4uB837cOJtDoA5Ii8+AyrPP7I5ALE0eA1PILL9NDOSkrcRgOMZmM08o5/CM/QzTCnodG8BCOwWgDmyILcAnD0GGEfictrXhOLulrrnlTN6LHYNwNPnSgfUJwKKjQDElHjlpaDtFoA5ChH9J0Qc7BZAHBVB3WuCYDfeJkXVjBLErgEAAFC0RwFOw80slyUvqwrVJ0lJne7xTbkSL/21M8hEm3aG6TnxyqPCHrtUj1+i2M0BAAB6PAPBWYoRiZPq20/dDexUzDAlIOSg7qNYHKB4cFPGPH1/7eXlSR5UDTAlobgzVD93JJ4NQDxHAARPa0fkCimbBxBDzkP3A5JQ/5ZnypOI/ghAoViwEYAYEvB0zeOTErsnAICYNgBCqk8EFOEI7QzTcwRVPyAp1gCYI2OABqB/bT8bAYgjYpTm4R39k5rHL1UsGwA66D8JIBijnmF6jM6rfkAKrAEwR0GvfW7wuSloV84wJSCUrwfTAw6xAAAgAElEQVSCVtXjlyiWcwBAeVJ5R2AQtAYghrxPHHS6+0HbHABzRIT6CEAbRHuzc9NjpOParOoIgBe0aB6/VLEcAQCxLUCKNQAxlPBe+x6pjQCYo9FuDm34P4YGrescBug+AlpI0BqA7trXmnkSymvCizUAsVRMFbQ/JK0BMEejPwJgYodUvxZ0dkyttacAuq1rwYTtyinD0ERbFjZmBvr+2h+SdSDjed6bqKk2ALQRgJiSeuWA7RDxyhklie0HIYGt7Pr/Wj+u/4GcjQLEzM5Z0k6gqPi+y+C1Ng/AvB6BAZqfORCxEYAY8h71qteamE4ABOLcAISYB0BMVs8wpdiveXAmOgdrHt+ULd3zgnxJ9fimNE73OiA+nhMAgRg3AHD6DYCjb9DOMCVR/aDMFRLWAJjDnNzI/lCeCEZwr+bxTWlE/4vgZuXjlyyejwECSBBNXvmBGYpoLjdsSkRir0BvYQ5hUXXfb1N+DrZ1DE6K9vchsQYgZgav4QkFZs/UzPDCRs3j90ZsG4Cc95sS6n8h7RZATO3V7P1EnI0AmMO4RGIw1b9x2C2AuCn4jgaK090AwhWeUD1+L8T2FkDH7LodgLyoGkKMOXU9+6lmmFKoflAKaCMA5jDivfo5QRHlbc5NT1Gc9ijwcwdnDHhBOaNksW0AulC7c3IHOvMTlTNMTxG6Q6UiNgJgDiNef1TIgfu0M0yP6c4DI2I7/A/EvgHABu0A5/xM7QzTM+J0RwA8aQ2AOZzTHwGAOBsBiB2ZpRwQ2+F/IOYNgCcfV14LAATODveKTHcUKXs133MR2C0AcxgPGaL+WeO9TQKMk6VMEpym+Z57sRGAklES69VDBNodoOkhpzxZylP5eW9TdgQcpJ1BJmwSYIz065efDKBWMyMBbw1AqTrSqUYAuksoEg1YwzrVDNMjFN3HpQQ4WfP4pgyJqJ8TPlG0EYAYIYrao7/Fmrpa/S+xvRDrBgBTpQ1QXxAoOcB3TFPOMD3C3coBpygf35Qb6p8THajRPq9NDzhRv/+/+YUGifX+D/FuAAAAXKt9b64AZ/MA4sS753Xfc54a8NWYMuAhpyh/zrRhlrQHfEnmODxwtup7LvJIwJdTktg3AJ6yWjvDCc/RzjDdx0T+ed0EGYxGpnUzTHnhacoBzykf3/RE19LPymsA8GHd4/debFcCfIXzD8Hr9imEXKAaYHqk/UDdC3X9sgSgtUKX1O7rOLkDeEbp+KbcaN8CoMR2MZhq1O9g9jyK8vWv6GLfAMR+BKCjtnYdgE7lmNMzazu194Q23bVAClDeOEXSSbsNYLp0rQaquyKoUHlUy/QEHef9//buO06q+tzj+Oc5s70vRYotGhQVY2+IoCgKURDrWqPGxJjERL0pN8lNI+2mmUSviYkp16uGqIuoSFGKrlQ1Ym9YEgsKKsruzvbdmfPcP3axIJ35/c6Zmef9es0LC8z3OXOGc579nXN+P8cRXe39C2M9BwBkQQPACOlW5AnX9wFIqDYKECOKOL0PQMLQbgQ0AJR0dw1yfXxBsAYgRlRljNN9rvIEe0iXx03aJvFvAADQh1wnBBpYAxAvTg+YabUbAU0vSbtvBhXsCYC4eEmLcT0BnOhyp++fIdnRAIj7GwEV50NCZmuo2wZACKwBMABIIuH+uxDaCEBclDR2Hg6UOA0RWeL0/TMkKxoATYXORwCA3Use69jVQ47ZEoLbm6YCGwEwfdTDCECgdhNgbARHu06QRGqR64xMyIoGoHNk6auqvOb8Ol2KE7xtlNkkVXU7F4Dqjh43x8RYqOzo+tiiodgIQGzoeMf7+6X2g8pXedygbZYVDQAAIg2uI1TFGoC4CMTtXyAVawBMn2Bn1wkaiD1yGgcPaRVwmOOUBxy/f8ZkTwOgofMGAGEcDRr/uRHygIaOn9EXdnL6/iZ7BOr8u1DaWWQNQAyUBt3jgEK3KbLQ7ftnTtY0ACLqvAEQqCkt67BpgWOgQALXB8wdUc2a779xSJ03gx3No90ucGW2jKLjXWdIEC52nZEpWXMA7DisbKUqL7u+VpcOEnYZIAakp2uV431dWP5wm60KaFDYye39JjbjZFwoHO/4uPKvjkNKX/e4SdslaxoAAIT7nWeEfNp5htms1iMr1gDdLjO6KbLLAPluiVYCVU4zhKy4ISzXFS3v2gvYzWWGavYM/0OWNQAaSoPTH/8VBD2s9KF2OzFETURRVrvc14GGdiNgnisq6N7Z+TFF9Q2Pm2Q2JuQU1/saYa6/Ddp+WdUAFNLTAISOYySUYKLjDLMFFMd3TifsRsB8FyR0qOsMFcdPtJgto0x2nJDq7iqa7zgjo7KqAWg7ouJtRR913cQpzr8oZovom073s80FkPfSqm6v/wO4fqLFbFbZ8rYhoIc53c/Kw2TZzZ5Z1QD0CmZ7CDmOx7XGQ47ZBBXHB04NdnH6/ib2RINdXWcoYpcAItaTTkzG8flORea4fH8Xsq4BUMRHA1BY1NU9wUOO2YTA/VwAuzt9f5MNnN4UBhBK2kYAIibKya4zNJR7XWdkWtY1AD2HFT4KrHYeJOGpzjPMJqnIa44TnB/8TbwJ+gnXGUU96vh7bDbpIa1CONZxyls9RxQ+7jgj47KuAUBEFea4vw9AJtKgFf42zKxPA3G9/sNglmmpx00yMRPC7o6/Y13to8re8rhJZj2FdJ6uUOx0P4vcg4h63KyMyL4GABA/lwHKisq6nQ8bmY3rSXS94jhCioq6nV8DNjH1rBYBrp8CeB0R108umU0QkbOdZyj3uM5wISsbgO6SonlAl/skPcd9htmogyrXAG0uI9JqlwHyVXFH185AwmWGgOsm1mzK0pYdFOfD/+3dJUVZdwMgZGkDwP7SpnCf68sAIZzAw8n+/jbMrE9xuwx0oO5vAjPxlFZ2c30MSSt2/T9ChQWFZykUON7Pc9lfnP6g4kp2NgCAiE7zEFNUqEWne8gxG/eqyzdXD3eBm3gSD6M/IvKq6wyzcYqc6yHjdtcZrmRtA9BTWHIXSrfT9l1BBedfILNxqrzqeJjHGoA8pWk+4fz4EdoIQFRKHuncHdXDne5j6Epr0SxvG5VhWdsAcKA0Ae6nXVTGFC/t/KTzHLNBIm5HAGwugPwlHva9kH7VdYbZsFRaLwLEccw8jpCk4wxnsrcBAFR0muMGHgVJF+hn/W2V+TANHT8KqAxD1fVBwsRQGtnT9fEjpY4bWLNhqoGqXOj+/KBZO/wPWd4ApItKZiDunwZQlYuoV6d3C5sNCxLyiuOISpa2D3GcYeJGVQT2cJzSychS95OWmY8peLDrBATXU313p7tLZjrOcCqrG4C+ywDzPCTtmNi1y6YGjkBPV+HLrjMKEsGerjNMzPQ2fZUuIwT+bXMAREMDLnYfwrxsW/xnfdndAACo1vvJ8fCFMh/X+xfsXZcRKmINQJ7x0fQpvOQ6w2zA8uQAfKzoGshNzjMcy/oGIN1RcpdCq4d7ASbxUOsgf1tmPiAvOd23wnCPG2NiQMX99X9rAKIRpIs+o1DkeN82ptuLsnr4H3KgAWCstOLnOczCQAsv8ZBj1uP6QKrurwWbmPHR9Inqi64zzHpUBeWLHpLqGSudHnKcyv4GAAjD8P+8BIl+ieVa6CXLfEDdNgCi2CWAPKOh+30uNgLgXeLhrk+D+30bhmHWD/9DjjQAjCxZhPAvD0lDEz3dtkywZx4OpLtbY5dfRNyfJFKq1gB4FsJXPMS8zMjSBz3kOJcbDYCIhsjNHq7pEYr6+IKZD0m7vgcACkl32YyA+WK5FirO1wFoZ2TpKo9bZZZ1DgPGOz8HIDdn49K/G5IbDQBAGN6IEjrvAJTRLO0+wN+GGaTwZff7Vfb2t0EmUj3dw1AKHX+nXs6Vk0S2CAIuQwkc79cQCW/2uFlO5U4DMLL0VZQHfEQFCf2qjxzTp3eqzbecZigjnL6/iQ/xsq+dz19hPmSJVqrifsZWYT6Hl77iPMeT3GkAAEX+5iVH9TyWtA31kWX6CE7vqA4k3Nfl+5sY8dDsiegLrjPMhxR0fQGodh2jofzJdYZPOdUAUF10u8Lb7q8CUExB4kp/G2YUnne5T0MVGwHIF6r7uj5GhPCcvw3Kc8u1EOVyD8f9N+jK3pX/NiS3GoAR0g36Vy9Zyhdp0BovWQbU+QF1OA1a4DjDxIGPSwCasAbAl1Tn+eB83n8Q+TNjJeU8x6PcagAA0uF1QI+HpEpKu31MOGF6uT6gFlPSbRMC5bpntQgY5jglpKzQLgH4oCqE8nUPSSlSKS+XmH3KvZ94jipfxYOdM4HTnGepXkGDXp0LM0LFXmH6WXocL8io7As87zZkK8zRYiopo7CjnERQRE9QjVJAEFYTUExaypCwHJGi9/9MSBkixeu9UwHohha+qUJJIHx8QRORNpTuj/5H7UFo/SBLUxC0INoJdCBhKxT0kAgb6dIUWtJCgk6OlI5t/xAyrLl7OILrOR9eY39pc5xhAB7qmuRnRIe7OKo85x7rzL0GAED1OhD3DQAMpqTrIiCnbgyJpUPKV7OssxGodZah4Qhg2na/zxwtpl9bDamCGhJhDRrUoFJLoDWo1CBag1ILWgNSA1oLUgkUgVSDFgDVrFvpOgwgBAhB6L0gmab3H1R6//0j27GVT59t6Ldv7D0+8p/7iln33zTorTEEAuH9+pd1ArTSOzLXiJJCaAEagSaUJoQmRBoJtQmRJkJtIgibCBJNdKcaKShrykgj4edpDxv+90Xl2xv+Amc8KCeP8bnZAIwsuZ8Hu54H3D/brXyHOXoDJ0qX8yzzHDDK2bsHsuEnAeZoMf06BpIqGIyEgwh0IBoMBh2E6kBEhgA7AP2AWugqJSzovcCmfVfZZN2J8kMnTGS9X/v+f26q6Pu19iObCx9svmrfP2vfxckAQoWCBNAFyzq7gCZgLfAOqm+BvAPyDkH4FsjbpMM1JOQttOTtDTYMQTgCXb+AjLMGwIdlnRNAR3pIepaRJfd7yPEuNxsAEWVZ5x+A33tI24Xqrs8B13nIym/Cc6jDBkAZxbLOa4FBwGBgYO+vXTWEAQR9S7vruh/DAXF+MjEfKKZ33wwC9v7gs+8bCQEIgr5d0wXLOluB1cA7wBqU1ShjnFcpag2AF/ojPtZNuojR3+TqpE65e/RarmV0db0GDPCQthop/mSsrnXmoiWd/4Hw26jLMGaTJDicI4v+GXUZOW1Z50QUH8vxvk138Sdy9T6v3HsKYJ1DpB3R65w/Gdr7GkLY9Tlv25avAp7ztD/tZa9tfSlB4QqMW6o/8LI/Va/J1ZM/5PIIAMCiloEkCl4FyjykrUJKhtkoQIY0aAGlXbuRZk8I9wLZE2F/lMOjLs2YTVDgNeBF0BcgWIHoCwT6AkeUvRF1cTlhaddkCO9yniO0QfcuHFm91nlWRHK7AQBY2v4HVL7sJ0y/yVFlV/nJyhENjTUkikcQyN4ge0K4J8hewO7g/HEtY3xqBXkB0RdRViD6HBo8zaril6mTdNTFZYV6TTC083HgU+7D9FqOKrvcfU50cr8BWNixGwlexMsNj9JEYfcwDq96z31WlnlWi2js3gNN7wMygkAPRmUfYDfy4XtozMb1AC8h8iyhPgfyKPAsRxW/kqs3n22zxR0XI/iYkCeNyHBGlfzLQ1Zk8uPAu6TjVuAsL1kiv2FUyTe8ZMXVko5dkOBAwvBARD6F6KdQdgccz+RjTE5Zi/A0oT6JyGMEwWN0FT2fa9PRbrFlWkq680WEnTyk3cZRpWd7yIlUfjQAi9sORoLlntK6SLAXI0tf9ZQXHdWApV17IOGBhMGBiB4EHAj0j7o0Y3JUJ8pTCI8hPEYYPkZL2TN5MQ/Jko5vAz/3kBQiwf6MKn7GQ1ak8qMBAFjUMRvhRC9ZylTGlJ7vJcunZZ3DCPUwVA8HORjYnw8meDHGRKMH5FnQfwIPI8HDjCp6HpEw6sIypiE5gMLCl1H3S/6CTGN0SZ37nOjlTwOwpO0QNPgnfrY5hPAwRpc/6iHLjYeT/ekp6jvZcxjKYYj9ZG9MlkgCjyA8DPIwBamHOaLi7aiL2maL268GucJDUkgYHMDRxU97yIpc/jQAAIvaZyBysqe0pRxVMjorbuKp1wRDevZFwtGojuw72bteMc0Y49drwIOoLCORWsyb5U9nxdMHi7r2QcIn8PJUkNzO6JIz3efEQ341AAvbDkSCR/G13cIFjC692UvW1liuZXR2HoTqKJSjQI6kdx57Y0z+aAUeQllKIEtIFC+N5TwmizruBcZ7SFIIDmBM8VMesmIhvxoAgMWd01H1sVIgwGqKSvbiCEl6ytuwBcn+FCVGQ2I06CjgIOwZe2PMR3UBy1FZgrCYoHgRR0lLpBUtaj8d5HY/YTKdMSVn+MmKh/xrABZ2fapvOMnPNMgiv2G058cC52s1JV1jUMaijEV0P3J52mdjjAsplOUI9yPS4H2EYLmW0d75PLCLh7QQzZ9r/+vkXwMAsLD9NsDXXZ4pwvSBjK1090jJci2jpetIgvRRCKNQORr7Cd8Yk1kp4ElgAWGwgI7ixU4fP1zY9hOQ7zl7/4/Qmzi6/EI/WfGRnw3Aks7hpMOn8XeSvJ8xpeMydkNgvSYY0nEIKieAntA3P76d8I0xPrWBLAKdS5iYy9jizC2CtLBzDwifAkoy9p4b10lK9uK40tc8ZMVKfjYAAAvbfw9c5i1P5LOMKf2/bf7zC1oHURCMIWASyknYTXvGmHh5C2E+ITNJdC9gdE3jNr2LqrC4fR4q4zJc30by+DXHlP2nl6yYyd8GYGnLDqSCl0CqPCWupSC9N6Mq39mi371MS+lqOxoJTkB0PMg+juszxphMSQEPgswlDOdyTNljWzwx0QMdn0X0f92W975GCnuG5fKKf5uSvw0AwAMd/wX6M4+Jt3BM2bkb/b9LW3YgVTAB1YnABKDSW2XGGOPOu8A9wExKSudu9MmohuQApOB5YICXqpRvMjZ/V3DN7wagQUuQjhfwc5dpL9HJHF1+9/v/fn/LCBKJicAklCPJ931ijMl1naBLEJkF3MHRZSvf/z8PtN8C+FqE502KSveI5dwHntjJZmHHBaje6DHxdUK+RiATQCcCgz1mG2NMnCjwOOgshHdQ+b23ZJELObr0Jm95MWQNwBQNOLpjOb2r2BkTA9KMaBpoovdZ7BaELlTbEWlH6UK0BYIUaBOhphFp/vj7aBPKR588kaAb0bYNxqpUoeH6SzYXILLepSgR0Jr3/5+GxSBlva+wGKQSKABq6F0Cuprep1Rs4SgTFw9xTOmRWTFVu0PWAADc33E0og3Y52G2nyKsQWUNos0gTYTa3HuC1magsfdXaUK0mbQ0I+lmNNFEUNrMWGmNegOcmr+2GkqrkXQNBYlqNKyGoBrCGjSoJtBqkBrQGlSq+xqNamAQUBtx9SYXCCGqhzO23NcS8bFlJ7x1Gtr/DpwXdRkmljqBRmAVsBqlkYBGlFWorCYIGwlZRYrV9CtbwyHSE3G9uWtxUy09iaFIQS2iQ1CGgtYiUosyBBiKaC0qtcCQqMs1MSTyZ44pvTTqMuLAGoB1FrQOIghW0Dtsacw6jbxbOjArVk0zH2hoHYwGq7BjnPmoRgrSwxlTuSbqQuLA5odfZ1zF2whToi7DxE4t/TsOjroIs7US47GTv/kY/Z6d/D9gDcBHlP6B3rmuTfy1AsuBLZtcZLvICe4zTEaF6mMWuZDe72C0K+aZLfUE75ZdH3URcWId8vrubx8Fuhj7bOJiFcgK0BWoPE8QriAIXnj/2eH72h5DHD/BIbqYsRVjnGaYzFEVGtpX4foRW+Vxjis/CID72neE9HAIhoMOR2QvYDi9c4zYD1rRC0HGcGzZ0qgLiZOCqAuInWPLlnJf243ARVGXkmcaQZ9G5RngKQJ5hnTnMxzfbwOPt32YLkLFbQOgcgRz3qvixP4bnr3MxEtD236oeJhfQxe9/4/Hlb0JvAnc/5HfskxL6Wzfh1D3hWAE6H4II4Cd3NdnPuTPHGcn//VZA7AhQfqbhImTgIFRl5KDFPRlYDnC44Q8TSJ4hrFlb2zTu0mwCNUrMlvixxRSUjIWmOE4x2SCcryXHAkWbfb39M4y92jf6wMNjTWkSvZFwhEI+wMHAPsB5Q4qzXdvEnZ9O+oi4sgagA0ZW/UuC9ovR/SWqEvJespq5P0D4KME6QcZW/Vuxt5fUovQhOL+ks3xWAOQJbzcs6H0pJds858eW9sELOl7fWBe21ASHAzvvw6ldw4Es62Ur2x+JDE/2XXuTVnQdidwStRlZJHXEZajuhzhUXrSy5ngYZWtBW3PACOcZigvc3z5Hk4zzPZr0BLS7WuBUsdJzzGu3O13bp257TtTwCGoHorIYageQu/kSGbzpjGuvC7qIuLKRgA2JcWXKeBobAayDXmT3jugH0VYTle4nBMjerxGWIQ6bgCEYSzo3J1xJf92mmO2T7ptNIjrkz8IC51nrDO+bCWwErgT6L3JcV7LcAqCQ0EORTmU3qnMi73VlB0aSejlURcRZ9YAbMqE8tXc1/o1VG6IupSIpYGnUJaCPgiJJRxf+nrURb1PZRHol9znpMcDf3SeY7adBifgY3p3lc1f/3eld/76FX2vmwGYo8UUdxyMhiNBjgJGku+XDpRvMLbirajLiDO7BLAl5rfdC4yPugx/pAV0GcoyAl1GScfDHDUwvs8639s2hASrnOco93BC+YnOc8y2m9++AnS48xxlR04od/+d2x73dX6SdOpIREYCR9F7mSxfHkmcx7iyCfm+2M/mWAOwJeZ37AL6DGjl5n9zNpIW0MWILiQdLKSo9FHGSirqqrbK/NYXQVxfo++itH1grJuhfHZ/cjjpxAoPSdl5P8i9zf1IFIwGPQZkDLA/vas15pq1KJ+KfYMWA3YJYEscX/o681uvAPnfqEvJkCSwGPQBRBaytvSxrJ/rXmQhiuuDcjHt5ROAaY5zzLZIByd7yVGP1/8zqfeG3Bmse5pl/tpqpHg0KmNQPRrhYHKiIZAvcUKZnfy3gDUAW+r4ihuY3zoe5KyoS9kGIcLjIAsgXMDa8kXUSXfURWWUyr2gn3eeI0zGGoCYksleYgK510uOa72Pxs3qe0GDVpBuOwKCcaDjUA4i60aJ5WaOL6uPuopskWU7N2INjTX0FD1J7/Secfc2sAhlAcpMJpSvjrogp+a8V0VByRqgyHFSE/3KdrAlf2NmQbI/YeJt3P8E24N0DcyL58oXtA4iDMYgOg5lAvE/7r1Bd89+TKxpjLqQbGENwNaa23IsIvOJ3800HcBiYC6q8xhf+UzUBXk3r3UBcJzzHNXjGF95/+Z/o/FmXutFgPundYQGjq841nlOHN3bMoJAJqBMQBhNvB47DBE9juMrH4i6kGxilwC21vjK+5nf+huUb0ZdCvAMMA+YS0X54r5pR/OXMhvx0ACITGb9Od9NxPRkLz/PKLPdh8TUhMpngWeB3zBXy6H9WODTiE4Adou2OH5nJ/+tZyMA26Jei6hqe8j5KnQbJbdTIFf2LUBi1lmQ3JN08ILzHOE1Tqj4hPMcs2UatITu9jWgFe7Dwr0ZX+XjSYPsck9yOEFwG71PFvglPEJT+VE5d1+TB3Ebxs4OddJNQs8D2qIpQE8mFe4TTXaMjat6EXjJeY6yK/PbImr+zMd0tR/n5+Qv/7KT/0YEwSSiOPlDE5o4y07+28YagG11fOXzXu4637Ai4C7mJo+MKD/O/AzRhmrzi8dFoH6ezFGd5SUn28xrPR/4VQTJSqifY3zpKxFk5wRrALbH+MpbUf0TChG8ytBgBvNb9vayrdlCme3p8z8XVbuEFrUGLSHkZC/7XPL4+v/GzG2bRMgNKBLBMfAaPl15h58NzU3WAGyvsOJKlOURpQ8gLfN6Zyo0AAwoXwj4eERrF+7tOMJDjtmUrtaT8LIynrSSLo9u/v84uqd9JKq3Es3N5I+QLP9WBLk5xRqA7XWidBEk6oConj3diXR6Dvc294soP14OkR5U5nvJCsKzveSYTRA/l2IknM+J0uUlKxvMaz0ACe8ByiJIb0Lsun8mWAOQCeNLX0HkAnoHpqIwAk3MpaGxJqL8mAn9zASm1FGvOTB1apZqeKcCmOglK8Rml1tnbsu+hMzDy8jLx4SIXGDX/TPDGoBMGV8+C+UXEd0PAHAInYX3Maup1v3GxlxJxUyUpIfPfTCVbcd42y7zUR1lk1HKPOzndoKKmf42LMbuSQ4nlHkoA6M51skPGV9u+yJDrAHIpJby7wNRzhN+EInEbGasydFVC7fQWOkEPB0k1C4DREW8PYlxN+Mlokd+Y2RWy95osBAYEkm+ynQmlP0skuwcZQ1AJtVJGu06i97ZsiIiIykquzfvm4BAbvUTJKczR+M0JWp+uLOxBmS8nzC5xU9OjM1O7klCFiAMiiRfeB46L0YkqsusOckagEw7sX+SVPpUVNeiSjSv8EgKS2Yx963yqD+OyDSXzfO0D2qR1pOi3ty8U1JQh2qxh/3bhJbNjXpzIzU7uSciDagOjeiYtpZUaiIn9k9G/VHkGmsAXJhU/RIidUAqwirGkC6fw5z3qiKsITp10o3g5xnhUC72kmM+oL4+c7kzr+/+n9OyDyINwNCIKkijcjYTa/4dUX5OswbAlU9X3IdyZcRVjIHC+5iZHBBxHRHxdBlAdAJz2nfykmV6V6VDD/eU5ulSUgzNbjsEWEh0J39Q+TonVfh5rDcPWQPg0kmVfyDkj5E9GaCAyiEEsigvT1APlzcAqzx8zgnC9IXetivfpfViT39/1lBanp+rPs5uGQPhfSgDIjx+Xc9JFdf42Nx8ZQ2Aa4MrrgAWRFzF3mh6IXc3Rb1kp19TJES53UuWcLFNDexBvRaBnO8pbRpjJcrLeNGYnZxI79NMUV4+nEFbxWUR5ucFawBcO0R6kO7TgScirmR3EonFzGnJr1UEw3Cqp21nCwEAABUYSURBVKTduad1rKes/FXWOhHYwUtWqH/3khMns1vPBbkDKI2uCH2EsOJc6iQdXQ35wRoAH07snyQRnAjyasSV7IiykFl5tIrgpOp/Ak96yVI+5yUnn4m3Gy6fYVLVg56y4mF2y+WgNwOF0RUhr5AKJjFJ2qOrIX9YA+DLhPLVpNLHE/JOtPcEMADkfma15NMENn/x9NmeZjMxOjSzfUdUJ3jal3/2tl1RUxVmtkxBuQYliPDY1AxMZnLF2x622mANgF+Tq18GPQWIurstBqYyu/U/Iq7Dj6Kev4OXmdxKkIKLPOTkJ0l/DvCx9kIHpPNj+H+mljG7dTrCDyOupJOQyZxU8XTEdeQVawB8m1T1IIRRzxEAEKD6W2a1/JkGjWI5T3+O79eMeFrMRbncFghyoF6LgC95yRKdxsSaqFb39OeOZH+kdR5wasSV9KBax8mVCyOuI+9YAxCFidWzUf0yikZ8OQCUS2htncZMjWJZT3/S6T/7+Tz1E5S0+FmhLp+UtdWhDPayD0P+4m27ojIjOZxC+SfKqIiPPyEqFzGpyhb4iYA1AFGZVPUXRL4WdRl9ToHWRdzVvnPUhThzcvVDwFNeskQu95KTTzT085kKzzGpaomXrKjMah1PIA8Cu0dciQKXManiHxHXkbesAYjSxIqrQb8e9RBA3+tgEqnHmNWSu4+ySfhXT5/lscxo3c/bduW63qdWDvWz78Lc/ul/VssX0HAWaG3kxxzR7zCp8k8ettpshDUAUZtU9VtC/WnUfxf7XgMIdR53J7/lfLuj0J6+CZV2L5+lhF/1tl25LtTLPX3/u1DJzZv/GrSEGckbCfV6lILIjzXwcyZW/dL1ZptNs5nL4mJm8iqUr0ddxodcT2fl5dRJd9SFZNTdyRuAizwkdSDswqSqdz1k5a6Z7TtC6hXUw7PpKlOZXOlrlkF/7m7aDYI7gf2jLqWXXMukiitsad/o2QhAXEys/CbodVGX8SGXUtJyH9PbhkRdSEZp4n88JZWifMFTVg5LXebl5A8gYe7NOz+j6XgIHiE+J///sZN/fNgIQJz0TsjxF4jVjHJvEwbnc0pF1OsZZM7dzQtAjvOQtIbi9t0YP9jHHAS5587GGgoSr6JUe0hbyMlVx3jI8aNeE5QkfwDyPWLzg55czaSKr9nJPz5i8sUwAIgokyovQeWayK/RffAahITzuLvlmpyZL0C5ytNnN5DOsku9bVeuCQq+Ski1p2vSV3naKvfuaNmBotY5qPyAaGf2+/Dn+ztOrvwPO/nHi40AxNWM5p/0de9xshAS5zK5fFXUhWy3Gckn8DMs+hZdlbtTJx0esnLH3LfK6Sx7BRjoIe0FHq/chykSeshy6+6WY1GdCgyOupQP+S2Tq+J0f5PpYyMAcTW5+vugP426jPUcDenHe68rZjnhak9Jgylq9bWATe7oKvsSfk7+vSNC2X7yb9AC7kr+DNX5xOnkr1xlJ//4shGAuJuR/A7Kf0ddxnpC4LcUVX6PE6Ur6mK2Sb0WUdTyCjDUfZiupLtqWM49UeFKvZZS1PJv/JzI3qa68hOMlU4PWW7MaB6Gyo1AvFb5FJnC5MofRV2G2TgbAYi7yVU/B7mMdVfS4iEAvkF3y2PMbDoo6mK2Se/J+Fo/YbIzRS0X+MnKAcXJz+Htp1i5NmtP/qrCnS1fQOVx4nXyV9Cv2ck//mwEIFvMSF6C8kf8rIa2NbqBH9Jd+WvqJB11MVtlVlMtqeB1oMJD2it0V+5lowCb0aAlNCdfBPExLXUb3boLddVrPWRl1sz2HUmn/wY6PupS1tOD6oWcWn1L1IWYzbMRgGwxueovwKneZrLb8lcRys8palnC7c17uP0QMmxiTSMqf/X0Oe1GYdLPanbZrLHlq6js7OfOdPlbVp7872g5k1TqSVTHx+Dv/4de0o7qZDv5Zw8bAcg2dyRHIswE+kddyga0gn6HJ6uuy5qbqmau3YVUwYtAsYe0d+lJDaOuX7OHrOwzq6mWnuBloJ+HtG5ID+fU2lc9ZGVGfetgCsJrEc6IupQNaESYyClVy6IuxGw5GwHINqdVPUjAKNBXY9Dyr/+qAK5l/+QS7m4Z4fJjyJhJ/V5H1NciQQMoKvi2t23LNt38F2g/L/tC9H+z5uSvKtzRdAmF6ecQPSMGf8/Xe/EGEhxtJ//sYyMA2aq+dTAF6dlAXG/C6wH5LSWVP4z9kwLT24YgPf8CKfWQ1kkqPZy6fq97yMoe0xt3RYIVQImHtC6C1B6c0n+lh6ztM6N5GGn+BPiYuXIbyFMEPROz4rM0H2MjANmqruItSlJjEeI6RW8h6LfoTD7BHcmjoi5mk04vXw3ia1nSEhIJuzt6fUHwE/yc/AGuj/0Jq16LmN78fdI8Q1xP/spMytuPjP1naTbKRgCy3fVayIDkNQhxvsFMQW+AxHc4rfKdqIvZoBmtg0il/4VQ7iEthPAgTqt90kNW/N3ZeAAaPIqXH0i0Ay38ZG/TF1PTm8Yhcg2wT9SlbML/kKr6WtY9+WM+wkYAst2l0sPp1V9G9FKgJ+pyNkJALobwX0xvnkK9FkVd0MdMrngb8bYaY4AG1zNF7e+fqqDB7/F1LBKui+3J/673dubO5psQmU98T/5p4ApOq77CTv7Zz0YAcsm0puMIpB4/d1FvO+E5VK/g9Jp4Xb6YmRxAt/4bqPQTKJdwetVf/WTF1PTk50H/4imtFQk+GbtRqPp3KkiU/Bfof+DvMsjWE5Ig53Fa1ayoSzGZYQ1Arrm9eQ+Eu4G9oi5ls1TuIAy/QV3NK1GX8r47mn+K8l1PaWuRYO/YnZB8qW8ZSCJcga+GVeQXnFb1HS9ZW0JVmJ48D+GXeJmSerusQOVUzqhaEXUhJnNsCDLXnFH9EgXdhwEzoy5ls0RPIyEvMD15PTNaB0VdDgASXgU0ekrrh4a/9pQVP4nwKvyNVrWSkt96ytq86U3juCP5CMLNxP3kr8wiCEfayT/32AhArqrXBImWH6P6HbJjPydBf0V759VcMLgt0kpub/ouiK+VGJVAx3Fazf2e8uJhWuMxSHA//r6bP+SM6h97ytq46c2HovycuN7Z/1EhyhTOqPopIhp1MSbzsuHEYLbH9OaTUG4i7vcFfGA16I95r/pvXCrR3NRYr6UEyeeBXT0lvkBYdSB10uEpL1o3aAmVycfxd5lqJcVtezFpaLunvI+rTw4n4Gegp5Edx90m4DzOqJ4TdSHGHbsEkOtOr55NIjwYWB51KVtoCMgf6Z98hunNn6FBC7xXUCcdKD5n7BtOInmVx7xoVSR/hc97VIRvR3byn960O7c3/ZVAnwE9naw4+ctThBxqJ//clwVfRpMRc7SYtuSvgMujLmWrCK8ScjUVVX/yPqPgtOZFwGhPaYrIZM6oiv+9G9tjWtMJIPfi69ijPMSZVUd6H8Ke3rQ7GnwL1YsB/03sthJuprjti5GOlhhvrAHIN9OazwO9HrxMeJNJr6H6O9pqruezntZvn950ECGP4G+kbA1asB91FW95yvOrvmUgknoSZIinREXlCOqq/+kpD+5Yuy+h/Ccq5xK/pbs3JQlyKWdW3xp1IcYfuwSQb86snko6cSjweNSlbKVdEbmayuYXmdb8VW56y30Dc3rNY4hOdZ7zgYFIz19Rzb3GXFUg/JvHkz+gU72d/OuTI5nWPIN08BQqnyG7Tv4PoxxgJ//8k3sHGrNl6rWIoPmnKF8nOxvBRuDPaOpa6ga86Syl/t0dkYIX8DliovJV6qp/7y3Ph2nNXwb9g8fEdoL0cE7v/4azhAYtYE3z6cCVCEc4y3FHEa7ivervRnbDrYmUNQD5rr7pWOBGYKeoS9lGPYjeRlp+x9k1jzlJqG/+AajPBXx6UB3HWbWLPGa6U7/2KAjuA/xNAS0yhTOr3eyzOxtr6JFLgK8AuzjJcE5XQ3AxddX3Rl2JiY41AAbqm/v13RdwRtSlbKcHEL2WtTUzM/oTzcxVZXSUrQB2zth7bt67pPVQzsmSNes3ZnrjrqTln8AOHlNXUtqe+cf+6lv2gdSXQC4CKjL63j4pt1IYfIXTqt6LuhQTLWsAzAfqGy8CuQaoirqU7aOrQf6XtP41YyfQ25rqEG7LyHttuaegexR1O7R6zs2Mm94qp6RkKbC/11zlLM6qqc/Ie9WvLEUr6hAuARmVkfeMzrsol2XsszFZzxoA81G3rBlKoug6VCdHXUoGhMD9KH+mufqu7R4VuK15BujJmSlti93F89WnM0VCz7nbR1Wob74VqPOaK9xDXc2J2/0+t7bsjaQvBD4P9N/u94vevUjq807vlzFZxxoAs2G3NV4I8jugNupSMkNWoTqVMPw75/Z7apveon7tLmjwLN6Hf/V/OKv2Cr+Z2+m25t/2rW7nUysSjqCu3+vb9KfvaNmBVFiH6meAwzJbWmSSqF7J2bU3RF2IiR9rAMzGTW8bQqrnOuCUqEvJsKeBqYTpf3BO/5Vb9SfrG69A5Wo3ZW2C8mvOrvlP77nb4tamnyNeZ1LsJXoldbXXbNWfmbGmkq6iU1A9FxhHNk3aszkiM0ikvuL0SQiT1awBMJt3S9NZCNcCA6MuJcNCYBEwlaLgzi26KapeE4TNDwKHui7uY1R/yjm13/eeuzVubfwRyA8iSH6EoHokdZLe7O+8QUsobRoPcg5wMlDqvDq/3kT1q5xTe2fUhZh4swbAbJl/JAcQhL8CLiI3vzdpYBHInWjqrk2ODNzauD/IcqL4aVHk+5xV7Wulwq1za9N3gShqS4Eewtm1T270d9Q39yPNSYhOBiaQfTNhbokQ9DpS4Xc5v38y6mJM/OXigdy4dEvySCT8A3BA1KU4pMCjKHeSSNxFXeVzH/sdtzX9AuVb/ksDRH6HVH1zi37a9WGKBuzV/Cvg65HkC7/krJqPX3KY2rgrQTCZQCejjCGXhvc/7ilUvsA51Q9HXYjJHtYAmK1XrwnCpi8DPwGqoy7Hg1dB54LMI9D7qOvXzMxVZbSVPgV8MqKaZlGaOpfJA1siyu9V/04FWjgVxffTEev8i/KO/Zg0tJ36dypIFxxNICegcjzo3hHV5FMSlZ+QrL7GZvMzW8saALPt6t8ZTLrwV8D55M93KQU8DMyld6TgJxHW8hQJnbTNd71vr1ve2xmCmfh+zv/DRL8H0HvC50igMLJa/AqBG9DC73JuxdtRF2OyU74ctI1LtzWOIeR3wEFRl5KH3gG+6P2Gr1sbJ6NcDwzymmsAlhDKlZxX82jUhZjsZg2AyQxV4bbmM1D9JbBb1OXkoWkkCi6jrnKN05SpTbUE4S9AvuA0x2zImwj/xVk1NyOiURdjsp81ACaz6leWkiq/AuQ7ZP2UwllnDaJXcnbtLRk/QagK/2g8F5HfkXuPg8ZdC8qvqer4TcbXNzB5zRoA40Z9y0B6Uj9E+AL5c102HpTHUP0hL9fO2e4phKdowJ6NJ4H8CDgwMwWaLSOdqP4RSfw351a9G3U1JvdYA2Dcujk5nCD1I0TOBIKoy8kzLyL8iXQ4jfO3cja4v7+3E0FQB3wR2MNJdWZj0sCNSDhlq2eqNGYrWANg/Lhp7b4kZApwGva98y0EloMuQoOHUX2J4mAlVPWtMpisoCvcmUD2RPTwvmfmD8H2k28K3IGkv8e5A1ZEXYzJffYX3Ph1c+P+BEwBJmPfP2Og98Q/i0B+zDk1y6MuxuQPOwCbaPx97acQ+T5wBvY9NPkpBOYQyI/sxG+iYAdeE61/rN0PlW8A55DbU7Uas04PcCuS/m8b6jdRsgbAxMMtjZ8gzdeAi8nNhVpM3pNOlBso0F9xTu2rUVdjjDUAJl7q11bTJRch+i1gSNTlGLP99B1UbiAMr+XCAW9GXY0x61gDYOLp+lVlVJRciHIZMCLqcozZBo+hcg39a27jROmKuhhj1mcNgIm/qU0Ho+EVKGdjkwqZeAtR5qDhNVw4YEHUxRizKdYAmOxx47s7IvIFRC7BLg+YeFmN8H+EwV+4oOaVqIsxZktYA2CyT70W0b32VDT4HOhx2AyDJhppYA7IX9mpZg5jJRV1QcZsDWsATHa78d0dCYLzCfVziNiUtcaHN1CmUiB/5Lza16IuxphtZQ2AyQ2qws2No0AuAq0DKqMuyeSUJpA7QKby7+oHtnuRJWNiwBoAk3uuX1VGWcmpKGcC44GSqEsyWakDZSaB3EJjzT1cbnfym9xiDYDJbdevKqO05DjgTOB0oCziiky8pREeAm5C9FbO75+MuiBjXLEGwOSP69dWUyyTET0TGIeNDJherYjMBWbQHczm89Vroy7IGB+sATD5qX5lKR2loxCZhMqpwM5Rl2S8WgPci+hM6JnDBYPboi7IGN+sATBGVbip6QBET0SZCByGPVqYa9LAI6DzQWdxQf9HENGoizImStYAGLO+fyQH0NUzFpGxwFhgr6hLMttCXkR1Ach8urWBS/s1R12RMXFiDYAxm3PzmiGkE8eCrmsIdo+6JLNBr4AuBXmAVLCAz9sz+sZsijUAxmytv7+3Ez2MBI5AOBw4GLuh0Ldu4FGUB0GXUqAP8pmBq6MuyphsYg2AMdvrei2k6L0DgCOAw0EOAYYBiWgLyxFCClgB+gQqjxPKPwmal/PZ3TqjLs2YbGYNgDEu1K8spaVkBEGwH7Af8Clgf6B/tIXFXhJ4BvQJkCcIw8cJWp+xk70xmWcNgDE+/W3NUET2gmAPAh2GyjDQPUCHgRRHXZ4XQgrlFURfIJQXCORFNP0iBbxgw/jG+GMNgDFxMEUDdmramYL0MJSdQXYGHQrsCMGOff88iOz4O5sEVgKvobwBupKA1xFdSY+uJD3wNS6VnqiLNCbfZcPBxBgDvcsgt64dhIaDCIJalH4g/SDsh0o/hNref9dylFJESkBLgFKgmN5pkNf92gl0bCRJgSagG6QNwlaQHqAR0W7CYC2BvofqexD0/qrBGoLwXXq63uPSoe0ePg1jjDHGGGOMMcYYY4wxxhhjjDHGGGOMMcYYY4wxxhhjjDHGGGOMMcYYY4wxxhhjjDHGGGOMMcYYY4wxxhhjjDHGGGOMMcYYY4wxxhhjjDHGGGOMMcYYY4wxxhhjjDHGGGOMMcYYY4wxxhhjjDHGGGOMMcYYY4wxxhhjjDHGGGOMMcYYY4wxxhhjjDHGGGOMMcYYY4wxxhhjjDHGGGOMMcYYY4wxxhhjjDHGGGOMMcYYY4wxxhizhf4f+CoDg9VcQIMAAAAASUVORK5CYII=;" vertex="1" parent="1">
            <mxGeometry x="174" y="-247" width="70" height="70" as="geometry" />
          </mxCell>
        </object>
        <mxCell id="IJoVcqCJSkyeiCKx4dnM-3" value="Tailwind" style="icon;html=1;image=data:image/webp,UklGRl4xAABXRUJQVlA4WAoAAAAYAAAAwQEAwQEAQUxQSCITAAABHAVt2zANf9rdH4CImABZ0Iec1oNQSPqD/9/dlPb/Hs/n8ywWQHhLKOnYBdJ5K+nVAnGQYJ/+HrspmPfb3nvX6d00u8A7bsYy03EELMmg6U0NsiEVneBAXGHP85zHHyzIda5rd1/nXSNiAuRc27YozscMZ9PutpRUcU+56eji7m4dHVXcOcEZw12+gf1LcXc3Br549jlbPdGImAD8v///D6kiouuaWejXNrI2/fp0h/7NTFVVpDkSEVEzCyEEU1UMrKKqFkIIZqYiIs2JiKqaha6g2Jhqm47fetKHPzb187vP2ueAgw457OjjTzl1IRpLprOGYVq2kytWavVmq93pSiml++NSym6n3Wo2quVi3rFN0zCy6WQseuHZJx9/9GGHHHTAPrN2/9zUj3148lbjNzPBxtTQFcxUVaSREFEzC0GxwbrZqHdN/uyXZx3x7ZMvvvXeeQ+/8JulPctfX9W7ps/Zsb1vTe+q1//Us/Q3zz80/97bLj7534/c8yufmzRm1GaCDdYQzMxEmgBRW1ex/rD5hIk7zT74pMtveGDBC6+tXNXHjZ3c44Z6M3mwoZ64sftWrVz6woLumy4/6eDZO0+cMDxg/WpmwVSGYiJqwVSw3s0nTPnU/nMuu/uRF3/3ZuY7zCn29cXo7p7Wzf2yQ+d+07ru7jH29cWU+Q7zyt+9+Mjdlx2//6emTNgc6xW1YCoyNBKx0KVY7/BtPr3XSVd1P/vyCueGphT7orun3C8H+NxvcvfYF1PihvrfX362+6oT9/70NsOxXu0KKjKEEbVg6FdGfGjGsVfOf6lndeJ6U3KPMaXMQW9OKUZ3T1xvWt3z0vyrjpkxZYSgXwumMuQQM1OsG8ZOO/SieUtWrGX/Obq7p8RBeUru7jGz/7Urlsy78NBpYwPWVTOToYIGUwCQ0ZP3u/iHP13F/nN0TylzSJhTco+Z/a/+2QMX7Td5tACAWtBBnmgwrDt66mHXL+hJ7Df1ueecOeTMObv3JfabehZcf9jU0VjXgsrgTDQYAOh2e1305HInyZxiTJlD3pxiTJkkffkTF+21vQKABZVBlloQALbDYbf+qpcks7snDqmTu2eS7P3lrYftYAAkmAyaxAyAfvDQ238VSdKjJw7Rk0cnyb5f3X7oBxWAmQyCJBiAkZ87f1EvM+kxZQ7xc4pOZvYuOv9zIwFYkEGNBINg7L739JBkiimzIcwpJpL5j/fsOxYCCzJIETUA4w+a9zrJHD2zYcweM8kV8w4cB8BUBh9iAoyYPX8lM5MnNpTJE8mV82ePAMRkcKEmCDtdvYyZ7pmNZnZnZs/VOwWI6eAhKDDmuJ84mWJmA5pjIv0nx44BNAwKxBTY8Zq/MWdPbEyT58y/XTMJUJMBzxS6y4/eZvbEhjV55pruXRVqA5spdPozZPbEBjZ5JhdOV6gNXGbQ6QvJFDMb2hwTuXC6wmxgEhN8eTGZnI2uJ3LxVyAmA5AptpmbmBIb35SY5m4DtYFGDKPOX83kbIQ9cfX5o2AyoATF7NeYnI2xJ772NYgNHBIw5vukZzbI2cnvjUGQAcIUM3sYExvmFNmzJ9QGhIARtzM7G2jPvH0EQueTgO2X0BMb6eRcsj2CdDgJ+OrrjJkNdY58fQ8E6WiqOC3R2WA702lQ7WAq9l16ZqOdnd9R0Y6lMmweY2bDnSPnDhPtUIrhDzGyAY98eDi0Iym2eJKRjXjkk1tAO5Bi0ycZ2ZBHPrkptOOI4k5GNuaRd0Kl0xguZWSDHnkprMMEfJPORt35TYSOYpiRcm7WcvbdYR1E8d5lTGzYE5e9F9pJuuls3J3dHcRwAp0NvPMEWIdQ7NzL3MRl9u4M7QiCrsV0NvLOxV2QTmA4ns6G3jkH1gEEW61gbuoy/z4R0n6KO+hs7J13QNtOsSszG/zMXaHtJniK3uQ5n4K0mWFPJjb6ibNgbSWQRfRmz7lYIO1k2JeJDX/ivrB2gj1fA55XtLFhD+bc9OXMPWDto+ims/F3dkPbRvGxNczNX+aaj0LbxXA1nRXQeQ2sTQTj/8pcAzL/Oh7SHoYj6KyCzsNh7SF4tB48CmkLxaS3metA5tuToO0QcCadldB5JkIbCGwJUy1IXGKQ8hTTMnMtyMzToOUZzmFkNYw8B1Ye8Dy9HjifR/mKKb3M9SCzdwq0NMM3GFkRI78BK03xML0mOB+CFiYY+xemmpD4l7GQsgxfYWJVTPwKrLTz6HXBeV5pggX14SlIUYp3v8FcFzJffze0JMNuTKyMibvBSgo4h14bnGcjlKTorhHd0IIEw19lqg2Jrw6HlKOY5My1IdMnQcsJOJiJ1THxIFhJVzDWh8grEMoRPEyvD86HIcUIupYy1YfEpV2QUhTbvsVcHzLf2hZaimE6c43InA4rJWAOIytk5ByEUgw314pbYKUIFtBrhHMBpBCBvcJUIxJfMRSqmLiSuUZkrpwILcPwKdYKfgpWyj6MrJKR+5ZzFr1OOM8s5+Z6cVM5T9SLx0sBXqwXL6JMwZbLmepE4h//BVKCYut/MteJzLe2hpZgmMrESpk4FVbGjJoxo5Rj6bXCeWwpp9eM08oIuI2xVkTejlDGvJoxrwgBFtJrhfMZQEoY9nOmWpH482FljHi1ZrwyogTFe1Yz14rM1e+BljAxs2LmiWV8jFXzYyUYZjLVi8SZsBL2rxv7lRBwBL1eOI9AKOEMxnoReVYJXbiSfTXjcnS1LuB6xppxLULrFPfWjXuhrRM8Sq8XzkchrQOerhtPo/UCPF83ngOkdZu8zFQvEl/epISRK5jrReaKkSWMfrNuvDmqhLGr68bqca1T7LC2bqzdEdq6aawbnNY6wxdrxxdgrduFuWZk7lLCbKaKwcTZrQs4nM6K6TwcoXXfYqwZkd8q4QT21Yw+nlDCqbXj5BIuYqwZkRe1znBT7bgJ1irFHbXjDmjr7qfXDOd9JcyvHfNbJ3iodjwEad2ztWMRRFoE/IypZiT+FAX+vnb8rgDfVXZc9eH0G+y4rqN8YtYtdtwcEz7U+H123B/HBZ6oETNG6mkApYngS3a8DAoNNectO97Oxs1/z47383GLPrDjwyLcko/s+LgYt8Jjh7ccpYtJxQ41KXRUSI24MVIh3Co1VNQcqtW4DcrjhqfWCz/GLzarATcGajNuOz+24XbyYwduNz924fbwYw/uAD/2447x4yhKF2F+hIWOivAjgjvOj+O4s/w4i7vIj4u4KD+iuBg/Yrik8rjhqQQuzY8ULsOPNC7LjyzO4IfBMPN3GAtnE8jhh43L8cPBFfhRwJX4UcJV+FHB1fhRxTX40cC1+NEkUAuliQ4/2kKjTxcn+SFx7u8wLq7Hjx7D+vzo/ylr6neYqf/++3NRH9cn0BSB+r8F9fjRY5jLD5dAEif50cV1+NHBtfnRJlBL6BhdtAjU4EcDV+NHDVfhRwVX5EcRV+BHAZfjRw7n8MPB2fywcRY/LJzJDwNn/BaU5UcGlyFQih8pXJIfCVyMHQN1BRdVA3Zcxl3kxwXcWX6cwR3nx3FchB8RXJgfYZRfHOXHMeFH7efHAdwefuzB7ebHLtxOfuzAbefHNtxmfmxG6WKD8rjhqQ241WrIjaFaLXRUSI1GzBiNVAi3UiluKDWJ0sRyjx3eMqGhFn9kx8fFuEUf2PFhIW7+e3a8n4+b/ZYdb2bjgi/Z8TKI8onAU3Y8DQgfauK+GjJjqO5P4MZusuPmGAqwZbVjmaHlsrR2LJXW4fe14/co8Ge142etEyym1wznIkjrHqodD7VOMb92zIe27v7acX8JdzDWjMg7Wme4uXbcDGtVwMW142KE1p3CvprRx5NLOKF2nFDCtxhrRuS3Svg3es1wHt46w2ymXDESZ8NatwtzxciZu5TwBbJmkF8oYVrlyDtDW6XYcW3dWLtD6wTjVteN1WMhrRv1Zt14c1QJI1fUjRUjS9jkZaZ6kfjKJiXgOXq9cD6P1gF4um4sQIGCR+vGoxBpmeJ+xnoReR+sdQHX1Y3rENDyLlxRNy5HV+sCzqobZyGUcAS9XjiPKMGwH1O9SNwPVsLMujGzBMXHWTU/Bi3hg6lm5IllvGc1c63IXP2eEgQjX2WqFYmvjICUMOxnNePnw8rAM/Ra4XwGJSBgLmOtiJyLgCJuqxm3lWE4jV4rnKfByji2ZhxbygymWpE4o5SpNWNqGYqt32KuE5lvbQ0tQbDlcqY6kbh8S0gJAF6k1wnniyjU8Hi9eBxWys314uZyzqoXZ5WzD2OdiNy3nE+RuUZk8lOlKCaurBUrJ0LLENgrTDUi8RVDqYKn6TXCuQBSiuEWxhoReQuslIA5tWIOQimG6cy5PuTM6bBSFNu+xRrBt7aBliLoWspUHxKXdkFKgeARen1wPgxBsQGXM9aHyMsRyjEcxFQfEg+ElaOY5My1IdMnQcsRDH+VqTYkvjocUg4UD9Brg7MbioIDzqkRZyOUZNidqTYk7gYrSfHuN5jrQuYb74aWBMECel1wLoCgaMP59eE8WGlfZqoLiV8pTTD2L0w1IfEvYyFlQfEIvSY4H4aicMM36kLkN2ClKSb3MteDzN7J0NIAPE+vB87nICjecC5jPYg8B1ae4pOZuRZk5k9CyxPYEqZakLjEIOUh4Ex6LXCeiYA2VEx6m7kOZL69I7QdIHiUXgecj0LQloYj6sHhsPYQjP8rcw3I/Ms4SHvAcA29BjivhqFNFR9dw9z8Za75KLRdoPgRvflzdkPRtoavMuemL2d+FdY+gD7H1PQ5n1O0s2Gf5i9xb1g7CWQxvdlzLhJIO8Ewi6nZS5wFQ3sLnqI3ec4nIWhzxa7MTV7mrtB2g+IOenPnvBOKthdM/DtzU5e5YitI+8Ewh97UOefA0AEFXYvpzZxzURekE0Ax7W3mJi7z7WlQdEbDCfQmzvkfMHRKRTe9eXM+AEUHec9rTE1b4rL3dhIYdvecm7Wc03QYOmnAt+jNmvNbMHRWwyWMTZrzYhg6rCjuZGzOIu+ESqeBYpPHGJuyyMc2gaLzKkY+wdiMRT4xEopOrNj8IcYmLPLBzaHozCrD5jLmpitHzh0mik6tYt+l52YrO79roujcqjg90ZssZzoNqujkErDHCsbcVOXIFXsgCDq7BGy/hJ6aqeRcsj2CoOMHjLiN2Zsoz7xtOAIGQlPM7KGnpik5e2ZCDQOjGN71PdJzk5Sc/N4YBMGAGRRfW8rkzZEn/mEWNGAgFcMW5/+TyZshT1x17hYwwQBrim3nJqbU/KTEdP/WUMPAKyb48iIyebPjiVz0FYgJBmQz6PSFZIq5qckxkc9MV5hiwDaFTl9IZk9NTPJMLpyuUMOAbgrdpXsNs6emJXnm2w/solDDQC9BgR2v/itz9tScJM+Zf79mR0CDYDAYFNjymB87mWJuQnJMpL9wzBjAAgaNaoKw09U9zHTPzUZ2Z2bP1TsHwBSDSjEBhn9t/pvMTJ6aiuSJmSvnzx4BiAkGnaIGYPxB814nmaPnpiF7zCRXzDtoHAAzweBUgkIwdt97lmWSKabcFOQUE0n23L3vWAg0CAazEgzAyM+et7CXmfSY8lAvp+hkZu+i8z47EoAFweBXzADoBw+9/Vd9JOnR01AteXSS7PvV7Yd9UAGYCQbLokEAhB0Ou/WXvSSZ3T0NrZK7Z5Ls/eUth+0QAEhQweBaNBgA6HazL3piuZNkTjGmPPTJKcaUSdL/9ORFe22nAGBBBYNy0WBYd/QnDr1uwbLEflOfe8p56JFzcu9L7Df3LLj+0Kmjsa4FFQzu1UwBQEZP2u+SH/5sNfvPMXpKeWiQU3KPmf2v+ukDF+03eZQAgJophohiZop1w9hph1w4d8mKtew/R3f3lAZnKbm7x8z+165YMvfCQ3Ye24V11cwEQ01RC4Z+ZcSUGcdcMfelnlWJ603uHmNKefCTU4rR3RPXm1b1vPSfVx4zfcoIQb8WTAVDVxENXYr1jtjmU7NPvKJ78ct/d25oSrGvz91T7negy/0md499MSVuqK94eXH3lSfO/vQ2I7Be7QoqgiGxiFowFax38wlTph1w/OV3PbLktysz32mKsS9Gd/e0bu63U+V+07ru7jH29XniO80rf/viI3df9s0Ddp4yYXOsV9SCqQiG4KLWL9Zvm0+YuNPsg06+7Prup55/7R+r+rixU/K4od4MHvyoe+LG7lv1j6XPLei+4bKTDpr9rxMnbG5Yv/WrggZQRM0sBMUGy2ZbjJn02S/uedTxJ1186z1zH/7xr/+wbPkbq3rXrI3s2HHtmt5Vb/xp2au/eeGheffcevEp3z5i5pc+M3nMqM0EG6whmJmKoIkUUVWz0NWl2Jhim47fescPfeQTn9991j77H3jwoUfNOfnk+WgskcpkDdOynVyhXK03W612R0opXdd1e+63pZTdbqfVbNSr5ULOsU3TyGZSidilC88+Zc5Rhx1y4P77zNr981M/+qEdtx63qQo2pnZ1BTNVFUFjKiKiZhZCVzBVxQCrqhZCCGamIiJojEVUVc3MQr+2sbVp16c79Gtmuq4IBP/v//87KlZQOCBUHQAAEMMAnQEqwgHCAT51OphJJKMqqKNyCblQDolnbvGmfR3bEP8VGb3aZc37v+W/PNcw+Cub7Ov3BZyf9v6h/0p/0PcA/RT/Tf2T1nfWH5jP26/cb36fTf/0vUA/sv/W6wz0APLg/dj4Sf2s/cD2lP//rMvqT+v/i7+yXmb/s/rA7uWfQx950/6rv54BHrjfndt8w72S+qf9f06Pv/NT67ewB3z3gtfSf9V+zHwCfyL+kf8/1Uf/Py7/o3+m/+H+q+Aj+V/2H/qf4P23vYJ+6vsQfqf/yBzHpYmqnr4zc6qAfhCb2CHK5/A92cEpyZldK59l5N1JCsNTDsqORHGQBcSbgbv5IE2kZ09BIBQlT6tgLCg8mi/d/PN7UDCw12Kujpyatu7hC8zTnywvmwvcwytKMISiFa3ffCZB+MWA1ou426f/7YrO7fO6ODY3vza8LuEP4JNNk1ZM/4x6QIoEjRAQOPDHN2O8e3PMm9X4pn0+XyeVFQ+lzVr+3qxPDjaLnmIwza0vbpPVRI2GPjBKx6Kes39Veof7m47LA0fv9byMlY7SnL1dBTNJ6WJrDUw7KjkdI0ds/2h1ERJ1Ck+n+VYmsNTDsqOR0sTawWM4BxJmMIdjIBktvi3Wph2VHK7hNYamHUvwPaaq+0vQJA0+TX7X54C/KNyOliapjNxm4pfkkAOSPrx4ZCfjsZhj9w2k84AYSz+5kIDp/Zvtq15APLN+4rQBSf//ae5t3x/n6gob8oBfu6xlclHG4iv4lyQjxZRCo2HsrHA41dxAH+5yvBlPe3sTY21hRfgt6YnFjcl4mvGUa9Xfz+3L4Hzgn/QXFHE25MKjCSj5aoJWvxxbBjAbLBnWHUkVcdgBOnZeIe99YqUUxAVGZmWvpR7iQWvqNikKfoyFFoCBk7KfN+8/RrlO+a30R3XOQMwrqaZvO4cW923nAgb0voXaEXW4KJCqzIWWLEx5yVOjg7raQQCBOF8an5CZYl/kfQUlxDD4000Fnv/P4Kr5AcylZAGtxktf/U/H0c/GOYRFyIw6PycGv2hF3qwBO2yRTYLiXTF8l09jn6GGPfR7AMdJIP+/cFeLabjobTT3T7SX2jH9RAnx3+b703oYN/w68jvOOS/ylttKEZt3iKbcQJjCS9MEDFJklbdiA/Y+G9lbMkMs+Srgja1hXdTsWJpufHSPHDIfOAuAV+vyKNa2PNO8MX6Xco+ocIzxkYcH2ufMy9QpGYLQ+u6ySn8ed5iEgQjl+RcQrRDOp8v398At8P4GthOijxw2tS6HArIyzmJe8w2PFRZDDeDGJoHf1QZS6xzjCGtGVws2mvBIz0i9W0BBbP1sh5B3o2GDLOaB2/D2yri5XGYKW2tKWTRaDpHNNSL+0cmxE7VotRbDeBHWZnyCIPxaE7j984R8ZT6mx0lCFd8ecvP+F8LSmabMrZUmziwKX4+R7Z5DKUXT/R9eiojGymdS6ao9mHhul9ER81S+IJbUOg8esmiSIiF1rYYonqRR7tBqXyHhfDeRLChwfKmS1GcLdNPysg0xgcpFgg/gHb43w+0u+Q3RSgEZ7jgL8PbzTfWPNDmS6s5pReAGtBjBmkWxCkN1feDZOqaTt5Fpy6pCbsNyvciCCcRtF18SURomstZASqUoF5a1NWY0hlOKb9wZDT3Im9Xfrv+Ge3ejsyAZ37z8HkeVnBXXIBkPO3bGdUXLVTWIEItludsHmAQ1Ej6seQ3qFWeMrgz4LFZpjAXHXBkdLE1hqYe1+5cyq/iG/DDsKHtQW6gG3c3cEshIrSoHWquIGMncYcuKtAzHS03F/eKxckn9SHfBQHiD/pXyVJdll13RyACPPTjN/IIK6QMUdv55fAqWOCnWy3phLF1RE1m5Vewd9shIP7xVfEk6bQ0sCjqVX1ufQ0PIeA8NYZ0PX9vC+ke8TBoTC0rhRd/NRoASafg/ZuvZhKA1Kmq15dk6/LyU+wPYD4EOl+OQlEBPWVmjsjF29u004fq1wqWAE/HZUcSG9aXmgQ33pZA6/F+LDcuw2vds0zeT3NRwf/pxzrTVSsBWHPwkeUdnR2VOAta/O6gjWliaw1MOyo5HSxNYamHZUch4AP794MKL/F+Kbs0zhFARFB2Nhl14/A4+3ocJGcDazSEor3b6hsdUU8EwQooYJF6vStfbtR3R08GjIqEf//42tR/lX9rGcagU6JuNv/Vs5FNC+O5qnY3I1lNHAgppo6fEZ+JdiKt5hTp0vPd0jTBtauDP/lJtwGGgFw6O3dMf3wpiDg5EOMgE31PZYFrGp9LSUcfDS9lFD9et4Ag8H3kkyg6K9Pegq5N/8cauq47UWwLCFrapefnfuOyivD7RKAfdSOTPz9M0nBxC2Ib5Byj1OuucxtJmCJP30KtYz2QE1Sz45siCTfEqS85Je5hp3Qz/Tkw7NqpxRrShF69EDHozsiDo1Xrn6iKVH0MKWBwaqkVBoHFnOqcEv5nIC3VXaZJKaRu30W+sWNhH9wvPE8z2S46XFwuz3lR87TXabe5zr0i7EKJzHmx88xMfa/mMrKALpZjeV6462j7OwMn9T13+MUOTTRL+6rDduK3HDdyV+PeggxavxwQl71qRUb0q+ogkYDH42izDL7PdJACFA/TRtJwG/J+CeqIKSHnw+/gBKesYJ4m0H+g2ZbafNxxx6mTtw+1Od/1mRIvOIuecxGm1wfsunqSBfhrBTvtf/NY/T0Dm0RG0RZzXhvue5ZUW2bcfGYzA9xiMSBqU39KL9ALQcF+VdjHl4wklQDx7CqGax/U42Lw4F56JRHJ9QMZWGsTIhwFhLFPnz0TAMtCNyqBFDI19QVzPpD+wegtEeA/GfCRJ4Z8d/cr9zn1F+pSWMvqi12R0MBUITFdRCZc8f/iGRFRfs/cKrc0DhCcmRRNtZrpdR5lL2GTXOWuZB5NygggiwGg/Qqe9dMg0dMHKrUo5cux++uuYtcepWydXzz5KCv2tR0N5Sz3ClcpvQFCz5JR7imNrT6Y3TSCc4Rbcq5bxDDOyDCRQIMQipzHFpDrwH8esL6itIf5xz5c1BzLLV4ewwxv2q+Wbt2/WsfxOa7d5IoC8zyekmok+zKNPQgx5zm+fS0gDi8oHQWoHifSVzgWpB7ER7kvGKKLOq6f5P2GF2KLkc0b65DMCICgas6n/cng+zk3R5rLNKqdS37INe7UuHYV486ZBPYdyAf9oDV6q6KarXq4CdvBa8aOH4O6gz93XogngMIf+E/QMrdtGGFSdVQOnJbwPdwpYGJcD4ybg+hn4moM2DSzlsad5+Iq3s1e0+VCI6pySI+1Vo+vFj3KJKlMwNCbJxsZuv6vflf/eZ/iVOVOcFrUmnsIVRpVfuDzSWXPmMvWuYnGronod6uFiGYyMAWzI0vhgSaoHCmPNN1CjPYHDvFuCsoFXcFC051Eu0E1jJsnLCemE6X93mksy0f+Um5CCtkb+N7FRZ92CpbHx7C15rBVd04Uj4UFQqv1fliPgrJJ4bfm+/WGeADSxtvyK05GlBsZGzm9XIq2KZo6XDy1Psmjzd0BXIhkQRUNabNsrL9jY+cwvFW5E9G3xYp2dlXUZ0Zr4DxgXHSSB1mGzfqr3OBNbs+FqBAEEI/JPezv09bvi3ip8nOE9XRi8AMwm2QmzJTOlom5SvGprDa9SL0uW5jcJ8w0xVdfc4/4PU+6JvtfLBV2q4w9vRMfngEY4KDuUiAXhnIRzU4VybSJKmKmBnrOzctgIxBB3xXiFXfsT8TVFbtjQJekLzxHyjpGHFIn6iHxYK7cUtD3FHg8uXiOt8/9DyZYNvdoZNiS61XikYgYvtC6QwHQtoqWJh6PYz5ELYnQrbNKkbpQXdTT5kBtmXJcq70ys9K+j7ihSWoInJ6IfffxRvKSK1hm3yrnTSmp9dEvPxgNgGJqE0j+2GQLCFS/IO2pUoVUwnzFFh0dTIb0zYp81rSERtq4DHmNgPzEUAObqQp2Dm/dvG6RvX6BzxS/CvM+67anHeLjaynsxWIy9GFFxjFPFQKw+yb7m6OoX4BIIUI7CL211bpPLG57XX5gf+pXJAbL+yAQdN2CUndhjlKdNSaFjJTcPEojC4ULwinYHgY5GKwr+bEA7TGslZ3NfN2/lJ1wj0Xxpt4EVzlwPNA7lymUxZ0oaV7w/u+NiVWp8ytZk/AAqJjDYmwaaWaniwWEfEfsqx2of68n1KPU0yNN9W8kZ/elBWcqBEIa3awygDWF9qiMmdxBFDXNCgn1daTBheNqyM152DC4AgTYkxawt4AEgOTwpa5f6vUwWGxco9QIeqHc1n0IvRXf90U4i1sq6ESGEPgV2VT6AffOIJgsWIRJY6cYZSm9tgz0ln8RCTBEWDKHlsnBZ7YKnajiHY6TmMMSyPk32KkVCR+Rz43UUnXJBZ01xnfxh5uRI6TOgZIDkvVlMBhs9l3QOrt+YQ49gMuY0lrDix+lFUvIJjrPNL5uv09Mj/jDWkhRBeowGa68Od9ct+6J/0Ht6YGQE6JMT86UjgFUvUEuZW3pswTRfrBwvx/AHsnu/7zh0fkNpL69w2m3tCNahZYf2lLY91h4x2I4S4NnxhBYTkI9/HqUsnMh1pIWItZulIGneQu1p8mvLiDjvj8j3j5vMsEhcA5GafK2HYbxYinMN0wryTAAvZ3BdKsCKYzemp+QxqyvhawwEQEfY9I9USv9k/gEdyHmkvc6+EWuqZ+HMh3zLbESy0wg4giTxe01v/5oiJroaY0Z/dI4u/6f6uk53/aBXmRv6Z38oJit3OGM2VZeznv7r8Q5uoECx3szD5MTrG8HKwUgztoMSQnTFjGVnXBrPgwEy6F9MK+v5n6aY+mMapCD8KC2UxQOpBt+gHaMCSTPAF6fRV7VDIhpUaO5wUixrdq2NbEGIfivRdij5lbJO5RjfRE9HYYmVzwinDUcZ9F7W8HiQdHhmO+gWR8PKWi3jGXSieTdnVRnkn7sc+rTUyncCIGO2Z6lOIlx/a1y5c+C4pQEWFtcRzEISk8s11Id+8NRLiQWkcRO0uQww3uqsDLafkOBNRWrtrQvCjQi9sjv+asbVzDcUj7f/J4FE8WtjjWo+wSPLaoeQMIZ9hjs9QC9NUqN/Iv7xgtTrwNcz229wHlxBHpZjyID+lPfOdbl/wXimvIR/5KXnB6N3tz+BmPbRSrmGp8zKauD+epudW2D9RBFgeHjiCDIAcLC0diUEk9F99Vx3bDSxbuNtBamPafb/1V44lq27Ep5LJZi5lYyikarXlMdttBOYC4pd/lBXnPxyYNJnhO+Pj45HC8QlqWlciqI34jOUsTwFO8DWyabQvd261k1dNtg670jVGeqU7u1Zf97HiuiXdoP/Rt3Uc3Pf08nheXaJtMuZKCG90inoZnrXxLziieSyGhla1+6emqN+CxqeAjkEKsU52UF3C12A0AiFyiIYAA7OpmEWxhgIoAUgftACL1XGjGD2jASemN4znOa+lgO5EWL5TUKoSnnYGR/u/NwRsJVm20ttomaR3fBfTBZpnU/EuTq+yyNhkOu2JeLhy6XDjgb4kQRWsuF/AF6P2uxeEExwWXjEcu5awrPl5Db1TpenbMg96wVTgWm0Jnr2nyaXsbodJ/lAzuWeUZIG2q1a6QyajT7OGa4sq3At5uQmjBg8hBmlAriToIkaT0x7HweIjw2HuP7vFUGGZ4iSnWIqZFCpqqtyHisoWop02JIoIkK2vKDMOcIc5dQD5l3f7EXCb5F8MRmM3J+GZZdOWiQLxBVXDj2wUtUtJmc36K9vIJwlSWTRCfXZYI/KY2/MsBfBII+VNsDkRsOsiJAN3Txq6XQrZKjeI+7V2w7o6jd6Fj2RiexAYm9pDor1w6O6TAeDZhM9xKGRbTXDelEaP6dlHChAiRa4AgTScZ+SzUMcN3CoRkgYnssyVSdT6JoTdzrTYQSrbKQLxE3deJbpNfRsn83rwnLc0wmdIqW5A948LfoLoO1piAyn4utX/o6zFHwkqzgvbVqovUIp0eQXiAxo7Zc4he1sBXURJWFf2jvVHbwt8Nq+E3siR7IvI8I+vPzdb8GMI2oWyOkPI3DK2UDYeA6ieTk9SjNqccvPTyXcNOkAZ5amviWqdwbBmWjPEEhPj3gUtZIT627te3iMU38jMH9UyY+vLliRLSEl5GXOhKlBLXpLTV/GETAc4v//fof27dG3fOS5+yraZvVRtB/a6VTmu3EOrF2rDxn26QuddJFZFHETpUaKQRglrASbruUGjAAIMBuiUx3DfHQNwDDdDGTHvDrN/twuTs4RM1OkOSYWJXnYBgfss9fe4MoAUHwgknoLt0Ng1jXiop/1cMUhs93crGN4KDUxXZo08Sbihww5jgtgcbtH62WJVydY51LgjXm8J56ACbbxFSpfUSN/H96vQiqxw0lE1eHsK2aw9qt2PfjC0u3MO4vJu66eCO1dzKq2MGkE2N8Zl0CvGQMQqbNmOaDfSOMphEZTXlunTqM28fS2gbu+oL2PsXu2w/0x9PPAI8VdSDHhQMeCedixP08NPuQF3au0LatRmLWht/lAEbRy5CeIGL53ekStMqTyPpNuWAWfRy+rCkyd4lAgmxEBZ55f8bcZx8HLiy2eH8qds7MkCKGm4tNFWP99t8rjLCb6FU/jASMZRtVr/5K1fIYTAdM3WjftaIWbiFqWTOaWbSGxX3KMb1ML7+uHwFprLC9nOGP1auxJJZPKylHxnWKrS/rAVctoi3DWe3JHcJ8a/g7d485yuViAvZmA0XXqO/GOpHEOnKAgOAcdHLZEwPaCGy3ay86D+icuB+bk7olotfRWjxo5ItkVv2C7EFFnJ2EiwQw7xz9HIaId5Zg5G8tKjgERrjGmmvCAVpxw/ZVqNmdOoqMOmY0sX+2TJg98OJP5oU2YaM2UqLKZO8K+d0lJxpuH42FGbEed0p53dvSnGW7NKtynSwHBCFKb2m1QCXmBXMZg+D+ipy5awrcXvoVd5vrWE3S5+8WIg695t/Ryoa5uEXMnXLMvslL1gFedQbC0OQ59J6FpFH0Zfazb4pVf6NpX/6RM75vSj6uT0/6N2iBJ0vRIgN8XBEWgj2os7VO37wa1kXsc+hLqT81TTv51BM2h/DN97awt+JPMajBjU6TxtlgwL5diLDqZacN1dbQyo26IZKrbPZEYoajMXUa+TV5Bgflq6wjBHHziRsQ7DdU9ydI44LzY9a8FBjxmz9up8VvcHYQ/VLJoAUm5RVdgCk0qEs8oNwf8BSq/zLqg7j8dlQcxnKv3UP/XtvaL/WGV3TlR7TI3D8ANcG3i2jBcnAFe5tTT3/+hCddXAqDZx2CxLrYetApZGhfxe6k7VcyXXG2CJd7jtdGV0LbARFz586t5o7MHgY7EMsIfd+TT9uoK8dEy0IT5vhP6qOoUcX87Va4MRK4dHUqjcCaVNAjGKdNiWPhqT2x5uROneuaVoRZpKrgmwEbv5gNrg+Wvd0JyUXye0dAUyPDWQTv18lzTIkQDtfDJC+baegpMWS19zvmKS2T8RpT3al9MSDHRvecKcwGh/e+7P/lzsGOLgQwL6a8hpy0uDQZB2C/YhQe+byQMRJSEMGAnjEDSo5XDSc4Dg4oXfClkB5YF/eqW5rYmm7bPejqMmvceKdnsL0/0NqVKnMTUmGzuB1yf6L5m7tTT8aN9X9Adz7d5L/qnz2VxnJnORdpg698S1gjRhg96C9nBUqwORuhMI7EB72+8wZ7r88O99oc4m8AL2rGJT54AffQQx7h+PI/ODRk4wpyHwPIjr0mLu7/mX3rEgdCjWQiQz4tWwensY9mQILrGioFeQ4AVeimzUKulOfwFc3+CPE2skBJ6TmRS3qiWXdbwqsM+9SqJjqVD09QVliM3RjoQftDwYoBnZxWrlzEO+5LY0nz+HDmucyFt5VNM27KNRnk99qrAchwIxF2MMPFEntF4rDLL0ndAvVd28KqrkEk9sBqLoW2R2TwVEjz2VC2+DZJuu1nbziylErsmS8Tp14aJbtfnspEJ50QC+6dkTUHyLPaEXAw3K6k9OMtdmxyghu+Q5W1JQK1HPB4JeUKUL2t322JAq+OEawNQl3AHFJf5pV5G6ta7xBKwYsRNr4xaBUU5mjEr7vkDa8I6E4cPb1AnzCXoZBvjIsBXg2yN3sqrY8LsQHlZ1s4dL5BYs5J8aatZsjczs3txqnetTlNgCdMIPP8oeuIs/D0zV1qOsG7eOLgNqYcmdgDTszQdANo8ZPmzGE9utkG3E83xxP/9FgOW+hHVTtoJ7KsVMfNUcDGj1RpsDiljoQyKzTI81opmu0dXbgJ9onkeOUENBOlBE2pGJaQWBIKQ4+c2eObTdoDylHjd4ONuI48rvhcsmMQ7wCjA8fTzoxgsGmQ4NButMqABDglgQcDLWidZQm+2y10P8QyNKdymvBxDLVwvgxrHQE4/cojnfNtaNP+PP/bIU3Azye6lAQF+GbOm0qWG1GjsW69ntEowfGBxQF7mqobN78HmCJiTvYxVLiuvkYCJRJhRFntIHT6z9WckV7U/N8SjIFbJusO7pFIz8QGTn7Ibscrk1RPEScKyr/mJUa2Wmz8+8eALU0q72iW5HLZiP7sgT5Z1ngPLTQFhnBAJxXL/6Koe79jDZoUrzy6Z766gIOaQKFs6S+Jlsbg0StihzjgC/1Yg4GYJm2QuvFvRiZtgHP399AMXVxishDO+5tnWihQExbvWAM+ApjRPNch+J1HpGBKds4f7qfJktRuYZfw+N5FTEaTS0HMs2Kj54nAPyc5TqpHm6op+0OIk2FZbQZodhpkESk8IwFZL7zcy/oODH5Jq5EtGzE3blAJ1IcKV5oiLrD3BgRRrInheFzvmPzkQhZVe6dXiQBuW1qpH2+2sdRDXwa1Rb4tu5uWA4MWKpSEGYyijFQvvrWDPtR1/U4iV8uBffei2FqgaFlTZF4fy4Qu3+fclKkfW1Kdz2tJgn6Y3YgSysweK4+J03oFWgCEevWhAawdF0LqGs6Rn5oj0zXxPtJw4tQWI79V8W5ZmogDiGywNPI3g6Z2Fk9BLPcuZQixIcgL0MZjx3Wj1rigTfweyUW+xOt5INxMObMkKS4AlCp2mMEsSkkSGBcVkyYAnVoMnyTezo2d41AUogg8HlldpF8HTiPi3FWAx7S6Fuq8FYhM9hK9Za73OIxTEmfGeZgi/Fl7Cj1Qj/JRVjV/h5ov2KhJ3Y/FOEhb0F+8pgcR5gHurx1uitkP/yhMN4CGROesjF4/wQQLBuWqIHkSe1+6jJimRe3OpiXliy+g9iPRX083eKYgIX+dQoIpFhKJK0nEGJgVwOt4BgaLNiIbP42SHuF7pv+1ZjqN0FnsiMgb+loqug37O5DZFF3sVjKHCYlWrt+0gXj/KNHajD9+Hpgitn0+fW1A0G4dGdHyP0udLYpC/5eqkGdfZOGTdnPz8FXO7y6tGzq2FnBDK6Al/ZQV42esU/zrscD/0w5yqVzL6ra20pQxPHPPB1P+E9CFd563sbEXNt/QQOYYBjCNRtMjey28lpzIkhOY616LEpJV7tEFmoRXBQ7BvbN4hUn6yys5dfULQGWLo4/ClwDUtFLrI7sQHaNzDhIccmq6330YyyA9mrYI35f+nGZWDqtbTfddfvwkVqMn8q9AycSSjI/wHOS6yDQH70Azx24ruRWCXOw/sjYrYbvUz6GzPnYapi25oBemb+pNf/SdexLCaoVU0fESQMTcAoI9MRHA6NQ+nlJdXxmqqJyFxhd1h64kf+l1AAK2Z1DOB+XlZf7/IXAhhb5mC1amnuni3m3wGsN103ZOdVMmeVEp7JequuEbqnNWiatJpVElHToQCOhKUBCoXnU1A7poKmBWScI+54nYtPPaK+ZW9j2xBrp85KJ0Wxx+tUnl0i9i1Z7LOhwgSLaBdefk42hV/+hosZVrzzh8mNCWXLEUQ7UIeCgCv7MqEJTrNGFkrdgCntgFC3QxRKHaNVLQ5qsOXNkukbIdQQvmDjaSQTDP3KG9rj4XhMHK4evB2rV4yrf7s+AAAAAAAAABFWElGugAAAEV4aWYAAElJKgAIAAAABgASAQMAAQAAAAEAAAAaAQUAAQAAAFYAAAAbAQUAAQAAAF4AAAAoAQMAAQAAAAIAAAATAgMAAQAAAAEAAABphwQAAQAAAGYAAAAAAAAASAAAAAEAAABIAAAAAQAAAAYAAJAHAAQAAAAwMjEwAZEHAAQAAAABAgMAAKAHAAQAAAAwMTAwAaADAAEAAAD//wAAAqAEAAEAAADCAQAAA6AEAAEAAADCAQAAAAAAAA==;" vertex="1" parent="1">
          <mxGeometry x="264" y="-372" width="70" height="75" as="geometry" />
        </mxCell>
        <mxCell id="IJoVcqCJSkyeiCKx4dnM-4" value="TypeScript" style="icon;html=1;image=data:image/webp,UklGRpw2AABXRUJQVlA4WAoAAAAYAAAAwQEAwQEAQUxQSBsTAAABHMVt20bW/mPnTtp/REwAsqBmcvxc6Q4MOI3YoG1b9rbRdd/3o9QxZmoMM7hhZial5CicGMrchqFdXk8YyhRmkL21UibHM7VdDpW59VeuvFN35B3D99z3c/3QJ4U+eJYjYgKs4f+nikr0m5kDbNndPCZgwNrd3d3d3S1hK/F0l0ree8Hu7m7f6V4eu1tpzsz83qn/OVu/zYiYAPzf//+XVBEdbWappT3f/rcPv3FqaWY6WqQeiYiomaWUkqnqqE6qqpZSSmamIiL1RERVzVJfUsHzqDZh1i5z9z3g4OP6551zwfyFr3vrxdf0uaHvgEFDhg0fPmLkqNFjx986cdKUqdNaWlvb2qb/2ra21tZpU6dMuu2W8WNGjxo5YvjwYUMGDeh77T9dfclbX7dw/gXnzjv9uIMP2HfuzrO3NMHzKJr6UjJVFakSImpmKSnGrVtOm/GKY05+7Zsuvfr62x9Z+rlv/fjXjd+tHdmwqels297ctGFk7e8bv/7xNz+79JE7rr/msje/9qRj5k6ftqVg3JqSmalKDRC10Yqx08Q5Ox06sOCqmz+6bMW3frNupMnnOyKPNza5/qXuwee7ObLu199cMfTxm69eMHDYznMmJYxtZslMpRcTUUumgjEnztn7yAsuvumhzz/1078VPscSudnM2d09RpeWbNOlZYx2d8+52cxR+BzLup8+9fmHbrrkgiP2njMRY4paMhXpjUQ09SnGnLTbUWdfedvQ138+7BxvRG5md4/Skh2+tAx3z80cwfH6X37+9aHbrjr7qN0mYUztSyrSw4haMrSUSfuc8fZblz7dWB8cM8I954jCrrdE5OzuwTFjfePppbe97Yy9JwtaWjKVnkPMTDE6zTx80XVLnhzezNYlu7tHsCuPcHfPha03Dz+55LpFh89MGK1mJr2CJlMAkK32Pv/6Tz27nq1Ldo8o7AlLhHsubL3+2WXXnbf3VgIAakm7PNFkGL3Vwa/7yIpGsGU03Usp7DlLKe7NYMtoPPGR1x08DaMtqXRnoskAQHcbuG75750kS+QchT1viZyjkKT/bvl1Z+2hAGBJpctSSwIg7fm623+4gSSLuwd76nD3QpIbfnD76/Y0AJJMuiYxA6A7Lrrzh5kkPXuwRw/PTpLNH965aEcFYCZdkCQDMOWYxas2sJCeo7DHL5GdLNywavGxUwFYkq5GkkEw89yHGyQZOQorYYkcJMtvHz53BgSWpEsRNQCz5y9ZS7JkL6yMxXMhObxk/iwAptJ9iAkweWDpOhaGBytleJBct3RgMiAm3YUakA79QIOF7oVVs7izsPHBQxNg2j0kBaa/4ztORi6soCUH6d95+3RAU1cgpsBeH/gzS/FgNQ0vhX/+4FxATTqeKfTUxzeyeLCyhhduevxUhVpnM4X2f40sHqyw4YVc2a9Q61xm0P6VZOTCSltykCv7FWadSUxw0moynFXXg1x9MsSkA5li18FgBKtvBGNwV6h1GjFMXbye4azCHly/eCpMOooJBn7DcFZjD/7mTIh1DkmYcS+LF1bk4uQ9M5CkQ5jiNQ3mYGWOzMZrodYREibfyeKs0F5452Sk9icJezxJD1bpcD65B5K0OUl41VrmwkpdModfhSRtTRXvCzortjPeB9U2pmJ30wurdnHeraJtS2WLQebCyl0yB7cQbVOKSZ9lZgXP/NwkaFtSTF3OzCqeuXwqtA0pJnyVmZU8c/kEaNsRxQPMrOaZD0Cl3RhuYmZFz7wR1mYS3kNnVXe+B6mtGPqjlLpWip8OayOKbdcwWNmDa7aFtpMhOqu7c6iNGK6gs8I7L4e1CcXhG1hqXOGGw6BtQdC3ms4q71zVB2kHhkvorPTOi2FtQLDzMEutK/zLTpCXnuJ+Oqu98374xnmcxsKKX7gLfNMcnqDXPOcTcA0LmMdg1Q/uh9AoB7eKXveczzm4JgUcwmDlTzwEoUkIL/1nwEseDQ7Yi6XUvpy5F0JzPO6ms/pH3g3fGI8e81nqX+b87vBNCRjMyP8EjByM0BCH5b9g/s+AzC+Wh2tGwEmM/E/ByBMRmuHwsA4ehmuER9d5zBrInNcVvgkVejJShJE9UTXAIbzBpILE1wNceR6bZWYVZObN4MsL6MOaMqzZB6E84CVGHUS+hPI91p3HrIPMud3gSws4izWFWPMshNI87mdUQuR98IU5LPM5kxISP18GrqyAnZgoxcSdEEq7hlELkdeU5vCEHp6AK8pjhW+YtZD5zQrwJQXsykQxJu6KUFKFPoxqiOyNqiSPOxVxF3xBDn+cyaSGxJl/hCvHo2tkVkNm7ApfToWjmSjHxKMQSurPWg81+6Mqx+F+Rj1EPgBXjEOH95n0kPh+B7hSPNacw6yHzDlrwpcSsDuzIjJ3RyilwrmsKcia56IqJWCUKkYjlOLwJKMiIp+EK8QhtDMpIrE9wJXh0fkHZkVk/tAZvoyALagKboFQysGsKcmaB6MqpRejJiJ7IpQyShcjy3lMF4+WAryhizdQpsOSnzBpIvHjJeFK8Fh9NrMmMuesDl9CwEZMFGXiRghl7KmMPUo5nVEVkaeXcqUyriijwljWqqg5DlUZ05UxvQgHPMuoishnAFdCx3eYVJH4TscyFpmpjJl/KsFjxVnMqsictSJ8CZ0zhZk7l9GD0uxRQsA+TLpI3AehhMO0cWgJFU5i1EXkSahK6MlaFzV7ldABA7hQGf3Qwa7CMNbKGILKzqNFG9Pg7RweZtRF5MNwdsBT2ngK9g54SRsvAs6uUzuTLhL/0qmERb5h1kXm14uUsPiP2vhxsRKWmaWNWcvaeayzQBsLusDbbUZtcDO7gO3VsR2C3c7MysjcuYT9mYTBxAPsKpzISGFGnojK7hzWyqh5TgkXcaEyFvKiEi5Xx2Ul3MBaGTVvsAsYqY6RCFYeE9UxEd6ulVEZkS0lzFDHDDuH+9RxP5zd8+p41g54m0kZiW+hwPfU8S7grPz76njfwTx8pI4Pg5VDp0/U8XFHOKvFv1THl4vbrfgdszIyv1/RymP1n9Xx8+rwVl3nqmNuF7v15qtj/np23ReoY0F3ux4L1bGwh90mUR1xY6uAbagObotgtQuzNjJ3sdubidJM3MeqwgGM2og80O4Q1tqoeQgqqyP0cbjdUfo40u4YfRxtd6w+jrU7QR8n2J2uj9OsAs7Tx3kIVpfq41K7nvroaXetPq61u1EfN9r11UdfuwH6GGA3iFEbkQPthuhjsN1QfQyxG6aPYXbD/x1muN0IfYywG6mPkQobrY9RdmP0McZunD7G2Y3XxwS7W/Vxq91EfdxmN1kfk+2m6mOKlcc0fUy1a9FHC7xVqz5a7dr00WY3/d9hptvN+HeYGXa36+P2/5R1hz7u+L///pvN7Xa3/9egGfqYobDp+phu16aPNoW16qPFrkUf06wCpgpoij6mIlhN1sdku4n6mGh3qz5utZugjwl24/Qxzm6MPsbYjdbHaLuR+hgloBF2IwQ0XB/DFTZMH0PthgposD4G2w3Sx0C7AeqoOcCuL2t13Gx3gz5utLtWH9fY9dRHT7tL9XGp3Xn6OM+qwun6OA2V1Qn6OMHuWH0ca3eMPo62O0ofR9odoY/D7A7RxyF2BzBqI/JAq4B9mLSRuA+C1S7MWRk5cVe7bUltkFtbeWwS1RE3grfqsVAdC3vYdV+gjgUb2K03Xx3z17PrMlcdc7rYrf6zOn5e3cphxe/V8f2KcFZLfMmkjMQvl7Dr+LE6Pu5oBYQP1fFhgLGDe18d7zsrAO+q4z0U+LY63rZzeJ5RGZHPw9ndp4777DxmqGMGvF2rOlpLmMhaGTUn2gWMUscoBKsKN6rjRlR2l3GhMhby0hIuUsdFJZzDWhk1zynhBEZlRJ5oF3AAkzBy4gEIdjszZ2Fk7lzCdqQyyO3sPDYTR94U3q7LAm0sWMfOYdlZ2pi1DJzdYj9q48fFSljka218vUgJndqZdJHY3qkEvMioi8gXYQfgKW08iQIdHtbGw3B2Hi2sdVGzBd6uwjBtDEVl1wH9tdEPHewq9NJGrzJOYtRF5Imo7AIOZdJF4qEIJeyjjX1K8PgzpdkDvoTVkjJy5zJWnMWsisxZK5bg8Kd2JlUktv8JroSObyvjnY5l4BlGVUQ+ixJQoY21Kmq2oUIRY5UxtoyAKxhVEXkFQhmnK+P0UvZgUkXiHqVspIyNyvBYfQ6zJjLnrA5fgsOSnzBpIvGTJeFKAPAGoyYi30ChAY/q4jGEUkbpYlQ5vXTRq5yDWWui5sHlbEFmRWRyi1I8Ov+gih86w5fhENqZFJHYHuDKgMNTjIqIfBIOhQaM1kTN0QilVDiXtSbORVVKwO7MWQ85c3eEUjzWnENFcM6a8KU4dHifSQ+J73eAKwUODzDqIfJ+OBRboR9rPdTsh6qcgKOY9JB4FEI5Hl0jsxoyY1f4chz+OJNJDYkz/whXDjzuZK2GyLvgUXCFPox66I2qpIDdmNSQuBtCSR4rfMushcxvV4AvCQ5PMmoh8kk4FB1wrR6uQShtRyYtJO5UmsMynzMpIfHzZeDKgscDjEqIfAAehQecpYWaZyGU5tFtLrMOMud2gy8NwEuMOoh8EQ0MuJq1Dmr2QSjPY7PMrILMvBl8eQ7hdSYVJL4e4MpDhV6MKojsiQoN9Og2j1kDmfO6wDcBDg8zaiDyYTg0MuAkHZyI0AyH5b9g/s+AzM+XhWsGAgYz/mdA5CAENNSj+3yW+pc5vzt8U+BxN73+Rd4Fj8YG7MlSal/O3BOhOYB/kV77El/0aHLAwYz6dzBCkxzcanrdcz7n4JqEgHmMuhfcDwHNdlhOr3nOx+HQcI9TWWpe4S7wTYPifnq9cz4Aj8YLdh5mqXWFwzvDNQ+Gi+m1znkxAv4KCvpW0+ucc1Uf3F8DKA7fyFLjCjceDsVfR8MV9BrnvByGv5aKIXp9cy6Doo1s8xtGbQuu2badwHC6l1LXSol+GNppwnvodc35HiS0V8MNzDXNeT0MbVYUDzDXs8wHoNJuoHjZV5hrWeaXXwZF+1VM+SpzHcv86hQo2rFi4meZa1jmZyZC0Z5VthhkLrWrZA5uIYp2rWJ30UvdKs67TRTtWxV/F/Sa5Yz3QRXtXBJeNcxcalXJHH4VkqC9S8IeT9KjToXzu3sgCdp+wuQ7WLxGeeEdk5DQCU3xmgY9alM4G6+BGjqjJEy/h/RSk8LJe6YjCTpmUpz5a4bXIw/+ah40oZOKYeri/2B4HfLgyL9MhQk6rCl2HQxG1J8IxmO7QA2dV0xw0ioyvO54kKtPhpigI5tB+1eSkUutKTnIr52uMEXHNoX2rySLR40JL+TKfoUaOrop9JTHN7J41Jbwwo3LTlGoodNLUmCvD/yJpXjUk/BS+JcP7gVoEnSDSYGXv+3bTkYuNaTkIP2bb50OWELXqCZIh36gwUL3UjeKOwsbHzgsAaboKsUEmHzmkr+xMDxqRXiwcN2SgcmAmKDrFDUAs+cvWUuyZC+1oXguJNcumT8bgJmgO5VkEMw89+E1hWTkKLWgRA6SbDx87kwINAm6WUkGYMoxi1duYCE9R+n1SmQnCzes+tdjpgCwJOh+xQyA7rjozh82SdKzR68Wnp0kmz+883U7KgAzQbcsmgRA2vN1t/9gA0kWd4/eKty9kOSGH3zydXsaAEkm6K5FkwGA7j5w3Vd/5yRZIucovU+JnKOQpP9++XUDuysAWFJBVy6aDKOnHbTowyvWBFtG0z1K6T1KCfdmsGU0Vnxk0cHTMNqSCrp7NVMAkK32Ou+GTz07wtYlZ48ovUGJcM+FrUeeWXbdeXtPEwBQM0WPKGamGJ1mHr7w2seeHN7M1iW7u0d0ZxHu7rmw9ebhJwevXXT4zD6MVjMT9JqilgwtZfLeZ7ztlsGnGyPBMcPdc44o3U+JyNndg2PGSOPpf7v1bf17TxK0tGQq6F1FNPUpxpy861EDV94ytPrnf3GONyI3m+4epWWnKy3D3XMzR3C8Pvzz1UO3Xjlw1K6TMab2JRVBTyyilkwFY06cs/fhF1x884Off+on6wqfa+TczNndPUaXlu2qtIzR7u45N5sefK5l3U+e+vyDN777gsP2njMRY4paMhVBDy5qLTG2TZyz06EDF11900eGnvjmb/460uTzHeF5vLHB9S91Dz7fzZG//vqbTwx99Oar5p95yE5zJhrGtpYqqIAiamYpKcYtW06bPvfoE1/75kuvuv72hwc//+0f/2rN7/59ZMOmzZltO2/etGFk7e/W/PLH3/7skodvv+GaS9/0mhOPfsWMaRME49aUzExFUCNFVNUs9fUpnk+xCbN3mbvPfgcfd/q8c86/aMGit1x8de/r+w4YOHjosOEjRo4aPXb8hNsmTZk6bVpLW1vb9F/Z1tba2jJtyuRJt90ybszoUSNHDB82dPDAATdd+8/XXPyW1y246Pxz5p1+3MH77zN3l1kTTPB8aupLZqoqgkoqEBFRM0spJVNVdFhVtZRSMjMVEUE1FtHRZpZa2vPsf/vwW6eWZmaqqiKj/t///2dUAFZQOCCYIgAAUMYAnQEqwgHCAT51OplIpKOipCTzaaCQDollbsBQWDJPDcyRiWUxxb6s+avuO6z2S+a4+C0/OF6T/P/tL/4fq1/qf+Z9gv+xeWr6w/Mx+43rC/8H9pPd9/fvUN/w/Uo/3X/sewx/EP9H6eH7u/Cf/bf/V6bPqAegB/8+tf7Sf3P8h/2A82P9z+T27pu4VtjuVmwduON/mmq3H2ry6ejZn/eyPYK/Xb03vYN+3HsXfr0QUzMzMq/zGeWEGi9aOYwBUOeqTQvbCiJFtxYwTkQiyNLqcwa6pPGAx0ZoD7f0O7u7u7u7suznCywP/8QvbjfMt6S3MMLl1udaB4V8yTgXVTPmDdRgPleiASAMLNne80xPwEMa+P1tL+wBHu8diRn/OQumFD9dak1w94N96PYl9UAINiRyQWZmXoU/hporD/qvGJ+Y2TpOOfpbU2qNEIkaxXCpxP0hahSiTaQsSE9lzXUolUN2BqZB7EkRfLT8BIShTwC1tWULYhr262w/fisQYTZmCdpyfyTcOUco1apnnBucYjRvF6mK17ftIJGCPBByhg2wN9E9SAz+YfMlrzmd40CNJwZn0Hlt9r19932/BCEIQg9yPHUT1Z8ODxWEsVD1cIF6JcbW3n12pKq1WfYSSvR/0Y+0Ja1+o86uTVU44xvallfMnsnM+n/lUuVf3UskdACaxjGMY0dWk5SlC0QQB86nEYXz+kLAz1sG08DenLqIiIiIiIiIiIiDwmbRMP3q1fPA1ohwb8bxyz9hnmAv8meYx9gnthxGosvmns1UNbAiMdga+WdOL9j4l2OYDAaWFO/N73ycFYhyomNjEMiHkUtuOHwBY0hd/NbmNjKsKMYQcJibd3eLlpaLdtSXiPvTuffoh7w2KTjFbPonkIPNVVesy+GQGWpLuTK4nvPHHzGh3Yr1arSw6hMI30dBCvpnlXKmlCoqXK/TthXtfC6idu/d+52hxIHwIuzLCDC+4Jqt60sm2rmn7+08mYIT6Wp9JtpkCczigT2Vum2GADIjTZkDu+Fd/LQzgzqWUjeFuhVYb6M41TMPhLctzi/MyTgcKbiznRB4tgcyZrhuQtfcotPEwCKoOqIFilD535k7XFgJxgwXVCEdnPVnCMOc0vJuMuMDaamY1og71hKAYDmd/4DoC/L9cMSx0ROQ92rj9FHsMGe3xf1EI18EqItfWJ6qqBIZ5LDuCJzl3WPbo28yXJAJp+1wRj9xKlchlqwv5RaXNbwC1L9xG9ufUp7odlqzjeeB+nDBOsreJQB1hQgIWxRYzJaILj1x5JT21MED1n1v/VYUGaa1//Jnsr2r0W/DB0DrUx46hXX2+pDyI0DfrMQSx67YO/w62fWbDR6xxCeKODR2NbIQ+RDwcM0AFile16eU7sCmD+gF7YRTkbM/3AZ7vRT0vqRqKAk8wv2MnJkTB48A1zaxyIqaZiSewvpmj9zJSNvfu0GPxfeZXvdfow7SOCjKQgMgaHA4oJu8MyJ5znDcWlG7mhsK58c/qM/CuLNkQeZX8RFXtkHW93g888wzNB0Y49mdWb3fzaPFxzDELfbyLmfXqTCe8u9Fr37N+KYjvLdaMOfejvwA5xMxPOEA6dkh7Pl1VocIvjaQSwpfzCN8bq4pCcCRoYKRE7MAUmswWJOi9dMR4Gu5jKElNs1KcAcJe39jK4KUjnsSjhAKecG4dS5vt0Y1Qri2/rmp+MHSCxMOejUAoDKOiNN/2MLP8s91Rd9xVLo31jfDruCmdFf+1RvzWNm37TFn76Jo3xXcrUIYcjGLxfDiXSMHEAABT291M1vt9agVsLnS6ZqKy48r616lgirXuNdBAGmN9FU8cWKMjR8Oq7XAv3lB7JHuiI8Dnhy+xU/leH1F7nrNtk/xynrfbgQlhQa36Gd7RYhVkFvNl8CH+HsJ+oiRWzFKi+iH/3qsldC4kUw/swgMdssRv4a+IyjjwDU+J7WZQDdMbFVVOqTc6eB/xxJ/V3rm5Txkcz8S7yB5zOOJp9uhGhS5K3Qh/pLvk609R/Wm6oE70lDxxnX9AGZVWOwT6qqqqrEWc9SHmwBZnSD5/vpyZX2gkkDN5JgCgnPGpX3Z6Upk7UZClx2zMzMzMzMzMzMzMzaS5N3d2QAA/unZAAmdEi1O6iuQUb8EPvwfS4OIB5daIsC4f341nvEdxB0KGB29JkuLQWZ5jnSEdGuf5s1aokTJ0KleN632+rUCO0RMSjrQlr1CwRTPZVHOICdpILFBDO/DswORsxKc4ma8SksIMILtO7rCaBS8ZU+A2p2p6o79u8l28Ljiq87u4XTrbS4rfoGdaAoiT+BnBLWF9oG8AjNuICyquOeCAMU6naSRob/CH14F3RG365UALSO+VDcB9FkPeXa0UJNnDzhfyfPsSrWbCKpJFaO27jSyhcuI8Tx4Wk/q2MI3498GKaj4Z+3QX2SFYXdpVt6VoZqa8yp9hdgSrCHN//UIneTMjGni/MfNmpfdA+ebCZVrgAAZv+Up1LoOgLdMZNkwFzlA04iAzY5nrzBnkob9OM6Qryd521P0BguyT6laUGV3OvlJCdgmtvNFt1sFds1HLn8VrOagSMP1NVZr5M3jms+BatcZ0WpxXSLR0z8n5nixoapUkRgxgy1XBMjVVovdZXNlC6TUvftfcWiaxuJ6kc3hy6sMZ+U33AoIrgy8I0z2p30g/uekgk57wDriQGtrPkfXORIBmKuYhOsIlIW7vvQRk5NvQaB5vEB5R4Cv6iV5HjAnIDkyhQ/+6cXTDY8kplOyxLfylOMM18sEx3X5Joe67dfV0fu782ar/bi0DyfElmak00jG2is00getg6no/ymquhQjuLfE7SpC9IFpFueP0rlsxOQBdspMM4ttZlDxCe4Wr+OJnmXaLFj+R15S4GuR0P92JTTy7Jp6DZkNhxOc+Y8yt2oFMLieF/ABsUF3G5Vep7Gx6o6tbzA2Z5a4DrHFuYHR1ag0WDbAiapMv2fJbFlcnkOEosqWen4OMIQ8P7JJR0RcdVuHEre7U60M0l8KR6FxKz/QTi3M7PKABdYrSvZoHYO3lqalKbU7oVA2OTluzwftilX+SHqS13IJZ/N9h2us0JCsBWiwTDTXijg3JHfAqifGSr+GmLYKXlE3ctEjgCv/jZUkfj4fBZvpkWvH9BpY+1tJwzfhrSRN7DjwsMoP7hULyUQbnrfLo0bj7aHW9yTPgkjQ39NiJzFAtdx89RODRIDvoRaf6yZXR6UDUnAKm20xiMDmYSofHoi9jnqTKprcAj1n1X7A9PFBWx5aGNU0gwysczChRU/V4MWoW5ekqGjHmnmRBx/rPYTpU/BV3EBY+CvhbsP4q0LRyFI9lFUyqMKgR7MVlra4EhWAfUTfxIBYW2CZafOgT+/Z61mv/OjjB+bF1fEV49BpDbR0diOxlQrSYpyM+8kj8Fpx0yH6XM1qvs0Nl5vDNxeSkPupagnWtcR9IZH5zqBGzCr3Ns9SgBesuPFKqy/KX1olSRMO3flABUCuuOdVlYXxIsaaMJIT304wtBaigcKsqsKsqD45qRArpgAqcR+NU7gqFHXo4Qha2uCvFLW8kqj2/fWsNMBI11FGCAMtAjFaOsqYTvPpNXo6j7T4ukwngFyzgRX1Q0P3+z0FKeyP9Z5sgxcF/psCOLMZHCukZ+1wuXlt9f/b02YDUuXejQ0503vobx3OIzkkM4Un/XG/6wEXwTcObcqHpP4w7zA3VrggliakMrJWMxWbDjtREjC5iYbo0rYoBr4YukkstgYQ1xETpkHqbrtlN0GRv7ICo/8m9GJlr3EzGJimnGRGIQ7msPPMJIeAAGo9FW4HH20jK6sXfCSN6hr5fXuYvdKeErrZ33T1uJFvyTGxApwLqaRuUpPuvvQ9EoySLZkeNZFNesB3F1aJ9Cr9h03zs8v7206uID7Q4/NBFkAb4X56Hc5SELvjI9Zo1ujkMNbNFZSab/v5YHOLjVQgoQVddy1Iq8CIQ0pLpE7uWrLkU00wjbzuNDnaXbFOPbBrbiivQsInY4R/eYSMQbXaP14jn65Wuo3l5T5G0yjxe+1woGiTj7vKOsVgWKcO00sMJpN9ZrRaqPY/8mM5p4BTXa2LWmQJQqsYRZg7ZxYLcFUlvltSH/oYnifyD+x91X9+0qe4arsPc4/drmZrELrpvCSa0Ie0unGyr3+U7qhPUPN7DqHbmm0KyZ15JNZ0dRIfsdFWEOLLnoZ3XCOa4NBX092+dbT/2a/ugw7LoAL6vfaGEBirH0whRQJgrll6x7n79XnuNy9xIPo7fdttlGstJ/imdx7oT+Clp3vjxdELz9nkpH+WY/g9cOA3Ayn3fSAoKg1CBDTeDS+YB/dGow6YPLllnFBMdo7waIUWMNHB93+43OUPvvaxH2uKUQwcxHSeZDrf19Dyvt9HAvscTvq4aihV2XogzPhxqznBoTjTFXyvA6OScbfI94+F5r2GOBi52rHaeesFHJPctSiRrkfcbpcUDqwAAOzgd1nYVoBuCKmOI6wsrK8BURJmOynMLMEwTBNSUX425LiW+8arDfjKhNovgd+l+4/kTaDplIiE8QsbvyZTqjlkXjPdx+DLF57WGXlKImeZmmzo6uX5FAa+UPSwyRZI6sijelqBCGZWvatv2ARiFtpnk56Fr0D1cAVIlY18FMQkyzHaqCNI6EjhAfRuZKrRQ/QqF8gBhaMhehcOnE1M/pwAAAAAo/EodMQzZMmQ7Id7RrWk8N0N8JWSqUrZl8gkzgAGncq8+16QBMxO8A/45PuZGp37ydyyC6RW/xEmHw/XfDctExy6vvidg7ETq9AGq+EBNeAJZOWDeiJhKveR4KkXdskSjYFSDQU/bvS7gdEwQ2mA2ForZnXicmO5H8kN92Y5GGxEnd56113C0cd7ODacaxBDecc1a7S4D979PQn3hJ+BiYN7AAKCMdZPaXNP+6FYTJd5lSwn7Ditw3iWOCxqz0S0QH619aa6Zj9/BH75OK9+t1/QOanFudsEuuyKmjdz52ang5hmM0COMJmQFgQhcOh7u1YFnegK+sPRi9UdLLNWrQ+ZiUdNPUdFhFt1q3y6W8VjQR7A1yYZzSieJUwGJZY+JHy1qhQ2pbog0BgsBedN9Xti6rE/aW25EL1SKDwAANVJHqAtTAtMSoz9Til8AOAVT0hubLZ1BDHR2sg9yOHxanht/oSrz3gaZMkzwehyX1A0sDpL3yIaAdZ5kB0D6tdMDVgxK9ZRVO6RYMVxW7oTp0d9d0s/+oO0D4um9a9KCH2pvnw7AcI00Rx5BRHzY6JNb2ayqf02ccZnzU+w+jIYMPcpqr0VW13iQyoQmWnZiSldYei7687QUy8pX+FAAAAAAzNUc/AWFLNPVndPlmcGAzvQC4W7P1MNNSz0r1DGUWncU2LrOm26OuYmO3xpymxQkyMcrjzsXy0/w6QY7mOi0A6P5T+wF13HPC8NOZ23pOTygxCwObaLWC6B5F8kCp3Q6F/imLzXHLlZszO3BYRZLOIbrETKsKxDLgeCJaQe5sIcq9jq5Qec7OBzDx3cDtIXUsVz+rFnaGslU+fgQIvxLCQDtGzcJgTfR/YCOQH2b72vpIiHraOQjD0hEXKNx8yglhd9SiTR8sD1/h7J4+QQ5OhPcesKrD3EomcyponfXPLtbreJLM7NdCho9woII7VdSEP5grNspkuMNA5Sz7ra2JQj7gunFgBPjIJMrfDeZ1QJGGLHDBBYwmRaIGs1faiSN4u/+ynDguyptIp9lkjJrD+QpXBPAOGQKrwlPQxRUuqpoZ7Xq6fuxt59EmIfl2D5qWA1MUGWTH+FnPK9RTRH0AaZf4KUM7kcNhUlO31FOCtjHlvS6WZr8zLdiTWJsOngNxdr+pFf3X031mOxrGTxQlFMF6Q1UZvrSRK3mG804CugRWxNYsJnE/rs3RAJ54D9UhxMWamrZTPwNpbYwDQcPFL7GjFI0qXvU8MZYKKRFUNH9Od64EGxteJYgm8/fxlJQOkP8Dlv/HrAEQ36j+5m3HoDB7g8TvoWzeNBiR+YR0w6/fhZEeZzv/g/brEy0LTu7HwEgwGZU3VVpHcyBCqw9ZeEggQogfKObaChDaCER7ht+VW5kba3DD/JMPi9UgWJbZWkk6H0y66oyTOl1x8hL5Xt/AM4o3TduPSuzanlMGy73uGX8gH28N+R8INT53uucqaLx9ZFen8R4at6pAY7C/BBe7Pze1T3ukSEp7CSYmKwem+GTA8wwJNy3EdArQb/x+IxjTJmJFZ/epIgHLAPADQq93EWbedCsXa/qGZ6RLNNz3x/zYdps0znXeNIzmtmTW/G/jPMMBe8GghJh2WbCFgLJboPcoc1+6/Mz5f6iSbdtOZSSRqYeCuuXS+ldmVJQ67Hk8wdz1MacWqbFfL82iZJ8qimWGWHs5c7PaF7wof//VREEyr6YPz8JoAncT5PJaFgoybO1Z98qsqWZekOkKDuRHbCOKXXcbJ44ns6UtexcU575JKy24GegJvDNSuvMw1vOdfcprd/DFVReL5LPnV5OkCMx2yivOB1CaPpnrOxl57FABEQUJZXVHx3LmAQ9x9anaafVblKx5Q1dKCKuR3GPLfZ1daSVOE8SvUwWwZXzye2nqMoLYrI0wHQpFMBBQH6d9df9oS/I8tAlLtieMQEJB9hwdi9wlp4exJyHjVZpMmQoOuiqXP6u9kez3rUCxf56Cp7cF/kkgImoCWMXJfyOK2mdaEtxObXOgqXL12UYMXNeg7VAITxwh27/Nc/E09TfboHjmG3reJpJiFKltKf5cG4Qy/l0BsOUAXGFoXBC6Idm2VsjvZJVRNvpFHbAIzMZesVGCMGLrpHzlmHlxQ6uyM6B/VbPvbNO0aVrigfsdCrsqeYKDF0iN0482GVgzZNuapQkDMeDJKqpWSE0WllYo5lFnAX2e+sEqTJy5L+QZGNAGoMhy4imnjGBR7UyPLH1IWZBl0cFZKYMcPmVggArH0GdFOxNYMlsJ0LsT3/R3PPeppz5zH9P5ya4PS7BYSuauxQLG2amWQZ5RZk/rGx8vpJzD7OalHB2QPDPrlBZQh1Rhd2P8v+00uuexhlXUGOfE5DTjySvbRvzBzDyFT+m3Pry+QWk0w689CM8C+sFpMg0yl3NG7Wkt3ZQXoTmXTnQm0wMk/UAulzUPuSZ1Ol/zTA05xHunO//0akGxSlEhKz1UaeLN78q1KM8sBtROLn0ZpZGLTCFAfpHaRYuOb5fLrjwAzrWSZMF9iPy6SjBP9YkETBRZqr29FOtOI/uJZZSE4Pvhlc1Pz0h2UjDUGEb8hW039zSOoe4eEIYtbbP2ayhKe2P7t6gbPNTItlsEGV5U6C9M3ig1Fn8tnEEUX/aFn7xpt1pJf5Cfq/dERCymIaCucPzFYs2PEStKHA1rNsqdkkmbWnfGSV78BbGUasYKHuoNzMDkD47sveBmm1b4dHg+OfVG7RdYJ9UfEDMbJVT1wINeYNdefEDnyfWrYq18Tink9tSvKgiiLUG2uGPiNi+xCbzvKAU9B/+X/+6vybAN5wxMH2kWBkVYcoE8CgSbaMSL3hKON0Sd6+515T+P7Pz4kHTx+bVk2OPn0IRibgjk8m/fDzKOpdTIBPVp1FHd8Ro5TQneXt891xDZuJubsdCtwgbJ2oV9MyLHaTSoRGn8RZgqzM3aWKfFIbk9Pf7NfvW3OLdP3qJp9I0J/8lWDGlFY0sA//gi2hezFMQcnInImOWGlIv4WLMo2omeHRrUQAH4EKbYGp0PPoGBKEJ/tn5eNC5PrJA3NVXDXDxV2N4Mi1MdAJGnw8rHr0E2eCiGmzKGcdtnr5kXHuqTVMfZkimHLc8sCRIV10qALhtATGQTr24aeu6JLV9UJiJJg4g9kuVMLY8hMAo9f/b9UDGlUjAoR3aiWSxr7Bu+QKEhY5CUc4SaiByglgZD893MNxAEoydbSpN6PpdBSvQAtgAydJetr5DHsNLcxhIBlDi8NL1UBathOji94SpJwR5pdc7yfaghf12W70ij92GVWMOwYZB3laXOemniFD3Mn1Bknui9d67Suq0bzlKdUESCxMU0i1lrzZ4pmZn9DVs49/MxmpfMqWqGnfvNNx0W9N2ZdYqnc1Fiu3Oc5pKQHh0uf9Ah8Bjoguyb52/jBUG2iU2ouUMzH2TaHYsLv1vBdDQPb4ctVeyNKv+XKGhW6OtCOHJnK0Ob2EbjNnYrQtq92iDnEk5YSHxXiYbdWbXYr/wMTNovQWzTQTb7aXe7ZaJ9VGzQ4HssU4Qnwycta/GuKjBGZKenr9DFoxes2zXLcah+iZBLwHVbbGbdmYXCKvFmDK5qIdrA5keczfYJX2NwJHehSSFQEIu8V7ho1L2r8LnbgAuMHeZr5+Q/gThcmlrMK8dqKHI676Nxpt6g1nvI6NQ56n1cxecWR4aQp6ZMn2INzWv5IJOny0OBT3G55wxQFL3rEFVdHIujCxoJ06XQSywf52OQJyCRiVpGKipihaTJYi+9AJQyfPAqhwkmMdzMERqoviL4W5yB2g5Ybrg/oD8l+ADLE8ssp2UTLYVkJOz8D/dPVhp5mlSCclY/mlC1J1IFV1hDy5a0NQa3bNVCl26B9uoMp0MCTZgPidS1ajSbwFwyTvypnWOMrbzuMpTQaSAZgvoQrM/DtRVSsuMr73ukx5PQ0JrW/hF+fDP1khh+L0q7DZGXMxzfVtnzJ+9Oc8jAAfzYcyQWa4s6y5IJYmUf83ExEqt3+RK7UWpwzzqvl8i/LF6eDQan8yvvzbo9gn/5O8I8wfiTALaXpeMgcekWxxmDlT+dt/nxKpsNbZZFK2N8t3RYVB2/Ei+82xvEJIKcuymdG1S8rhqjfGleudrMQzGEIbocAlLPdHzZCfJcUH6TO3Jxo8kVEyHVm9Xl1bULxfCg8jaklXDwFL53cRmpHqNmufVnb6LyjTQdW+8aI79gyAakb1iwDcvPhrldAs1a1cooX1O4WFgru1KJbljVugwNKRnjvFTqeEYYNZDsqFuUz27Dnz0+X6xo/tK62iz3Uc/o4d+R9p+dfEUlCLiRQeOVPpkTYHupjMeN/edjWJGvoQP9chnl57NZ/fWBJRsoGzpJq67OhB3Sv5fl4f6OaEw+s5GkKvJL7tN9SwgtqSOOSAcOk8EM1LrwYGoz5gia/LOw0HkVrdYJdyS7Rkgk97ezLhMUhC1eDZTL2d9PGY1nxqMfD+F6d4TZhlffQ6+I90A95a9oUqnETTRngVYWDAcYYH4faooBD3/LZzcfJyZigkfFNeOM2PtrC54FeSw6wg6+IOUgcocdaAUlkyAOOzPhVrv1MloNvizGPijFHv+p8y8CbcsgwHnMwgD0Nd1TPvvZXtjRrHT3nL8HkZgdGmtMFD6tYYE50mZWUutQEdAtlgLGmVjuc7vxh7SEueP3QUjW6FXSnMMUz/ZkkZ3fb83wfJj0Ka5bhy81j7bairwOPTAMmsmy5rNL3G5FgR1utba35CK25R2s0h+OKY8BmomweY56whRTLb0If3mzyFxbzCG9Elqg0FOxBjZIF39tDfbFejzrha+dlxrP6phUGLsdL9tz15akAn0fjZou4ktdCMb8uqiv+J3+sV3amrcWz66Sn8Y9N+yCJYzpW3k8+wQGbytbKEAxTfw4JY4s1fcB+8eRXS1ZwSEjrLc6T5DikvA+1nPf1xkyTX/07gKyM/9XKPtfu1q2mfgCxY3lG/QC5rlsp0gWKARuTRsbxAEWn29C7NTL54bgHbWy3/mGWDyDGF3UA+13H+OP27tq5RcD0/ydkWkKQEfIEloBi0mT89uJarnBDyx7mAgree2HRVACm7jiV1juwnIZAgqliUxju4NcfPwHZIgDM9p0n1p3m46c/wKMvFlwUq9LxftBYmSW7UKIV5lQpAjzhm/YlmQ1Q1UZIVlI+ivKY2n1DWj82uyrukgDiu3x8tOBaM5AC/qFEMVMo8JTShJdG3Ifbn8HCH7YqVjPx7VyQ+SYgCmFBAWhJEcXnT2lBI/cKe1G4SyCtgz562rvYzeBbzfV2gXBwabsfzKPc0uHck+kj9uz/XdY8QOwqPPAMxpMfJxSgnXAwvpgyZm/isH5YkOzd3R0DOaTMx8KzGTwvp6gGj+9fGI9PCwtuyYJs8ZyO7GAzk1No0ugKSVH2ZSWM+O1T74ctzZHMgHJTq4X9S7kqCaUMpNn6CzeTcIBQ/k5ISNbsFhxR2qdhbHUVcmpb/aLfzWlP85wBGwrT6E96C0viZBBoUlXP+YvnjqYUa7PSl+9CXVHlx6MaqE5fESPxIVVZOvKCuOOfFbxOWxniabJJ1Q5MUgj/NsLrCC96Zw3fv4MKIWEHH5jqd4iwKgrC9dO/f+PT5JB/xFM3ZE2rwrzx9xyFD8FrN1vRuljRs8J1WnJCd9+85TPOxvObpNAerwbZBNk14LLB76bpKjhZI2Z0+bsZdG78V9GV9NgmEG2nBU2A5QXG1j3fU2rr8EXmSsJzTLlabDkt0wmVbBTyTB5UoHBAELaZb+lT+zwfYL8VFaKZoIdocyEvaYW6n2zWE7wfVGgR5QhALeaukDMuNxE1GoecClmy3JdQ4x4ybe2DV24ktqaB0rLoT3Ub2MWFt5UALNCFhNa/+jForkS3/rPnYeOYPniBp+w0TF32JfA0Hi/N7z7rKnJg+WwNLFoEgrxeKGxxgDWxCugGMysXyILblXGc/XsIuCeUOHo7XftLvtejcZBzbnWu5kQfjs6h3jsnDkL5qEV3zM3gd+yscQ+VaOkf7EbVxTE1G88Xq7MUdp06aMlVRvxv08lsIlyoB6uJ9RBf4bzx1WiDqZeRWWTYkWXQceTC+Cl+yBIa/g1tGVF8FmKccXaFh9NzV7t1SzBBAiI3hN0OHpWGxXAtIso3/tZp2qy8GGgFAUAkspuDzzFqnEeyprKSCqonyCQzUvsEwIfiD4q39wZPZB10r2At6p8Q2DuIFGOEAMq7wLD/Kzyu7eOyLSzavUF8Cz5mdh53S8Sfm1a1YzFkAAAJOfLXluFSh8FNysenmpcVt+XIy4rEqA1MyjHraB62dAX2Hv0p1zccDPxWvY0ZBqBoRSSOTmn07VIlyjEm8e1JQh6UbaxicygviKMMaDbCejACC7GpY5ER/CwuUCvwuEasJn562NOMcsTjrF3w5C4uvBrhAX5r0poRMwfOCWN1IuHdUUYdVpH9T4sHoQJyihEfOr5qorJ6MS2zBck7+uuIB6jHazSrdYJo2ICO7FqQjUOcJv7C1CD1Q3vn0UzTLGL+08jDm+lwlwLx6fTheL4oEmiqyJH+wILI6u4dybrrNwu/yABfKGN+I58H/Xf8BRxN6oLM4lhe0hjU98Rh5G1ufFPAJkzLmyCwj5Pp556zlgkol86JXh43/b9yWOfC7uD/n0vWIPhq+7ISGQo70+1bRxa6ZdqlBQvBjWkzfRcy8XUPUs4SNIzaEqlw1b8cF5YPzK+EJs/kZCT1wGXlcjFe2jLNOHEuIgGbJCdijr/BD3S6DWBXEAAAAAnhpiPFW0G4r/mDcw7ClyuH85uGYJB7zYXp+zpcT2k/Y7pIeqSjYWzYcKxh5DA2mLLN7FLIYuHw92HgQLan6jzaT4bYtYgUfrUn+5vaw0EDBeHTmIInDR5uP2oJOplFKYBg0Clsi0reCOnKR33dvthdeuMhZnmOVgrRNhUbAhwJUByylrkmwh5tsrG09vT9E+/IMuPIHTgzGlVW47Qp6PjAvY2V9PdW6k+mmPuR0JdGMOg5wJaWzu7zP9j0zCjMofkNfaYuM/ZsXl8HJcHcfq3qaL6x3y3ppLgAAAAAAAAAAAAAARVhJRroAAABFeGlmAABJSSoACAAAAAYAEgEDAAEAAAABAAAAGgEFAAEAAABWAAAAGwEFAAEAAABeAAAAKAEDAAEAAAACAAAAEwIDAAEAAAABAAAAaYcEAAEAAABmAAAAAAAAAEgAAAABAAAASAAAAAEAAAAGAACQBwAEAAAAMDIxMAGRBwAEAAAAAQIDAACgBwAEAAAAMDEwMAGgAwABAAAA//8AAAKgBAABAAAAwgEAAAOgBAABAAAAwgEAAAAAAAA=;" vertex="1" parent="1">
          <mxGeometry x="84" y="-372" width="70" height="75" as="geometry" />
        </mxCell>
        <mxCell id="IJoVcqCJSkyeiCKx4dnM-5" value="Users" style="icon;html=1;image=data:image/jpeg,/9j/4AAQSkZJRgABAQAAAQABAAD/2wCEAAkGBxISEA8QDRASDxAQEA8PFRAPDw8RFREPFRYYFhUSFxUYHSggGBslGxcTITEhJSkrLi86Fx8zODMsNygtLisBCgoKDg0OGxAQGjUlHyU1LS0uKysvLS0rLTMtLTAuLS0vLTAtLSstLS0tKy0wLS0vLi0tLS01Ny0tLSstLS0vLf/AABEIANwA5QMBIgACEQEDEQH/xAAcAAEAAQUBAQAAAAAAAAAAAAAABAIDBQYHAQj/xABLEAABAwMABQYICQoEBwAAAAABAAIDBBESBSExQVEGB2FxkZMTFCIyUoGh0hYzQmJjkrHB0RUjNENTcoLC0+EloqPiFyRzg7LD8P/EABkBAQADAQEAAAAAAAAAAAAAAAACAwUBBP/EACcRAQEAAgICAQIGAwAAAAAAAAABAhEDBBIxITJBEyJRobHwI2Fx/9oADAMBAAIRAxEAPwDuKIiAiIgIiICIiAiLQeVfLV5e+k0YRmwls1WQHMhdvZGNj38dw2aze0cs5jN13HG5XUbNp7lNS0YHjMoD3ebCwF8j+FmDX6zq6VqVZy4rJf0SmjpIzskrXFzyP+kw+SeslavTxNYXPF3yvN3zyuL5HneS4q6ZOOteLPs5X09OPDJ7S6isq5P0jSdSeilbHTAdALRdRH0cTvjH1UvTLVzH715mmaovJlfusmMij8l0v7J/X4zP7yuspWN+KnrIOmGslFu0qnNM1zzyd8YydLpmvi+IrhOB+qrogf8AUZZy2DRvOEwEM0nC6jcTYTA+Fgcd3ljWy/SLDeVpmaqEuog2LTqLXawRwsrcOxnEMuLGuyRSNc0OY4Oa4AhzSCCDsII2hVrjmhtKTULs6O8lOTeSic7Vr2vhPyHdGw9luq6F0tDVwsnpnZMd6nMcNrHDc4cF7ePlmc+HmzwuKciIrUBERAREQEREBERAREQEREBERARFYrqtkMUk0pxjiY+Rx4NaLn2BBp3OPykdEG0NK7GedpdJI064KfYSDue7WBw1nVqK0OnY1jGsYMWtFgB9qseOPmklqpvjal5kI24s2MjB4NbYKvNZnNyXPJ7ePDxi/mmajulABJNgN5UnRGiZ6zXF+Yp987m+U8bxG3f+8dXZZVaTWZaxjSGueA5xsBfX/ZXcluNNySpGQvh8FkJG4vkecpHHblnuN7HVYdC0ispJKWbxaoOWouil3Sxj+YbCP7Etfo7ZZ7Xs0zVjNM0cX80zVjNM0EgPV/QmmnUFR4w25p5CG1MQubt3TtHpN38RfrEDNeF19R1g6rdCljlcbuOWSzVd2ikDmtcwhzXAOa5puHNIuCDvFlWtC5qdLExS0Mhu6lIfESdZpnnUOnF1x1FoW+rUwy8pt4cpq6ERFJwREQEREBERAREQEREBERAWk87NcWULYGmxqp44jY2Ijb+ceeryQP4luy5ZzvVF6qijv8XDPLb99zWg/wCQqvmusKnxzeUalmvHygAkmwGu6sZrK8ldD+NzF8ovTQOFwdks20M6WjUT1gb1lvbJu6ibyZ5NmoxqKxpEGp0cB/WcJJPm8Bv6tvQGNsAALAagBqsOCpaqwob2vmMxVhQNPaFjq4TFJ5JHlMkHnRyDY4feN6yAVYVkQyccmZJDI+nqRjNH2SN3SNO8H/7gPc11TTegoKtgZUMuW3xkacXxni13ZqOrVsWh6U5F1cNzARWR7rERygdIOp3qNzwUriqYfNM1Enm8GcZ2vgd6MzHRn2heeNs9Nv1go6NpmaZq3R088wc6lp5JmN2vbYDqbfzz0DWrLJr32ggkFrhYtcNoI3FNDNcl9IeA0jRy3s2R/ir+lk2pt+gPwPqXcF841shDC5ps5lntPBzSCD7F9FU0wexjxse1rx1EXXt6t+LHn5587XERF6lAiIgIiICIiAiIgIiICIiAuOc6zv8AFG9FDCP9WUrsa41zuttpKN251FF2iWW/3KjsfQs4vqaocnFrIxeSRzY2j5zjYLrOh9Htp4Y4Y9jG2v6TtrnHpJufWuf8g6TwlYZDrbTxl3/cf5LfZmfUulhZXJfs0uLH42uBVtVsK4EidXArgVoKsFWxVV0ISqQUJU9oaUSsDhZwDhwcAR2FQfyTT3yFPADx8DHftsp5KoKhanItkbhsC0bnC0QABWxCxBayYD5TDqbIekGw6iOC3kqNXUzZY5In+bIxzD1OFlDeqncdzTjVQ7yHfun7F9A8mXE0VETtNLTk9fg2r51qg5jZGP8APjL43fvNOJ+xfSmj4PBwxR/s442fVaB9y9/Vnt4Of7JCIi9bziIiAiIgIiICIiAiIgIiIC5xzyaIc+GCsjF/Fy6OS37KS1nepwA/j6F0dW54WvY5kjQ9j2ljmuFw5pFiCN4IUc8fKadxurtyXm0htTzyb5Jsb8WsaLe1zluIUHRmiWUglp4iSxk0hbkbkNccgL77AgX6FNCw+T662sJ+WLgVwFWgVWCkrli6CqgVbBVQKslV2Ll0uqLpdS25pUSqCUJVJK5a7I8JVBXpKocVVaskcq5W6P8A8SdEBqqZKdwHHwhDD2uDl9ALQoOTzajSdNUvIxpYi/G3nSB/5r1Auc7rAW+rU6n0bZvZ+M9CIi9TziIiAiIgIiICIiAiIgIiICIiDWNJstUS/OEbx9Wx9oVhZDlDFaSKT0g6I9Y8pv8AMsesTsY+PLWzw5eXHjf78fD0FVgq2qgVVKnYuAqoFWwV7dTlRsXLpdUXS67tHSoleEqm68JXLXZAlUkoSqSVC1ORkeTrbyTu4CNg9pP3LOrF8nYrQ5HbI90nq2D2Adqyi2etj48UjK7OW+W/30IiK9QIiICIiAiIgIiICIiAiIgIiIIWmKYyQua3zhZ7f3m6wPXrHrWuRvuARvF1uC1jSdN4KU28yUl7eh3ym/eFn97i3JnHv6fJ7wv/AGLCIizXvegr26pS67tzSu6XVN0uu7c0quqSV5dFzbuhUuYXFrG+dIQwdF9p9QuVUsjyfpciZ3bNbI+r5T/u9RVnDx/iZzFDk5Jx43Jm4ow1rWt1BoDQOgagqkRbrFEREBERAREQEREBERAREQEREBERAUeupGysLHat4I2tcNjgpCLlks1XZbLuNQcxzXGOQWe3scNzh0FerNcoYmeBc92pzNbXDaHEgW6jwWuw1IOp2o+wrF7HD+HlqNjh5PxMPJIREVC0REQEXhPFRJ6q9wz634LppkKOlMz8BqYPPcOHoDpPsW0MYGgNaLAAAAbgNgUXRLWiCLABoLGusPSI1+u6mLZ6/DOPH/dZPY5bnlr7QREXoecREQEREBERAREQEREBERAREQEUDSWm6an/AEqphg6JZY2E9QJuVrVXzn6PaSIHTVjxqxpaeR1z0Ofi0+ooN0Rc6n5wKyTVSaMwbbVJWTtZ2xtF/wDMsTVac0nJ8dpGnpBvZRwNce2TJw9RQbxypq7lkI3eW7+UfaexYFRqKoD2g+EdKRZpe8uLnEAC5vrupKxufK5cltbHFjMcJIqZI5uw6uB1hXhVne3sKjpZU6W+ST45809oVLqs7mgdZurOKYpo8h7ifON/s7F4iI5bttvJqS9O0eg57fbcewhZRcqrtIVUbwKKvbS21uhkhjkZITsJLhduq2whSKfljpWP4yno6xo2GCV8Dj15Fw7Atrgu+PFk9if5cnTUWgQ85rW2FZo+sgO90bWTsb/ECDb1LLUPOJouXUKxkRG0VDZILeuQAe1WqW0orFJWRytyglZK30o3teO0FX0BERAREQEREBERAJWjaa5y6dj3RUET9IStuCYnBkDTwMxuD/CCNutaxy/5VOrJZKKneWUUTjHNIw2NVIPOiBH6sbD6Wvdt11kuLQyMBjBsa3Ug2er5Z6UkvZ9JRNOzFjppG+t5xP1Vhqqoml/S9JVk/FkcngGHrYyzSsfmmaC9T0lLH8XSsJ25SeWb8damflF4FmYsHBjQFjc0zQS5KhzvOcXdZJVOajZpmgyVBXmJ1xrB1FvEfitrpalsjQ5huD9vA8CtCzV6mrXxnKN1jv4HrG9ebn685Pme3p4Ox4fly9fw39rVdbGtboeVDdQmbbpbrH4j2rMQaepz+saOtwb/AOVl4Lw54+4905Mcvpqf4NeFisHTVOP1jfrx/ioVTylgbsdkfm3d/b2rkwt9Q8te7+7IOasZpPSLYhxcdjePT0BYau5TPfqjGA4mxPZsHtWFfMSSXEknaSbkr0cXUtu8/X6KOTtTGaw+b+yTLOXEucbkm5VIkts1KNmma0fTPt2yDK+QbHu9Zv8AaktYH6pY45B89gJWPzTNBcdQUhcHiAwvGx8EjmEdVrWU+mramL9F0rVx8GzkVDR1CQEALGZpmg26g5e6Qht4zHDXwi130/5mYDecdbXdQA61v/JzlHTV0ZkpJMsTZ8bhjJE70XsOzYdew21ErijZSNYNkjqpIZmVdG7wVTHv+TMzfFIPlNNvsIsQCA+gkWI5LafjrqZlTD5N7sfGfOimb58Z6uO8EHesugIiIC1PnM066koXCE41FS4U0RG1pcCXSdGLA4g8cVti4zztaQ8JpGOEG7aSnvt2TTG7r/wNj7UGrU7Gsa1jBZrQAFXmo+aZoJGaZqPmmaCRmmaj5pmgkZpmo+aZoJGaZqPmmaCRmmaj5pmgkZpmo+aZoJGaZqPmmaCRmmaj5pmgkZpmo+aZoJGaZqPmmaCRmmaj5pmg2nm30z4tpBsTjaCvtEQTqbVNBMb+jIXZq2kt4Lta+Zql7scozjJGWyscNrZGHJpHrC+jNC6QbUU1PUM1NnhjlA4ZtBt6r2QTUREBfOnKir8LpHSMnGrkj6xDaIHsYvotfL08+Ukz/Tmmf9Z5KC7mmaj5pmgkZpmo+aZoJGaZqPmmaCRmmaj5pmgkZpmo+aZoJGaZqPmmaCRmmaj5pmgkZpmo+aZoJGaZqPmmaCRmmaj5pmgkZpmo+aZoJGaZqPmmaCRmuy8z1ZnotkZNzTTTwG+7yvCNHqbI0LiWa6nzGVN2aQh9GWCbvGOb/wCpB1FERB5dfKTTbUdoJ7br6lL1w/SHNjX+FlMQhdGZHua4y4ktJuNVtW1BpmaZrajzZ6R9GDv/AOy8/wCG2kPRg77/AGoNWzTNbOebjSHCDvv9q8PN3X8Ie+PuoNZzTNbIeb2u4Q96fdXh5AV3CHvT7qDXM0zWwnkFW/Q9673V4eQlb9D3rvdQa/mmaz/wGrPoe8d7qp+BFZ9D3jvdQYLNM1nPgTV/Q9473U+BdX9D3jvdQYPNM1mzyMq/ou8P4J8C6vhF3h/BBhM0zWc+BVZ9F3h/BejkRWfQ94fdQYLNM1nxyFrPoe9d7qqHIOt+h713uoNezTNbGOQFbxg71/uqoc3tdxp+9f7iDWs0zWzjm6ruNP3snuKoc21f6VN3snuINWzTNbYObOv9Kl76X+mqhzX6Q9Ol76b+mg1HNdJ5jJf+Zrm+lBA76rnD+ZYYc1mkPTpO+m/pLbebfkbV0FTLLUugdHJTmICGSRzs82OGpzGi1g7fwQdOuisByILhjVBhV9EEYwKg0ymIggGkVBolkrLyyDFmgVB0csvZLIMKdGqk6LWcxTFBgDoroVJ0QOC2CyWQa8dDjgvPyOOC2LFMUGufkYcF7+RxwWxYpig14aIHBVDRI4LP4pZBghoroVY0Z0LNWXuKDDDRqrGj1lrJZBjBQqsUayFksghClVYp1LRBHECqESvIgthiK4iD/9k=;" vertex="1" parent="1">
          <mxGeometry x="172" y="-497" width="72" height="80" as="geometry" />
        </mxCell>
        <mxCell id="IJoVcqCJSkyeiCKx4dnM-7" value="FastAPI" style="icon;html=1;image=data:image/svg+xml,PHN2ZyB4bWxucz0iaHR0cDovL3d3dy53My5vcmcvMjAwMC9zdmciIHZpZXdCb3g9IjAgMCAxNTQgMTU0IiB3aWR0aD0iMjUwMCIgaGVpZ2h0PSIyNTAwIiBmaWxsPSJub25lIj48Y2lyY2xlIHI9Ijc3IiBmaWxsPSIjMDU5OThiIiBjeT0iNzciIGN4PSI3NyIvPjxwYXRoIGZpbGw9IiNmZmYiIGQ9Ik04MS4zNzUgMTguNjY3bC0zOC43NSA3MEg3Ny41bC0zLjg3NSA0Ni42NjYgMzguNzUtNzBINzcuNXoiLz48L3N2Zz4=;" vertex="1" parent="1">
          <mxGeometry x="614" y="-407" width="80" height="80" as="geometry" />
        </mxCell>
        <mxCell id="IJoVcqCJSkyeiCKx4dnM-8" value="Supabase" style="icon;html=1;image=data:image/jpeg,/9j/2wBDAAUFBQUFBQUGBgUICAcICAsKCQkKCxEMDQwNDBEaEBMQEBMQGhcbFhUWGxcpIBwcICkvJyUnLzkzMzlHREddXX3/2wBDAQUFBQUFBQUGBgUICAcICAsKCQkKCxEMDQwNDBEaEBMQEBMQGhcbFhUWGxcpIBwcICkvJyUnLzkzMzlHREddXX3/wgARCAPeA94DASIAAhEBAxEB/8QAHAABAQEAAwEBAQAAAAAAAAAAAAIBBgcIBQQD/8QAGwEBAAIDAQEAAAAAAAAAAAAAAAECAwQHBQb/2gAMAwEAAhADEAAAAPJQAAAAAAAAAAAAAAAAAAAAAAAAAAAAAAAAAAAAAAAAAAAAAAAAAAAAAAAAAAAAAAAAAAAAAAAAAAAAAAAAAAAAAAAAAAAAAAAAAAAAAAAAAAAAAAAAAAAAAAAAAAAAAAAAAAAAAAAAAAAAAAAAAAAAAAAAAAAAAAAAAAAAAAAAAAAAAAAAAAAAAAAAAAAAAAAAAAAAAAAAAAAAAAAAAAAAAAAAAAAAAAAAAAAAAAAAAAAAAAAAAAAAAAAAAAAAAAAAAAAAAAAAAAAAAAAAAAAAAAAAAAAAAAAAAAAAAAAAAAAAAAAAAAAAAAAAAAAAAAAAAAAAAAAAAAAAAAAAAAAAAAAAAAAAAAAAAAAAAAAAAAAAAAAAAAAAAAAAAAAAAAAAAAAAAAAAAAAAAAAAAAAAAAAAAAAAAAAAAAAAAAAAAAAAAAAAAAAAAAAAAAAAAAAAAAAAAAAAAAAAAAAAAAAAAAAAAAAAAAAAAAAAAAAAAAAAAAAAAAAAAAAAAAAAAAAAAAAAAAAAAAAAAAAAAAAAAAAAAAAAAAAAAAAAAAAAAAAAAAAAAAAAAAAAAAAAAAAAAAAAAAAAAAAAAAAAAAAAAAAAAAAAAAAAAAAAAAAAAAAAAAAAAAAAAAAAAAAAAAAAAAAAAAAAAAAAAAAAAAAAAAAAAAAAAAAAAAAAAAAAAAAAAAAAAAAAAAAAAAAAAAAAAAAAAAAAAAAAAAAAAAAAAAAAAAAAAAAAAAAAAAAAAAAAAAAAAAAAAAAAAAAAAAAAAAAG9w934/m/G35/cXGK6PkRzjg+X6sJzgAAAAAAAAAAAAAAAAAAAAAAAAAAAAAAAAAAAAAAAAAAAAAAAAAAAAAAAAO3uK+qcXyf9Rr/AAAH5/IvsLo7L9L0cNjowAAAAAAAAAAAAAAAAAAAAAAAAAAAAAAAAAAAAAAAAAAAAAAAAAAAAAAAD6/zfVVPH+79Y1eXAqA6g7f6hv63nsbXVQAAAAAAAAAAAAAAAAAAAAAAAAAAAAAAAAAAAAAAAAAAAAAAAAAAAAAAB2vGry/tw1OUhGoAA6j7c6jv63nkbXVQAAAAAAAAAAAAAAAAAAAAAAAAAAAAAAAAAAAAAAAAAAAAAAAAAAAAAB9NX7nqz5v2dXl4U8YAAB1N2z1Pf1fOo2urAAAAAAAAAAAAAAAAAAAAAAAAAAAAAAAAAAAAAAAAAAAAAAAAAAAAAAf09TcU7jwfABh+TAAAAdU9rdVX9TzkNrq4AAAAAAAAAAAAAAAAAAAAAAAAAAAAAAAAAAAAAAAAAAAAAAAAAAAADtHjPq/F8v8AoGvzwAAAAB1X2p1df0/Nw2usAAAAAAAAAAAAAAAAAAAAAAAAAAAAAAAAAAAAAAAAAAAAAAAAAAAAPo/h9Q08nkP3TW5aEUAAAAAdXdo9YW9PzYNvrAAAAAAAAAAAAAAAAAAAAAAAAAAAAAAAAAAAAAAAAAAAAAAAAAAAA7KjW5d3UavKQrpgAAAAAOsezus7el5pG31kAAAAAAAAAAAAAAAAAAAAAAAAAAAAAAAAAAAAAAAAAAAAAAAAAAfuV+x6x+TyHV5iFPEAAAAAAAda9lda29HzONvrQAAAAAAAAAAAAAAAAAAAAAAAAAAAAAAAAAAAAAAAAAAAAAAAAAFenOJd44PhAw/HgAAAAAAAOuOx+uLej5kG31oAAAAAAAAAAAAAAAAAAAAAAAAAAAAAAAAAAAAAAAAAAAAAAAAB2Jx31nj+a/XRrc5AAAAAAAAAdd9ideW9DzANvrYAAAAAAAAAAAAAAAAAAAAAAAAAAAAAAAAAAAAAAAAAAAAAAAD9f5fS9fL5JyY1eWBGMAAAAAAAAB172FwC2/5cG31wAAAAAAAAAAAAAAAAAAAAAAAAAAAAAAAAAAAAAAAAAAAAAAAc/jByzvea1eUhXRAAAAAAAAAAcA5/8K2146d77n6B0O7406Gd+UjoF6BtHnt6GtHnZ6MpHnF6RtHmt6XuI8yvTlo8wPUVo8tPVFo8qPV1I8nvWdo8kvXNxHkN6/1Hj96o4Dbd6VfR+dk98FgAAAAAAAAAAAAAAAAAAAAAAAAAAAAB+lH1fWnxeVa3Mwx+CAAAAAAAAAAA+N9n485Oud1f3WrQvLiu3lq7a1VrVf0y1NpcV28tXbz+ij+mWrt5/RV/TLiu3lRTbm0beUr+Dzf6h/nf1fEjmfDNnpwTmAAAAAAAAAAAAAAAAAAAAAAAAAAAA30jxHv7B8OGH4wAAAAAAAAAAAB8j6/yZyddN23uLy1dvLV28tXby1dvLV28/pFFrV28tXbz+ir+mWpt5UVqptWqyojbylarKV2s1HHPIft/y9m+x6+Gf7oAAAAAAAAAAAAAAAAAAAAAAAAAABzn4HrXH87+/wDoa3NgAAAAAAAAAAAAHyvq/Km/Xeqt7e3lo28tTby1dtau3lxXby1Ntar+mWrt5StVlK1WVFaqbiKrKV28pWqykaEOlu6eqr+t5yG11UAAAAAAAAAAAAAAAAAAAAAAAAAB/f8Ah6Mr53J+XmryoIxAAAAAAAAAAAAAPmfT+ZN+vLy7e1tLVf0y1NvLV28uK7a1dvLU28tXaylarKRVZStVlVrVZSKrKV28pFVmqgOme5vMWT3+uhs9MAAAAAAAAAAAAAAAAAAAAAAAAAHNIw8p9C/y/rq8qCvngAAAAAAAAAAAAAPm/S+dN+vry7ext5au3lq7/TLU28uK7eWrtZStXNq7WUiqy1drKitVlRFVlK1WUiqylaCB/M+J5A5lwna6aF/eAAAAAAAAAAAAAAAAAAAAAAAAA/T6/wCl/QWD4AMPyYAAAAAAAAAAAAAAD5/0PwTbgNLt6+3lq7eWrt5cV2stTay0bc0rVzaNrKVq5tXayoirm4rtZSKrKVqspUB0By7zdm+zDP8AcAAAAAAAAAAAAAAAAAAAAAAAAAAepOfcd5FqcfCuoAAAAAAAAAAAAAAA/D+78U24HeXb1d/pNq7c3FdubV25tG3Nq7c2jbm1dubV25uI25uK7WUrVZaNrLV3RDin2vJeT3vl/mNnpgJAAAAAAAAAAAAAAAAAAAAAAAAAA9c8p6q7V1ORhXQAAAAAAAAAAAAAAAfj/Z+ObcGvKt6m3lK7c3FdubRVTau3No25tXbm1dubRtzcV25uK7WWjaylarKV2L6GtvcU4CbXVgnOAAAAAAAAAAAAAAAAAAAAAAAAAABzn1T4d9NYfi+yBg+IAAAAAAAAAAAAAAAfk/X+RbhFTd/TqpuK1U2jbyldubV25tG3Nq7c2jbm1dubrXbmkVc2rtzau1nGpvxrzT+r8m11QLemAAAAAAAAAAAAAAAAAAAAAAAAAAAA/Z+Mj1ZzbxF3Jg+E75fH+xh+TBQAAAAAAAAAAAAB+b9P5k8Iqbv6dVlRFVlK1WUrtzaNvKV28pWqykbc3FdubiNubV25tXbnUfk8mci682eihk+lAAAAAAAAAAAAAAAAAAAAAAAAAAAAAAA3kHHjHzVwpGvzVwoc1cKHNXChzVwoc1cKHNXChzVwoc1cKHNXChzVwoc1cKHNXChzVwoc1+j1z9eMPo2srW5zVZSKrKVqspFVlK1WUrtzaKqbV28qIqsqK7c2rtzaN6P5Z5mzfXyM/wB0AAAAAAAAAAAAAAAAAAAAAAAAAAAAAAAAAAAAAAAAAAAAAAA+p8v6TF6UrK1OWVWUrVZaNrKVqspWqykVWUrVZURVZUVqptXbm0b8D6vlHJ7XyPxGz0wFgAAAAAAAAAAAAAAAAAAAAAAAAAAAAAAAAAAAAAAAAAAAAAAH7/wftY/TdZWpyqqykVWUrVZStVlIqspWqylarKrFVlK1WUjadMW2+J9bm11QJ2AAAAAAAAAAAAAAAAAAAAAAAAAAAAAAAAAAAAAAAAAAAAAAAAH6/wAn6FfUVZWpyerm0bWUrVZSKrKVqspWqyoiqyorVZSKrPiTPwPMf7vn7PUAv6oAAAAAAAAAAAAAAAAAAAAAAAAAAAAAAAAAAAAAAAAAAAAAAAAD+38bR6pua1OTVWUrVZSKubV2spWqykVWVFarKitVlI/h5X5J1nsdADL9OAAAAAAAAAAAAAAAAAAAAAAAAAAAAAAAAAAAAAAAAAAAAAAAAAA3B6uv+f8AXU5JtZSKubV25pWqy0bWUrVZda7WUiuoeUeY831X8xn+8AAAAAAAAAAAAAAAAAAAAAAAAAAAAAAAAAAAAAAAAAAAAAAAAAAAA9V/o/N+rU5Ltzam3Nq7WUirm1drKitXNxG/I+j5dv6/xvmm10wFgAAAAAAAAAAAAAAAAAAAAAAAAAAAAAAAAAAAAAAAAAAAAAAAAAAAPVH7fwfQ1OTbc2xbc2rtzaNubiu1lo256pnZ4p1ebXUQnaAAAAAAAAAAAAAAAAAAAAAAAAAAAAAAAAAAAAAAAAAAAAAAAAAAAAA9S/S+X9XU5PVTbBtzaNubV25uI2s+Yn4vmP6HytnpYX9cAAAAAAAAAAAAAAAAAAAAAAAAAAAAAAAAAAAAAAAAAAAAAAAAAAAAAD1D9j4v29Tk9VlMG3Nq7c2jbm4r/PzJybqrP92GX6kAAAAAAAAAAAAAAAAAAAAAAAAAAAAAAAAAAAAAAAAAAAAAAAAAAAAAAD09934HINXlFVlRrbc2rVZSN6y5H5jyfTfxGf70AAAAAAAAAAAAAAAAAAAAAAAAAAAAAAAAAAAAAAAAAAAAAAAAAAAAAAAD01yPivK9XlNVNxqVWUivwfs8129T4fyDZ6WC4AAAAAAAAAAAAAAAAAAAAAAAAAAAAAAAAAAAAAAAAAAAAAAAAAAAAAAAHcXbvkj0Lh+I5rWVi+Vqp6rnZ+L1MbPTQnbAAAAAAAAAAAAAAAAAAAAAAAAAAAAAAAAAAAAAAAAAAAAAAAAAAAAAAAAAA5b9vrdXQ5JxsnaCcoAAAAAAAAAAAAAAAAAAAAAAAAAAAAAAAAAAAAAAAAAAAAAAAAAAAAAAAAAAAAAAAAAAAAAAAAAAAAAAAAAAAAAAAAAAAAAAAAAAAAAAAAAAAAAAAAAAAAAAAAAAAAAAAAAAAAAAAAAAAAAAAAAAAAAAAAAAAAAAAAAAAAAAAAAAAAAAAAAAAAAAAAAAAAAAAAAAAAAAAAAAAAAAAAAAAAAAAAAAAAAAAAAAAAAAAAAAAAAAAAAAAAAAAAAAAAAAAAAAAAAAAAAAAAAAAAAAAAAAAAAAAAAAAAAAAAAAAAAAAAAAAAAAAAAAAAAAAAAAAAAAAAAAAAAAAAAAAAAAAAAAAAAAAAAAAAAAAAAAAAAAAAAAAAAAAAAAAAAAAAAAAAAAAAAAAAAAAAAAAAAAAAAAAAAAAAAAAAAAAAAAAAAAAAAAAAAAAAAAAAAAAAAAAAAAAAAAAAAAAAAAAAAAAAAAAAAAAAAAAAAAAAAAAAAAAAAAAAAAAAAAAAAAAAAAAAAAAAAAAAAAAAAAAAAAAAAAAAAAAAAAAAAAAAAAAAAAAAAAAAAAAAAAAAAAAAAAAAAAAAAAAAAAAAAAAAAAAAAAAAAAAAAAAAAAAAAAAAAAAAAAAAAAAAAAAAAAAAAAAAAAAAAAAAAAAAAAAAAAAAAAAAAAAAAAAAAAAAAAAAAAAAAAAAAAAAAAAAAAAAAAAAAAAAAAAAAAAAAAAAAAAAAAAAAAAAAAAAAAAAAAAAAAAAAAAAAAAAAAAAAAAAAAAAAAH//EACUQAQEAAQMDBQEBAQEAAAAAAAEABgUHEAMEYAIXIEBQMBWwEf/aAAgBAQABAgD/AJ7IevtPOcP2x0/SLWMOy7BvNttcM+Hd9rlGh+aYTifQ6Hx3j7LzPQ9F0TRvlvD5n0OhhWJ/PeE8y21wz+G8HmW2+Gfx3g8xw3Fe27b+O8HmGj6RoGh/y3f8v6XSwbEf57vnl22mGf03e8u25w0P6bvHlmIYv2faf13c8s0rS8c0D+27nlfo9GB4f/fdo8q2ywz6G7PlW3uGh9Ddj0+UYrjXYdj9HdbyjTdOxnHfpbreT+n04Bh3090/J9ssM+pun5Nt/h3p9P1N0jyTGMd03T/q7o+Sdh2OK419bdA8iDb3Dfr7neR7ZYZ9jc7yLA8P9Ho+xknS/wA7/O/zv80000w0w0w0s0s0s0o0o0k0k0k0g0g0c0c0c0Y0Y0U0U0Q0Q0Q0P1aB3mA6vtHqWlfv45j+laX9nX/gAAQAAABAQAAAAEAAcERalpWZ4N+72fZ4jjH2te+AABAQAAAAEQAAEARHBERdx22bYp+2G3WG/b134ARAQAQAQEAAAARERycnGVaB1On+1tphn3Nd5ACAAAAAAICIAAOCIiI4I53L0n9nBsR6XS+5rfBARARAAAAAQAAERHBERER8N4+0/Y0DQ9H0n7ut8AAAAAREAEAABERHBERERHw3f/Y7btsOxX72s8AAEQAQAAAQERERHwI4I+O8fdfr7cYZ9/WICACICAAIgIiIiIjkiOD5bn6r+ttrhn4GrgEREBAAABEfIiI4IiI+OT691ur+rhWJ9DofgatAAEREAAcERwRERAREREfHq9XOMs/V7LtMe0P8HVYAAgIAIiIiIiIiOCOCI4PhuXmf620ei/hanAQEAHBEckRERHJERER8Nxsz/X2z7H8LUoCAAIjgjgiIiI+BERERzl+Ud33f6+I+j8LUQACIjg4IiIiIiI4IiIjnVtVyLX/2MJ6/4WoQRERERERERERHBHBERz1OpneYfs7Sal+F38RERHBERyRERHBHBwRzuZmf7W3uvfhd9wRERwcEcHBHBEREcnO4eZr+3t1lv4PfRyRERERERERHJwRERZXk3fd9+52Hf4fmv4He8ERHBERERwRERERHBFqWo5NkX73R6+ObsaXr/wB7vOCIiI4IiOCIiIiIiIn1Z/mHgI9rlhuH7ie4nuJ7ie4nuJ7ie4nuJ7ie4nuJ7ie4nuJ7ie4nuJ7ie4nuJ7ie4nuJ7ie4nuJ7iaTnfBEREcERERERHBHJbmZn5DoERHBERyRwRERERwcZ/mHq9XkOhvBwRERwRHBHBEREWTZFqOoeRaNHBwRERwcHB8CIi77vspyTyPSuDkjkiI4IiIiIv/dwMx8k02IiOSI4IiIiIiONy8y8l7CIiOCIiIiIiIiIs6y/1+vyXtI4I4OSIjgiIiLItf1TU/JuhHBEcEREREcERd33eWZN5P044IiIiOCIiI53CzDykiIiIj4nBEW5GY+VdOIiOCI+BHBZtlnV6vlXQSIiOSIiI413W9W1XyvtE4ODgjgjgu47nLsn8s7BiI4IiIiItw8w8t0xIiI5I4Itxcw8u0lIiIjgiIsxynrdby7RU4IiOTjWtY1nV/L9BSIiIjgut1sxyjzDHUiI5IC3Ey/zHGkjgiI43By/zLFkiIjgstybuO48yxNIjgi1bVNc1rzPCuqRHBdTqZnlPmm2WskRwW4eXea9p3WL5kc5pnq+bDp2cO6OqZd/0Vf/xABMEAABAwECBgkQCAUFAQAAAAABAgMEBQARBjFBVWCTEiEkQFBRYbLSExQVIiMlJjAyQlJicXJ00SBDVHOhsbPCU2OBgsEQM3WRsDX/2gAIAQEAAz8A/wDPZJIABJNpbaSpcV1KRlKCBp0qoMtT62VtMLAU1GT2q1jjWcgtS6S0G4EBmOkDzEAE+04z/pg7XELEqnNpdOJ9oBtwf1FqhgusPBfXEBarkPgXFPquDIdN+yLyK1UGr4rS9zNqxOrHnH1U/Rjzoz8WS0lxl1BQtCsRBs5g7W5lPUSUIOyZWfObVtpOmr2FFSAcCkwGCFSHOP1EnjNmYzLLDLYQ02gIQhOJKUi4AfSTfRJwHbd1YXzk6aTK/Uo8CIi9bhvUvI2gY1q5BaHQKbHgREXIbHbKyrXlWrlP0+9FJ+LPMOmb0p5lhhsrddWEIQMalKNwAszgvTQFgKnPgKkOfsTyDxB7DUo5BMPMOmfY1lFantbreRudsj/abVlPrK8T3jpnxv7FaZdlpCKvPa3EwvuKFDaeWP2p8V3jpnxv7FaYv4UVMN7aIbJCpLoyDIkcqrR4cdmPHaS0y0kJQhIuCQPFeD9O+PT+mvTCbXKjHgQ0bJ104ziSBjUrkFoWD1NYgRE9qjbWs+U4s41Hxfg/T/j0/pr0vdfdbaabUtxaglCEi8qJxACzeDFO2TwCqhIAMhY83iQOQeM8HIB4qij8W16X9Ztt1yos7ocTuVtQ8hB888p8b4NQf+Sb/Tc0u7NyhVJzW4I6+0ScTzicnuiwAAAuA8aTg1C5Ki3+mvS2ThRVER03oitXLku+ijiHrHJaPAix4kZoNssoCEIGQDx3gxG+Pa5i9LJlZnx4MNoredVcOIDKo8gtDwbpbMGMLyO2dcyuOHGo+P8ABiN8e1zF6VrdWhtCCpaiEpSBeSTiAsjBqB1aSgGoyEgvKx9TTkbG8AcF2uSc1zVaV9RQ1Xqg13RQvhtqyA/WEc3ePgs38a1zVaVGvy+v5rR7HR1YjifX6PsGWwAAAuA3jfgqnkmNH8DpTKwnqiIjV6GEXKkPegj5nJaLTYceHEZDbDKNihA3l4KH4tnSiXVp0aDEb2b7ywlI/wAnkFomDNLahMXKcPbPu5XF5T8t5+Ch+LZ0nUtSUISVKUQAALySbJwdg9dykA1GSgbP+Ug7Yb6W9PBJ74lnSf8A2q/UWeWE0r9Xo718EnviWdJlYRTuu5aD2OjLGz/mrG2G+lZKEpQhISlIAAAuAA3qDgjJ5H2edpLLwmqjUJgFLY7Z93I2jKfbxWiUmDGgxGtgwygJSP8AJ5TvbwRl/fs87SSVU5jEOIyXX3lbFCRaLgxS0RGrlvruVIeyuL+Qyb3JwQmcjzHP0jJIAF5sKBDE6a0OyMhGIjbYR6I5Tl3x4H1D7xjnjSPqymq/UGu0Sb4bZ84/xCObvnwPqH3jHPGkS8JZ/V5KCKdHUOrHF1RWRsWQ2hKEJCUJACUgXAAYgN8tPUeSh1tK0ko7VQBHlC1P+wx9Wm1P+wR9Wm1P+wx9Wm1P+wR9Wm1P+wR9Um1O+wR9Um1OzfH1SbU7N8fVJtTc3xtUm1NzdG1SbUzN0bVJtTM3RtUm1MzbG1SbUvNsbVJtS82xdSm1KzZF1KLUrNkXUotSs2RdSi1JzXF1KPlak5ri6lHytSc1xNSi1IzVE1KPlakZqialHytR81RNSj5Wo+aYeoR8rUfNMPUI+VqNmmHqEfK1GzRD1CPlai5oh6hHytQnBsV0WCocRjo+VsFJoIVSUNKPnMktkf8AW1ZaUrco9R2fEzI6abVGjyDGnxHGHRiChtKHGk4iNAJmElUZgxhcD2zzuRtsY1G0OjQI0CG2EMspuHGTlUeU7671SfajnDgGn1mIuJPioeZVkVjB40nGDaXgw51wyVP05ZuS7lbJ81fz4ek1CVHiRWi4+8sIbQMpNo2C9LRHTcuU5cuS76S+IeqMm++9Un+znDgJiYw7HkNJcZdSUrQoXhQNnMF6nsW71QX71Rln8UHlTw4SQALdhIoqc5rd8hHaJONltWT3jl353qlf2c8cBtYR0WVBVcHbtmwv0XU4rLacW2tJStCilQOQjaI4b68cbrtQa7g2q+I2oeWsef7Bv3vVK/s5w4EFMwnkOITc1MQJA947SvxHDTmE9R2bySmnxyC+v0jkbFmmGm2mm0obQkJQhIuCUjaAA373rlexPOHAgVEokwDbQ660T74ChzeGZuEVTYgRB2y9taz5LaBjUbQ6HT48CGjYtNDGcaicalcp393rlexPOHAng3B/5Fv9NfDEiZIZjR2lOvOqCUISLyomzGC9NDW0uY9cqS6MpyJHInf99Mlewc4cCBMGixMrj7jurSE/u4Y7Ex01ee1u55PcUKG2y2f3K4A72yvdH5jgQVHCZ1htd7cJsMcmz8pfC/ZF5FantXxGV7nbOJ1xPnH1U8A302V7o/PgNjByjyp7hBcA2LCD57qvJFnH3XXnVlTjiitajjKlG8nhZ7CipALBTBYIVIc/YnlNmYrDLDLYQ00gIQgYkpSLgBwD3ule7wE0w04664lDbaSpa1G4JA2ySbLwoqd7RUmAxemOg5eNZ5Tws/PlxokdGyefcS2gcqjdaLg9So1Pj7ewF7jl1xccPlLPAXe+V7vAXXrrlDp7u521XSnEn/cWPMHInhdMmozas6gFMVIbZ+8cxkewcB7gle5wD2FimlwHbp76O3WMbLZ/ceGEw8EoK7rlyVuPr/qdiPwTwHuCV7nAEfBelqfNy5Tt6IzXpL4z6oy2kT5T8qS6XHnlla1nKTwwEYL0AD7Cyf8AtIPAd8GT7h3/AA6LAkz5jgQy0knlUciU8ptMwjqj8+Sbge1abyNtjEkcMiTgnQlg4oyW9X2n+OA9xSfcO/kNNrccWEoQkqUo7QAG2SbOYSz+ox1kU6OohlP8RX8QjhoSaDJglXbw5B2vUd2x+IPAe4pPuHf3V1u0Gnu9zQbpjg84j6scgy8NihYQsdWcCYsvuDxOIX+Sr+h4D3HJ+7Vv0UGJ2PgujsjITjH1CPSPKcliSSTw4mu05MGS5u+IgBV+N1sbQX0uAtxyfu1b8i4L0xcpy5b670x2cri/kMtpVSlvzJbxcfeXslrOU8Oy6ZLYmQ3lNPtKCkLFoOE8dLaihioIHdWCfK9dvjHAO5JP3avy33EpMGTOmOhDDKdko/kBym0zCWpuzZF6UeSy1feG0cXz4fejOtvMOrbdQdkhaCUqB4wRZ1hKI9dYLqQLhJaHb/3ptRq0gKp9RZeJF+wCrlj2pO2N/wC5JP3avy30lCVLWoJSkEkk3AAWVhHO61irIp0ZRDf81eIudHQIpIIJBGI2wlhAJYrksJGJJcKwP6KvthkB/wDbXqmujbDLPStS10bYZZ6VqWujbDLPStS10bYZZ6VqWujbDLPStS10bYZZ6VqWujbDLPStS10bYZZ6VqWujbDLPStS10bYZZ6VqWujbDLPStS10bYZZ6VqWujbDLPStS10bYZZ6VqWujbDLPStS10bYZZ6VqWujbDLPStS10bYZZ6VqWujbDLPStS10bYZZ6VqWujbDLPStS10bYZZ6VqWujbDLPStS10bYZZ6VqWujbDLPStS10bYZZ6VqWujbDLPStS10bYZZ6VqWujbCqbU4EWTVlLYefQ24jqTYvSo3ZE76v6rQKe7yTHU/pdLSLv5SPi2ecN8pweg9ZxFjsjJQdh/KQdrqnRspalKUoqUokkk3kk6RAVqj/Gsc8b4iYM0t2Y92zhvQw1lcc+XHaXVZsmbLdK33llSj/gcQGTSO6r0r4tnnje8WmQ5EyW6G2GUFS1G0rCapuS3b0spvRHa9BHzOXSTvpTfimucN7AAkm4Cxr8zrGE6ex0dW0RieX6fsGTSXvjA+Ia5w3t1JLtBp7vbnamOJyD+GDztJt3Q/v2+dvVGDcHqEZYNRkJ7kMfU05VqHNstxalrUVKUSVKJvJJynSbdUb71H570h4OUx6bJN58lpq+4uLyJFplYnSJ0x3ZvOqvJyAZAOIDSfu7Pvp/PeceBFkS5LobZZQVrUcgFpOE1TXIVeiM3emO16KOM+sculHdEe8N5XbZt2blGmwnNwR19sofXODL7oyad9atuUOnu92cF0txJ8hB+r9p0rJQkniG8G8GqfsGSFT5AIYR6AyuGzj7rjrriluLUVLWo3lRO2STpWSyyTjKE/l4+Hg/TX58o7SdpCBjcWcSRaZWp8idMXsnXTiGJIyJTyDSwmLGJxlpH5eOYhx3pEh1LbLSSpa1YgBZ/CapF7tkRGr0xmjkGUnlOlpMKGeNlvm+O7LPqpUB3cTKu6rSdp5Y/anS4mnQDxx2uaPG9YMro0B26U6ndDicbSD5o5VaXlVKph44rPMHjGsGqeSghU18EMN8Xrq5BZ2Q86884VuOKKlrUbyonbJOl5VR6SeOGxzB4uJQqc/OlquQgXJTlcXkQnlNplcqD86Wu9az2qciEDEkcg0w2VEox44THMHimYzLr7ywhptBWtZxJSkXkmz2ElRJQSmEySmO3+88p0xvoFF+CY5g8V2QeXR4Lm5Wl93cH1qxkHqjTK/B+i/Bs/gnxPYthVKgO7seT3ZaTttIP7laZ34O0b4Vv8B4hjBqnFwXLlu3pjtHKcqjyJs/LfdkPuqcdcUVLWrbJJ0zvwco3w6fpxKLAfnS13NNDEMaicSRym0yvVF6dKVtq2kIHkoQMSRpol/BikqGRtSD7UKI+k2w24664lDaElS1KNwAGMk2cwjn3NEpgsEhhHpcazpqgtyqQ6oBQUXmOUYlJ+l124uiwHe4IO6XE+eoeZ7BptIgyWZMdwoeaUFIUMhFoFeabZdWlieAApom4LPGj6DEZl6m0h4LkKBS7IQe1bGUIOVVids6bkG2ElNSlCJ5ebGJD4Dn4nbthCU3CNBHKG19O2EFYQpuVUFhk42mwG0HkITj/APRW/8QAKREAAgAEAwgDAQEAAAAAAAAAAQIAERJQAxNhICEwMTJAUVIQQnEikP/aAAgBAgEBPwD/AEEbFA1gY3kQCCJi94jy3Dn84Rk0vN6d6RrsJ1reSQomYYljM7Cda3l3qOmynWt4xHnuG0nWt3xHluHPbTqW7O1Igme2nUt1JCiZhmLGfATqW6u9R04KdS/t0xH+o4SdS/tzxHp3Dnw16l/bk7UiCSTM8NOpf24kgCZhmLGfEXcwjM0jM0jM0jM0jM0jM0jM0jNHiM0eIzR4jNHiM0eIzR4jNHrGcPEDFU2F3qOnFHYq5U6QCCJjvsR/qLBhNzHe4j0iQ52FOsd4zBRBJJmbDhibjuyQBMwzFjYsNaRqe7xWmZWLDT7HvG6j+2FEqOnesJMe7OyqljKAABId7ir9u/AmYRaR374R5r32GlImedipX1EUr6iKV9RFK+oilfURSvqIpX1EUr6iKV9RFK+oilfURSvqIpX1EUr6iCqyP8ji4afY3E8REqOl9VSxkIAAEhfOcItIvuGkt5533DSf9G+otR0vqgsZCAAokLudkQi0jW8HmdnDSW887yeZ2MNJ7zyvR5n5Rajpe8Rd8x8AEmQhQFEhfKV8QAByH+gv/8QAQREAAgEBAgYMDQMFAQAAAAAAAQIDBAAFEBEhQVBUBhUWICIjMEBRcZKTEhQxMjM1QlJyc7HB0RNhYiSBkJGyof/aAAgBAwEBPwD/ACCV+yajpJGiiQzupxHEcSg9dodl8ZYCejZV95W8L/wgWp6mCriWaCQOjeQjTeyO+PFkNHA3GuOMYeypzdZw7F6x4a8U+Pi5gcnQwGMHTV83ql2U2MYjO+SNfuf2FpHeV3kdizsSSTnJw3F62ovjP0Oma2shoaeSeY8FfIM5OYC1bWTV9TJPKcreQZlGYDeXH62ovj+2mHdI0Z3YKqgkk+QAWvq9XvOo4JIgTJGv3O9uT1tQ/M0xsjvjxh2oqd+KU8Yw9ojN1DfXJ61ofmaX2RXx4pGaSBuPccIj2FP3O/uX1rQ/NGlr3vSO7KYvkMr5I16T0n9haWWSaR5JGLOxJYnOTv7m9a0PzRpWrqoaKnknmbEij+5PQLV9dNeFS88ufIq5lXMByFz+tKH5q6UZlRWZiAoBJJzAWvu9mvKoxISKeM8AdP8AI8jc/rSg+culNkl8fqs1DTvwFPGsM593kro9Z0Hzk+uk9kN8eJRGmgbj5BlI9hfyeTun1nQfPT66SvW847spjIcRkbJGnSfwLTTSVEryyuWdzjYnk7q9Z0Hz4/rpGqqYaOCSeZsSIMZ/AteNfNeNS88mQeRFzKvRylDKIa2klIxhJUbF1G26CLVm7Vt0MWrN2rboYtWbtW3RRaq3atuji1Vu1bdJFqrdoW3Sxaq3aFt00Wqt2hbdPDqj9oW3UQ6o/aFt1MOqP2hbdVDqb9oW3Vw6m/aFt1kOpv2hbdbBqb9oWp9k12zkK5eEn3xk/wBiyOkihkYMpGMEHGDz8kKCzEAAYyTa/b3N4z+BGSKeM8Ee8fe5WH00XxjCcBwk4CbE2NibHDdd71F2SjwSWhJ4cZ+o6DanniqoY5om8JHGMHn2yS+PCLUNO+QemYf8/nlovSxfGMBsbE7wmxsTyGxOtIkmo2PBYeGnWPLz2/748Qh/Qhb+okHYXpsSTlPLRelj+IYDgODHY4DvDhOC4nKXtREZ3I/2COeXpeMV2UzSvlc5I0942nnlqZpJpXLO5xk8vF6SP4hY2NjY2OA2PJbGoDNesTYuDErOfoOd1FRFSwyTSt4KIMZNrzvGW8qlpnyKMiJ7q8wj9InxDATgJseSOAAkgC1wXYbvpS0gxTy4i490ZhzvZVXmWoWjRuBFiL/ux/A5jH56fELHATY7w8jsbufwitfUJkHoVP8A1+OeXhIZa6sc55n+vMU89OsWJ5e4roN4z/qSD+njPC/kfdsAFAAAAAxADnl6QmC8a2MjySsR1NlHMU89esYDY4ThNjY4Dgu6glvGpSCPIPK7ZlW1NTQ0kEcEK4kQYh+Tz3ZVdzN4FdEuPEAsv2PMU85esctDDJUSxxRIWdziUC11XbHdlMI1xGRssj9J/A58yq6lWAIIxEHOLXrsZljZpqEeGhymL2h1dNnjkiYpIjIw8oYYjy6+cvXvTvjY4Nj9z+IxeMTr/USDID7C/nQMkMUwxSRK46GANtrrv1Cn7tbbXXfqFP3a22uu/UKfu1ttdd+oU/drba679Qp+7W21136hT92ttrrv1Cn7tbbXXfqFP3a22uu/UKfu1ttdd+oU/drba679Qp+7W21136hT92ttrrv1Cn7tbbXXfqFP3a2nu+gEExFDACEbERGvRyuxu5/1WWuqE4APFKc597SM/oJvgb6cpcl0teVR4TginjPDPT/EWVVRVVQAoAAAzAaRl9FJ8JsbGxsd/QUM14VKQRZ8rNmVc5tSUsNFBHBCuJFH9yek6SfzH6jyUUck0iRxqWdiAoGcm10XZHdlMEyGV8sjdJ6OoaTPkNjhOA7zY9c/ikYqp149xwQfYU/c6VPIbHbo/XdaydeLU8Wp9ojP1DSz5GbrO/ua62vKo4QIgQgyN9hZESNFRFCqoAAGYDS0vpH+I76io5q+oSCIZT5TmUZybUdJDQ08cEQ4K585OcnS82SaX423qI8rqiKWZiAAM5NrnutLtp8RxGZ8sjfYfsNMVOSecfzb64DY4Nj10eLoKudeNccBT7Kn7nTNVkqqn5j/AF3mx+6PGZBVzrxKHgA+2w+w01WgrWVYOaZ/rgNrpux7yqAuUQplkb7D9zaONIkSNFCooAAGYDTWyC65EmeshQtG+WQD2T09RwUdFPXTrFCmM5zmUdJtRUcNDTpBEMg8pzsek6ckuy75W8J6OIt8OK0UMMC+BFEqL0KAB/kF/9k=;" vertex="1" parent="1">
          <mxGeometry x="964" y="-398" width="90" height="84" as="geometry" />
        </mxCell>
        <mxCell id="IJoVcqCJSkyeiCKx4dnM-9" value="Judge0" style="icon;html=1;image=data:image/jpeg,/9j/4AAQSkZJRgABAQAAAQABAAD/2wCEAAkGBw8PDQ8NDxAQDQ8ODQ0NDQ0NDQ8ODw8NFREWFhYRFRUYHSggGBomJxUVITElJikrLjAvGB8/ODMsNyguLisBCgoKDg0OFxAQFysdHh8rLS0tLS0tLSsrLS0xLS0tNy0tLystLS0rLSsuNystLi03Ky0tLTctKy0uLS0rLTctN//AABEIAOEA4QMBIgACEQEDEQH/xAAcAAABBAMBAAAAAAAAAAAAAAAAAQIDBAYHCAX/xABKEAACAgEBAgkGCgUKBwAAAAAAAQIDBBEFEgYHEyExUWFxgRQiQVKRtAgyNTZicnWCobEjM0Kz0SQ0Q2OSorLBwuEVFiWDlKPw/8QAGgEBAQEBAQEBAAAAAAAAAAAAAAEDAgQFBv/EACQRAQACAwACAgICAwAAAAAAAAABAgMREhMxBCFBUSJxMmGh/9oADAMBAAIRAxEAPwDeIAaE41eMmWVOzZ2DNwxYtwyMiDalkyXM4Ra6Kv8AF9X4wZlwy43cTDlKjDis/IjrGUoy3cauXU5r477I+1Gp9tcY218tvfy50Qf9Fh640V96L334yZiiQAS35Flj3rLJ2y9a2yVkvbJtkQAAAAAAAAAAAAAAAAAAAAAAAAAAAAASU32Qetc51v1q5yg/amRgBkux+H21sRrk826yK/osmXlMGurz9Wl3NG0eCHHNj3uNO0a1h2PRLJrbljSf0k/Oq8dV1tGiQA7KrmpRUotSjJKUZRaacX0NP0occ4cWnGHbsyyONkSlbs+cknF6ylitv9ZX9Hrj4rn5pdGU2xnCNkJKcJxjOE4tOMotaqSa6UwHgAAa247eFcsPCjg0y3cjOUoylF6SrxFzTa6nLVRXfLqOfEjK+NHazy9t5k9dYUWeR1dPNCnWMv73KPxMUAAAAAAAAAAAAAAAAAAAAAAAAAAAAAAAAAUBAF0F0AaKO0DQBhuviH4VucZ7Hulq6ou/CbfPyWv6Sn7rakuyT9ETS+h6XBrarwc/FzU9PJ74Tn089L82xeMXJAdbgR8tD1l7UAHHmTc7LLLZfGssstl9acnJ/mRAAAAAAAAAAAAAAAAAAAAAAAAAAAAAAAhQAUBQAXQEKEILoKkKA3QJQ1TT9K0HhoEZb/z7ldnsFMR0ALtXAACgAAAAAAAAAAAAAJsPFtusjTTXZfbL4tVMJWTfdGPOZLwA4D37Xue63Ti1SSyMlrXR9PJ1r9qbTXYk036E+iuDfBrD2bTyOJTGpft2PzrbZetOb55fkvRogNF7H4n9rXpStVOFF+i+3fs/sV6r2yRkePxEvT9JtFa/1eHzfjYboADTN3ETzeZtHn+nh6r8LDwdq8TG1KU5UTx8xLXzYTdFj7oz83+8dCABx9tPZmRiW8jk02Y1nP5l0HBtdcX0SXatUVGdfbZ2PjZtMsfKphfVLpjNc6frRkueMu1NM594yuLqzZT8pocr8CUlFTlz2Y8m9FCzrT6FLwfPo2GBjkIKgFFQgoQoqQJChAKkKkOSARIXQVIVIBugD9ACKIAAdgAAAAAAAAAAv7C2Vbm5dGFT+syLFWm1qoR6ZTfZFJy8CgbY+D5spTy8zOktfJ6a8epv17W5T07UoR/tgbk2DsenBxasPHjuVUwUV1yl0ynJ+mTerb7T0AG2TUYuUmoxinKUnzJRS1bYDci+FcJWWTjXCC3pzskoRiutt8yRhW0ONnYtMnBZEr2ul41FtkfCem6/BmmeMPhtdtbJlpKUcKubWLj6tRlFdF1i9M308/xU9F6W8SA6Pw+N7YtklGV1tGvNrdjWqPi4ppeJmmz8+nJqjdj2131S+LZVOM4PxRx4e5wQ4U5OysqORjybg2vKMZyaryK/SmuhS6pdK7tUw6wIczFruqnRbCNlVsJV2VzWsZQa0aaItk7RqysanKpe9VfVC2t6aPdktedeh9hbA5R4b8HJbL2jdhvWVa0txpvpnjT13W+1aOL7YvrPDRvD4QeylLFxM5Lzqb5Y1j/qrYuSb7pQivvmj0A5CiIcghUKhByCHIVIEhyQAkOSFSFSIhNAHaAEeYAAVoAAAAAAAAAADffwfKktl5U/TPaE1r2Rop0/NmhDoDiA+SL/ALQu/c1AbMMU41Mx07B2hOPM5UKjVdV1kan/AI2ZWYVxy/N7O78P3ukDmgAAAAAA6I4iMt2bE5N8/k+Zk0x+q923T/2s2Iaw+D78k5P2nd7vjmzwMH46KlLg/l9cJ4k12NZNf+TZzajpfjh+b+d3Y3vFZzQgHIchqHoIVD0NiPSCHJDkgSHJEQJDkgSHJFck0AdoBB5AABWoAAAAAAAAAAOgOID5Iv8AtC79zUc/nQHEB8kX/aF37moDZhhXHL83s7vw/e6TNTCuOX5vZ3fh+90gc0Hs7F4K7Rzo7+JiXXw51yqUYVtrpSnNqL8GTcAtjQz9rYeHYtarLZSuXrVV1yscfHc3fE6qpqjCEYQjGEIRUYQhFRjGKWiSS6EByrtbgXtTErduRhXV1xWsrI7l0Yrrk63LdXazwDsxnNPG/sGrB2xONEVXVk0V5ca4pKEJylOM4xXoWsN7T6QGx/g+/JOT9p3e745s81h8H35JyftO73fHNngYZxw/N/O7sb3is5oidL8cPzfzu7G94rOaIgPQ5CRHxQcnJD4oSKJEggSHpAkOSDkJDkhUhyQQmghJugQeRLGmv2de7nImtOnm7zIFAJUp8zSfetTrTvtjwHs2bMg+jWPd/Aq27LsXxdJ/gyLFoUAH2Vyi9JJxfatBgdAAAAOgOID5Iv8AtC79zUc/nQHEB8kX/aF37moDZhhXHL83s7vw/e6TNTCuOX5vZ3fh+90gaI4A7ZhgbXw8u16VV2yhc/VrsrlW5PsW/veB1VXZGUVOLUoySlGUWnGUWtU010o41Pf2Bw02ngQVWLlThUuimahdVH6sZp7vhoB1ac1ccW3Ks3bE3TJTqxqa8RTi04zsjKcpuL9K1nu/dPP2zxgbWzK3VdmTVclpOumFdCkuqTgk2uzXQxhIDfvwffknJ+07vd8c2eaw+D78k5P2nd7vjmzwMM44fm/nd2N7xWc0xR0vxv8AyBm92P7xWc2RiEkJEkULGJLGIckih6QqiSKIczJqQ9IdGJJGAQxRJFEcoj1EJszQCTdFCbIkPUQSHpG3LSYCiPUBUh8UTlnMI5UprRpNdTWqKd+xqpfF1rf0edexnqRiPUTnlxuY9MYv2LbHnjpYux6P2M8+yuUXpKLi+qSaM6UBZ0RktJJSXVJJonLqM8x7YCdAcQHyRf8AaF37mo1dfsCifQnW+uD0XsfMbc4lcNUbOvqUt/8Al1k+daNJ1VfwJprXLW06hsEwrjl+b2d34fvdJmpiPG1jO3YG0Irncaq7n9Wq6FkvwgyNHMIBqg1AAHQg5fFTl9VN/kW6tlXS59xxXXLm/DpCTMR7bw+D78k5P2nd7vjmzzXvEfs+VGyJ739Nm32ruUK6/wA62bCCsP43FrsHN7sf3is5yjWdH8a7/wCh5S9Z40V/5FZoBYwcWnSpGA9QLaoHKkM+laMCRVlhVD1WE6QKA9QJlUPVRHPSBRHqBMqx6gE6V9wCzuAE2qIehiHo93L2zB8SSJHEkiTlnNUsSSJFEkiTllNUqHxRHFksTmasrVPjEz/iry0p5OO38aMLoL6rcZfnAwGJ6ew9oyxcmrIjz7kvOj61b5pR9mvjoczRxWebRLeAy+qM4Srmt6M4yhKL6HFrRobi5ELa4W1yUoTipRkvSmSmD6DSHCLg48S+VU4qUG26bXFNWV+jn616V/seV5FD1I/2Ub8zsKq+DruhGyD592S10fWup9qMYyuL/Gk9a7LavotxnFd2q1/E63DxX+PeJ/j6ar8n7Cxs3Y1mVdGiqO9OT6f2YR9M5P0JGyaOL3HT1ndbNdUVCGv4MybZmy6MWG5RXGtPTea1cpPrlJ87JKUwXmf5fQ2Rs+GLj1Y1fxaoKKfpk+lyfa22/EuAJKSSbb0SWrb5kl1ke70wbjayf5HTjLpuv32v6uuL/wA5Q9hqh4hmXCzaXlmXKxfq4LkqfqJ/G8Xq+7Q8V0F0+bkzxNp08Z4onk57DoEeONOfK8jkBeRPU8nEeORfI8zkhVUej5OHIA8igqhVUXuQF5EHajyYF7kQCdsaQ9MYhUfS0+3pKmSRZCmOTHLiarEWPTIEySLHLOarEWSxZWjIlhInLK1FiLJosrRZLFnPLG1GW8EOFMsN8lZrPHk9Wlzyqk+mUetda9nbtDEyq7oK2qcbIS6JReq7ux9hoaMj0NmbTvxpb9Fkq2+lJ6xl3xfM/Eyvh39wlMk0+p+4bvA17gcYNqSV9MLPpVSdb9j1/NHr18PMV9Nd8fu1v/UYzitH4bRnp+2VgYtLh1i+iF7+5Bf6ijl8O5NaU0JdUrZ7391fxJ47fpzb5WKv5ZrbZGMXKTUYxWspSaSS622YDwr4T8unjY7aqfNZZzp2/RXVH8+7p8XaO1sjJf6axyWuqgvNgu6KKiR3GPXt835Hz5vHNI1H/UG4JuFncDcOuXh8ituCbha3A5MnK+RU3A3C3yYnJE5Xyqm4HJlvkhOSJyvlVOTDky3yQcmTk8sqnJgW+TAcnmlgCFHWVuEpQlzSjKUJLqknoxp9KH66DkOTGoUul0kTHxZCmOTLpJqsRkSxkVVIkjInLOaLUZEsZFSMiWMycsbUW4yJYyKkZEkZk5YWouRkSxkU4zJYzOeWFsa5GQ9SKsZEqmTl5b41hMeiBMkjInLy3xposeiFMfGZOXltSYSJC7oRkOROWf2boGg5oTQnLnogC6BoTg7kmgaC6AOF7k3QUl8hv9Rgc/TfxZf0xHhxs5421MurTRSulfX1OFvnrTsW814Hho27xwcH3bTDaNa1njRdeQkud47eql91t+En1GoTfDfqsP2dJ3BwoiFN2kAUQVHUKcmOUhgpdJpLGRJGRXTHJjTiarUZksZlOMiSMicsrUXYyJYzKUZksbDnljbGuRmTRmUozJIzJp57Y12MyWMyjGZLGwmnntiXVIepFSMySMyaeW+JaTHqbRWUx6mNPJfCsqwfvIqKQ7XtHLz2xWWQK2+DsY4ZTS0fhYbJMWl22Qqj02TjBdmr01KLtMs4A7Nc7JZkl5tetdWvpsfNKXgubxfUc5P4VmWvxsM5ctaa/v8ApmP/AA+n1I+xAWgPlv12oNsgpRcZJSjJOMoyWqcXzNNelGjOH3Ayez7XdTFzwrJeZJat0Sb/AFc+zql4Pn6d6jLqozjKE4qcJJxlCSUoyi+lNPpRpjyTSdu6205fQ42lwo4rFJyu2fJQ153i3Se5/wBufSu583aka62nsbKxG1k0W0aftTg+TfdNea/Bn0MeWtvUt62iVIVDUxTeJaFFEFR0FQqEAoemOTIxdQmkykPjIrpjkxpxNFqMyWNhTUh8ZnOmVsa9GZIplGMySNhNMbYl6NhJGwoxsJFMaYWxLysHqwoqY5WE0xtgXlaLyhSVg7lRphb465v9ojs7RmHj23y3aa52vo/RwctO9ro8TL9icBLJNTy5cnHp5GuSc32SkuaPhr4HF8lae5cx8SbeoeRwe2Lbm27sdY1Ra5W3TmivVXXJ/wD3btXFxoVVxqrW7CEVGMV6F/ETExq6a41VRVcIrSMYrRL/AHJj52bNOSf9PofH+PXDH17kAAGL0AAAAI7/AIkvqsAA0Fw3/nXgjHwA+rh/xh6qeioEAG8OzkAoHSgEAAKhUABDhyFAOZPQ+IAcspPRJEAEs7JIj0AEYyUubE/nVfeAHGT/ABlx+W69l/qK/qL8i0AHx5bgAAAAAA//2Q==;" vertex="1" parent="1">
          <mxGeometry x="1306" y="-402.5" width="90" height="85.5" as="geometry" />
        </mxCell>
        <mxCell id="IJoVcqCJSkyeiCKx4dnM-11" value="Hugging Face" style="icon;html=1;image=data:image/svg+xml,PHN2ZyB4bWxucz0iaHR0cDovL3d3dy53My5vcmcvMjAwMC9zdmciIGZpbGw9Im5vbmUiIHZpZXdCb3g9IjI1LjQ2OTgzOTA5NjA2OTMzNiAzMi4xNDUwMDA0NTc3NjM2NyAyMDUuOTU2MjA3Mjc1MzkwNjIgMTkxLjIwMTIxNzY1MTM2NzIiIGhlaWdodD0iMTkxLjIwMTIxNzY1MTM2NzIiIHdpZHRoPSIyMDUuOTU2MjA3Mjc1MzkwNjIiPiYjeGE7PHBhdGggZmlsbD0id2hpdGUiIGQ9Ik0yMzAuNzIxIDE3Mi43QzIzMC4xODMgMTcwLjY3MyAyMjkuMzEzIDE2OC43NSAyMjguMTQ2IDE2Ny4wMDhDMjI4LjM5NiAxNjYuMDkxIDIyOC41ODcgMTY1LjE1OSAyMjguNzE0IDE2NC4yMTdDMjI5LjU0MyAxNTguMjQxIDIyNy40NzEgMTUyLjc3IDIyMy41NjcgMTQ4LjUzN0MyMjEuNDUyIDE0Ni4yMjUgMjE5LjE4NSAxNDQuNjk4IDIxNi43ODQgMTQzLjc2MUMyMTguMzYgMTM3LjAxOCAyMTkuMTU3IDEzMC4xMTcgMjE5LjE2MSAxMjMuMTkzQzIxOS4xNjEgMTIwLjAzIDIxOC45ODIgMTE2LjkzMiAyMTguNjgyIDExMy44OEMyMTguNTI2IDExMi4zNTYgMjE4LjMzNyAxMTAuODM2IDIxOC4xMTUgMTA5LjMyQzIxNy40MjggMTA0Ljg0NyAyMTYuNDA4IDEwMC40MzEgMjE1LjA2NCA5Ni4xMUMyMTQuMTgzIDkzLjI3MDcgMjEzLjE2NCA5MC40NzYgMjEyLjAxIDg3LjczNkMyMTAuMjgxIDgzLjY3ODIgMjA4LjI2MiA3OS43NSAyMDUuOTY5IDc1Ljk4MkMyMDQuNDY1IDczLjQ3NSAyMDIuODI3IDcxLjA1MDggMjAxLjA2MiA2OC43MkMyMDAuMTk3IDY3LjU0MyAxOTkuMjk2IDY2LjM5MzggMTk4LjM1OCA2NS4yNzRDMTk1LjU4IDYxLjg5OCAxOTIuNTYxIDU4LjcyNzcgMTg5LjMyNSA1NS43ODhDMTg4LjI1IDU0Ljc5OTcgMTg3LjE0NSA1My44NDUzIDE4Ni4wMSA1Mi45MjZDMTg0Ljg5MyA1MS45OTQzIDE4My43NTEgNTEuMDkyNyAxODIuNTg2IDUwLjIyMkMxODAuMjQxIDQ4LjQ3NjYgMTc3LjgxOCA0Ni44MzkyIDE3NS4zMjQgNDUuMzE1QzE2MS41NDMgMzYuOTQ1IDE0NS4zODIgMzIuMTQ1IDEyOC4xMDkgMzIuMTQ1Qzc3LjgxNyAzMi4xNDUgMzcuMDU3IDcyLjkwNyAzNy4wNTcgMTIzLjE5NkMzNy4wNTUgMTMwLjIwOCAzNy44NjcgMTM3LjE5NiAzOS40NzcgMTQ0LjAyQzM3LjMxNyAxNDQuOTU4IDM1LjI0NyAxNDYuNDIgMzMuMzI3IDE0OC41MzVDMjkuNDI0IDE1Mi43NjYgMjcuMzUxIDE1OC4yMTcgMjguMTggMTY0LjE5M0MyOC4zMDYgMTY1LjE0MiAyOC40OTUgMTY2LjA4MiAyOC43NDcgMTY3LjAwNkMyNy41ODExIDE2OC43NDkgMjYuNzExNyAxNzAuNjczIDI2LjE3NCAxNzIuN0MyNC45NzQgMTc3LjI2MSAyNS4zNjkgMTgxLjM3NCAyNi44OTQgMTg0Ljk3OEMyNS4yMzYgMTg5LjY4OCAyNS42NSAxOTQuNzA0IDI3LjgwOSAxOTkuMDY1QzI5LjM3OSAyMDIuMjUgMzEuNjI2IDIwNC43MTQgMzQuMzk2IDIwNi45MTZDMzcuNjg5IDIwOS41MzQgNDEuODExIDIxMS43NTggNDYuNzgzIDIxMy44OTJDNTIuNzE1IDIxNi40MjIgNTkuOTU2IDIxOC43OTkgNjMuMjQ5IDIxOS42NzFDNzEuNzU1IDIyMS44NzMgNzkuOTExIDIyMy4yNjkgODguMTc3IDIyMy4zMzdDOTkuOTU0IDIyMy40NDYgMTEwLjA5NiAyMjAuNjc3IDExNy4zNTcgMjEzLjU5QzEyMC45MjQgMjE0LjAyNyAxMjQuNTE1IDIxNC4yNDYgMTI4LjEwOSAyMTQuMjQ0QzEzMS45MDYgMjE0LjIzNiAxMzUuNjk5IDIxMy45OTcgMTM5LjQ2NyAyMTMuNTI5QzE0Ni43MTEgMjIwLjY2MSAxNTYuODkyIDIyMy40NTUgMTY4LjcxMiAyMjMuMzQzQzE3Ni45NzcgMjIzLjI3NyAxODUuMTMzIDIyMS44ODEgMTkzLjYxNyAyMTkuNjc2QzE5Ni45MzIgMjE4LjgwNCAyMDQuMTcgMjE2LjQyNyAyMTAuMTA1IDIxMy44OTdDMjE1LjA3NyAyMTEuNzYgMjE5LjE5OSAyMDkuNTM2IDIyMi41MTQgMjA2LjkyMkMyMjUuMjYzIDIwNC43MTkgMjI3LjUwOCAyMDIuMjU2IDIyOS4wNzkgMTk5LjA3MUMyMzEuMjYgMTk0LjcwOSAyMzEuNjUyIDE4OS42OTMgMjMwLjAxNyAxODQuOTgzQzIzMS41MjcgMTgxLjM3OSAyMzEuOTIgMTc3LjI1NyAyMzAuNzIxIDE3Mi43Wk0yMjIuMjgxIDE4NC42NzNDMjIzLjk1MiAxODcuODQ0IDIyNC4wNTkgMTkxLjQyNyAyMjIuNTg1IDE5NC43NjRDMjIwLjM0OSAxOTkuODIxIDIxNC43OTUgMjAzLjgwNSAyMDQuMDA4IDIwOC4wODJDMTk3LjMgMjEwLjc0MiAxOTEuMTU4IDIxMi40NDMgMTkxLjEwNCAyMTIuNDU4QzE4Mi4yMzIgMjE0Ljc1OSAxNzQuMjA4IDIxNS45MjggMTY3LjI2MiAyMTUuOTI4QzE1NS43NiAyMTUuOTI4IDE0Ny4yMDEgMjEyLjc1NCAxNDEuNzczIDIwNi40ODZDMTMyLjU5NCAyMDguMDUgMTIzLjIyMiAyMDguMTAzIDExNC4wMjYgMjA2LjY0NEMxMDguNTkxIDIxMi44MDggMTAwLjA4MSAyMTUuOTI4IDg4LjY3NiAyMTUuOTI4QzgxLjcyOSAyMTUuOTI4IDczLjcwNiAyMTQuNzU5IDY0LjgzMyAyMTIuNDU4QzY0Ljc3OSAyMTIuNDQzIDU4LjYzOSAyMTAuNzQyIDUxLjkyOSAyMDguMDgyQzQxLjE0MyAyMDMuODA1IDM1LjU4NyAxOTkuODI0IDMzLjM1MiAxOTQuNzY0QzMxLjg3OCAxOTEuNDI3IDMxLjk4NSAxODcuODQ0IDMzLjY1NiAxODQuNjczQzMzLjgxIDE4NC4zNzggMzMuOTc2IDE4NC4wOTEgMzQuMTUzIDE4My44MTNDMzMuMTUxNiAxODIuMzA5IDMyLjQ3OTkgMTgwLjYxIDMyLjE4MiAxNzguODI3QzMxLjg4NDIgMTc3LjA0NSAzMS45NjcgMTc1LjIyIDMyLjQyNSAxNzMuNDcyQzMzLjA4OSAxNzAuOTQ5IDM0LjQ2IDE2OC44NTEgMzYuMzIyIDE2Ny4zNDRDMzUuNDI1IDE2NS44NyAzNC44MzY1IDE2NC4yMyAzNC41OTIgMTYyLjUyMkMzNC4wNTYgMTU4LjgwOCAzNS4yODkgMTU1LjEgMzguMDYyIDE1Mi4wNzZDNDAuMjIyIDE0OS43MjMgNDMuMjc1IDE0OC40MjggNDYuNjU1IDE0OC40MjhINDYuNzQ1QzQ0LjE5NjUgMTQwLjI1OSA0Mi45MDQ0IDEzMS43NSA0Mi45MTMgMTIzLjE5M0M0Mi45MTMgNzYuNTIyIDgwLjc0OSAzOC42ODMgMTI3LjQyNyAzOC42ODNDMTc0LjEwNCAzOC42ODMgMjExLjk0IDc2LjUxOCAyMTEuOTQgMTIzLjE5M0MyMTEuOTQ3IDEzMS43NzMgMjEwLjY0NiAxNDAuMzA0IDIwOC4wODEgMTQ4LjQ5MkMyMDguNDg5IDE0OC40NTIgMjA4Ljg4OSAxNDguNDMyIDIwOS4yODIgMTQ4LjQzMUMyMTIuNjYyIDE0OC40MzEgMjE1LjcxNiAxNDkuNzI2IDIxNy44NzQgMTUyLjA3OUMyMjAuNjQ3IDE1NS4xIDIyMS44ODEgMTU4LjgxMSAyMjEuMzQ0IDE2Mi41MjVDMjIxLjEgMTY0LjIzMyAyMjAuNTExIDE2NS44NzMgMjE5LjYxNSAxNjcuMzQ3QzIyMS40NzcgMTY4Ljg1NCAyMjIuODQ5IDE3MC45NTIgMjIzLjUxMiAxNzMuNDc1QzIyMy45NyAxNzUuMjIzIDIyNC4wNTMgMTc3LjA0OCAyMjMuNzU1IDE3OC44MzFDMjIzLjQ1OCAxODAuNjEzIDIyMi43ODYgMTgyLjMxMiAyMjEuNzg0IDE4My44MTZDMjIxLjk2MSAxODQuMDkxIDIyMi4xMjkgMTg0LjM3OCAyMjIuMjgxIDE4NC42NzNaIi8+JiN4YTs8cGF0aCBmaWxsPSIjRkY5RDAwIiBkPSJNMjIxLjc4NCAxODMuODE2QzIyMi43ODYgMTgyLjMxMiAyMjMuNDU4IDE4MC42MTMgMjIzLjc1NiAxNzguODMxQzIyNC4wNTMgMTc3LjA0OCAyMjMuOTcgMTc1LjIyMyAyMjMuNTEyIDE3My40NzVDMjIyLjg0OCAxNzAuOTUyIDIyMS40NzYgMTY4Ljg1NCAyMTkuNjE1IDE2Ny4zNDdDMjIwLjUxMiAxNjUuODczIDIyMS4xIDE2NC4yMzMgMjIxLjM0NCAxNjIuNTI1QzIyMS44ODEgMTU4LjgxMSAyMjAuNjQ4IDE1NS4xMDMgMjE3Ljg3NCAxNTIuMDc5QzIxNS43MTYgMTQ5LjcyNiAyMTIuNjYyIDE0OC40MzEgMjA5LjI4MiAxNDguNDMxQzIwOC44ODkgMTQ4LjQzMSAyMDguNDg5IDE0OC40NTIgMjA4LjA4MSAxNDguNDkyQzIxMC42NDMgMTQwLjMwNCAyMTEuOTQyIDEzMS43NzQgMjExLjkzMyAxMjMuMTk1QzIxMS45MzMgNzYuNTIzMSAxNzQuMDk3IDM4LjY4NTEgMTI3LjQyNCAzOC42ODUxQzgwLjc1IDM4LjY4NTEgNDIuOTA5OSA3Ni41MTkxIDQyLjkwOTkgMTIzLjE5NUM0Mi45MDE1IDEzMS43NTIgNDQuMTkzNiAxNDAuMjYxIDQ2Ljc0MiAxNDguNDNINDYuNjUxOUM0My4yNzE5IDE0OC40MyA0MC4yMTkgMTQ5LjcyNCAzOC4wNiAxNTIuMDc3QzM1LjI4NyAxNTUuMDk4IDM0LjA1MjkgMTU4LjgxIDM0LjU4OTkgMTYyLjUyM0MzNC44MzQ2IDE2NC4yMzEgMzUuNDIzMSAxNjUuODcyIDM2LjMxOTkgMTY3LjM0NkMzNC40NTc5IDE2OC44NTIgMzMuMDg2IDE3MC45NSAzMi40MjIgMTczLjQ3M0MzMS45NjQyIDE3NS4yMjIgMzEuODgxNyAxNzcuMDQ3IDMyLjE3OTkgMTc4LjgzQzMyLjQ3ODEgMTgwLjYxMiAzMy4xNTAxIDE4Mi4zMTIgMzQuMTUxOSAxODMuODE2QzMzLjk3MzkgMTg0LjA5NCAzMy44MDk5IDE4NC4zODEgMzMuNjU0OSAxODQuNjc2QzMxLjk4NDkgMTg3Ljg0NyAzMS44NzcgMTkxLjQzIDMzLjM1MiAxOTQuNzY3QzM1LjU4OCAxOTkuODI0IDQxLjE0MTkgMjAzLjgwOCA1MS45Mjg5IDIwOC4wODVDNTguNjM1OSAyMTAuNzQ1IDY0Ljc3OSAyMTIuNDQ2IDY0LjgzMyAyMTIuNDYxQzczLjcwNSAyMTQuNzYyIDgxLjcyOSAyMTUuOTMxIDg4LjY3NSAyMTUuOTMxQzEwMC4wODEgMjE1LjkzMSAxMDguNTkxIDIxMi44MTEgMTE0LjAyNiAyMDYuNjQ3QzEyMy4yMjIgMjA4LjEwNiAxMzIuNTk0IDIwOC4wNTIgMTQxLjc3MyAyMDYuNDg5QzE0Ny4yMDEgMjEyLjc1NyAxNTUuNzYgMjE1LjkzMSAxNjcuMjYyIDIxNS45MzFDMTc0LjIwOCAyMTUuOTMxIDE4Mi4yMzIgMjE0Ljc2MiAxOTEuMTAzIDIxMi40NjFDMTkxLjE1OCAyMTIuNDQ2IDE5Ny4yOTggMjEwLjc0NSAyMDQuMDA4IDIwOC4wODVDMjE0Ljc5NSAyMDMuODA4IDIyMC4zNSAxOTkuODI0IDIyMi41ODUgMTk0Ljc2N0MyMjQuMDU5IDE5MS40MyAyMjMuOTUyIDE4Ny44NDcgMjIyLjI4MSAxODQuNjc2QzIyMi4xMjkgMTg0LjM3OSAyMjEuOTYxIDE4NC4wOTEgMjIxLjc4NCAxODMuODE2Wk0xMTAuMTM3IDE5Ni45OTdDMTA5LjY2OSAxOTcuODE1IDEwOS4xNjggMTk4LjYxNCAxMDguNjM1IDE5OS4zOTFDMTA3LjIzIDIwMS40NDggMTA1LjM4MiAyMDMuMDIgMTAzLjIzNyAyMDQuMTg4Qzk5LjEzNjkgMjA2LjQyNCA5My45NDcgMjA3LjIwNSA4OC42NzUgMjA3LjIwNUM4MC4zNDYgMjA3LjIwNSA3MS44MDggMjA1LjI1NiA2Ny4wMjMgMjA0LjAxNUM2Ni43ODcgMjAzLjk1NCAzNy42ODkgMTk1LjczNSA0MS4zNzMgMTg4LjczOUM0MS45OTMgMTg3LjU2MiA0My4wMTI5IDE4Ny4wOTIgNDQuMjk3OSAxODcuMDkyQzQ5LjQ4NDkgMTg3LjA5MiA1OC45Mjk5IDE5NC44MTYgNjIuOTg4OSAxOTQuODE2QzYzLjg5NTkgMTk0LjgxNiA2NC41MzU5IDE5NC40MyA2NC43OTY5IDE5My40ODhDNjYuNTI2OSAxODcuMjg0IDM4LjUwMzkgMTg0LjY3NiA0MC44NjM5IDE3NS42OTJDNDEuMjc5OSAxNzQuMTAyIDQyLjQxIDE3My40NTYgNDMuOTk4IDE3My40NTZDNTAuODU2IDE3My40NTUgNjYuMjQ4IDE4NS41MTYgNjkuNDY3IDE4NS41MTZDNjkuNzE0IDE4NS41MTYgNjkuODkwOSAxODUuNDQzIDY5Ljk4NjkgMTg1LjI5MUM3MC4wMDA5IDE4NS4yNjggNzAuMDE1IDE4NS4yNDYgNzAuMDI4IDE4NS4yMjJDNzEuNTM5IDE4Mi43MjcgNzAuNjcxOSAxODAuOTEzIDYwLjMyMDkgMTc0LjU3M0w1OS4zMjY5IDE3My45NjhDNDcuOTM1OSAxNjcuMDc0IDM5Ljk0MDkgMTYyLjkyNSA0NC40ODc5IDE1Ny45NzVDNDUuMDEwOSAxNTcuNDA0IDQ1Ljc1MjkgMTU3LjE1MSA0Ni42NTM5IDE1Ny4xNTFDNDcuNzIxOSAxNTcuMTUxIDQ5LjAxNDkgMTU3LjUwOCA1MC40Mzg5IDE1OC4xMDhDNTYuNDU0OSAxNjAuNjQ1IDY0Ljc5MyAxNjcuNTY0IDY4LjI3NiAxNzAuNTgxQzY4LjgyMzkgMTcxLjA1NyA2OS4zNjgzIDE3MS41MzggNjkuOTA4OSAxNzIuMDIyQzY5LjkwODkgMTcyLjAyMiA3NC4zMTkgMTc2LjYwOCA3Ni45ODUgMTc2LjYwOEM3Ny41OTkgMTc2LjYwOCA3OC4xMTk5IDE3Ni4zNjYgNzguNDcyOSAxNzUuNzY4QzgwLjM2NCAxNzIuNTggNjAuOTA5OSAxNTcuODM4IDU5LjgxMjkgMTUxLjc1NUM1OS4wNjg5IDE0Ny42MzQgNjAuMzM0OSAxNDUuNTQ2IDYyLjY3NDkgMTQ1LjU0NkM2My43ODc5IDE0NS41NDYgNjUuMTQ1OSAxNDYuMDIgNjYuNjQ0OSAxNDYuOTcxQzcxLjI5NDkgMTQ5LjkyMiA4MC4yNzI5IDE2NS4zNSA4My41NTk5IDE3MS4zNTJDODQuNjYxOSAxNzMuMzYzIDg2LjU0MjkgMTc0LjIxMyA4OC4yMzc5IDE3NC4yMTNDOTEuNjAwOSAxNzQuMjEzIDk0LjIyOTkgMTcwLjg3IDg4LjU0NTkgMTY2LjYyMkM4MC4wMDI5IDE2MC4yMyA4My4wMDEgMTQ5Ljc4MiA4Ny4wNzggMTQ5LjEzOUM4Ny4yNTIgMTQ5LjExMSA4Ny40Mjc5IDE0OS4wOTcgODcuNjAyOSAxNDkuMDk3QzkxLjMxMDkgMTQ5LjA5NyA5Mi45NDU5IDE1NS40ODYgOTIuOTQ1OSAxNTUuNDg2QzkyLjk0NTkgMTU1LjQ4NiA5Ny43Mzk5IDE2Ny41MjQgMTA1Ljk3NSAxNzUuNzUzQzExMy40NDcgMTgzLjIyMiAxMTQuNDkxIDE4OS4zNTEgMTEwLjEzNyAxOTYuOTk3Wk0xMzYuNzY2IDE5OC40MDdMMTM2LjMzOSAxOTguNDU4TDEzNS42MTEgMTk4LjU0MUMxMzUuMjI4IDE5OC41ODEgMTM0Ljg0NCAxOTguNjE5IDEzNC40NTkgMTk4LjY1NEwxMzQuMDg0IDE5OC42ODhMMTMzLjc0MSAxOTguNzE3TDEzMy4yNTUgMTk4Ljc1NkwxMzIuNzE4IDE5OC43OTVMMTMyLjE4MiAxOTguODNMMTMyLjA2MyAxOTguODM4QzEzMS45MjMgMTk4Ljg0NiAxMzEuNzgzIDE5OC44NTUgMTMxLjY0MSAxOTguODYyTDEzMS40NjIgMTk4Ljg3MkMxMzEuMjk2IDE5OC44ODEgMTMxLjEzIDE5OC44ODkgMTMwLjk2MiAxOTguODk2TDEzMC4zODEgMTk4LjkyMUwxMjkuODU0IDE5OC45MzlMMTI5LjUwMiAxOTguOTQ5SDEyOS4zMjNDMTI5LjIxMyAxOTguOTQ5IDEyOS4xMDQgMTk4Ljk1NSAxMjguOTk0IDE5OC45NTZIMTI4LjgyQzEyOC43MSAxOTguOTU2IDEyOC42MDEgMTk4Ljk1NiAxMjguNDkxIDE5OC45NjFMMTI4LjA0MyAxOTguOTY3SDEyNy40MThDMTI2LjkyNyAxOTguOTY3IDEyNi40MzcgMTk4Ljk2MiAxMjUuOTQ5IDE5OC45NTJMMTI1LjU1MyAxOTguOTQzQzEyNS40NCAxOTguOTQzIDEyNS4zMjcgMTk4LjkzOCAxMjUuMjE2IDE5OC45MzRMMTI0Ljc5NiAxOTguOTIyTDEyNC4yNzUgMTk4LjkwMkwxMjMuODA1IDE5OC44ODFMMTIzLjY4NCAxOTguODc2TDEyMy4yMzcgMTk4Ljg1M0MxMjMuMTEyIDE5OC44NDYgMTIyLjk4OSAxOTguODQgMTIyLjg2NSAxOTguODMxTDEyMi41NzYgMTk4LjgxNEMxMjIuMjEzIDE5OC43OTEgMTIxLjg1IDE5OC43NjYgMTIxLjQ4NyAxOTguNzM4TDEyMS4xMDcgMTk4LjcwN0MxMjAuOTQ3IDE5OC42OTUgMTIwLjc4NyAxOTguNjggMTIwLjYyOCAxOTguNjY2QzEyMC40NDEgMTk4LjY1IDEyMC4yNTQgMTk4LjYzMiAxMjAuMDY3IDE5OC42MTRDMTE5Ljc1NCAxOTguNTg1IDExOS40NDEgMTk4LjU1MyAxMTkuMTI4IDE5OC41MTlIMTE5LjExM0MxMjMuNjgzIDE4OC4zMjQgMTIxLjM3MiAxNzguODAyIDExMi4xMzcgMTY5LjU3NUMxMDYuMDggMTYzLjUyNiAxMDIuMDUxIDE1NC41OTQgMTAxLjIxNSAxNTIuNjMzQzk5LjUyMjkgMTQ2LjgyOCA5NS4wNDUgMTQwLjM3NSA4Ny42MDggMTQwLjM3NUM4Ni45NzkgMTQwLjM3NSA4Ni4zNTEgMTQwLjQyNSA4NS43MyAxNDAuNTIzQzgyLjQ3MiAxNDEuMDM2IDc5LjYyNCAxNDIuOTExIDc3LjU5MiAxNDUuNzMzQzc1LjM5NiAxNDMuMDAyIDczLjI2MiAxNDAuODMxIDcxLjMzMiAxMzkuNjA1QzY4LjQyMiAxMzcuNzYgNjUuNTE3OSAxMzYuODI0IDYyLjY4ODkgMTM2LjgyNEM1OS4xNTc5IDEzNi44MjQgNTYuMDAxOSAxMzguMjc0IDUzLjgwMTkgMTQwLjkwNEw1My43NDU5IDE0MC45NzFDNTMuNzAzOSAxNDAuNzk4IDUzLjY2MzkgMTQwLjYyNSA1My42MjI5IDE0MC40NTFMNTMuNjE3OSAxNDAuNDI4QzUzLjE5OTIgMTM4LjYzOCA1Mi44NDc3IDEzNi44MzMgNTIuNTYzOSAxMzUuMDE2QzUyLjU2MzkgMTM1LjAwNCA1Mi41NjM5IDEzNC45OTIgNTIuNTU3OSAxMzQuOThDNTIuNTM1OSAxMzQuODQzIDUyLjUxNTkgMTM0LjcwNSA1Mi40OTQ5IDEzNC41NjhDNTIuNDMzNCAxMzQuMTYyIDUyLjM3NTcgMTMzLjc1NSA1Mi4zMjE5IDEzMy4zNDhDNTIuMjk3OSAxMzMuMTYzIDUyLjI3MTkgMTMyLjk3OCA1Mi4yNDg5IDEzMi43OTNMNTIuMTgwOSAxMzIuMjM4QzUyLjE1ODkgMTMyLjA1MyA1Mi4xNDA5IDEzMS44ODUgNTIuMTIwOSAxMzEuNzA5TDUyLjExNSAxMzEuNjY1QzUyLjAzNTEgMTMwLjk0NSA1MS45NjUxIDEzMC4yMjUgNTEuOTA0OSAxMjkuNTAzTDUxLjg4MjkgMTI5LjIyNkw1MS44NDc5IDEyOC43NTRDNTEuODM3OSAxMjguNjI1IDUxLjgyNzkgMTI4LjQ5NSA1MS44MjA5IDEyOC4zNjVDNTEuODIwOSAxMjguMzM0IDUxLjgxNTkgMTI4LjMwNCA1MS44MTQ5IDEyOC4yNzVDNTEuNzg5NSAxMjcuOTEzIDUxLjc2NzggMTI3LjU1IDUxLjc0OTkgMTI3LjE4N0M1MS43Mzk5IDEyNi45OTggNTEuNzI5OSAxMjYuODEgNTEuNzIxOSAxMjYuNjJMNTEuNzAxOSAxMjYuMTI0TDUxLjY5NjkgMTI1Ljk3NEw1MS42ODA5IDEyNS41MTdMNTEuNjcwOSAxMjUuMTI4QzUxLjY3MDkgMTI0Ljk3MyA1MS42NjI5IDEyNC44MTggNTEuNjYwOSAxMjQuNjYzQzUxLjY1NzkgMTI0LjUwOCA1MS42NTM5IDEyNC4zMzggNTEuNjUyOSAxMjQuMTc0QzUxLjY1MDkgMTI0LjAxIDUxLjY1MjkgMTIzLjg0OCA1MS42NDc5IDEyMy42ODVDNTEuNjQzOSAxMjMuNTIxIDUxLjY0NzkgMTIzLjM1OCA1MS42NDc5IDEyMy4xOTVDNTEuNjQ3OSA4MS4zNDIxIDg1LjU3ODkgNDcuNDExMSAxMjcuNDM2IDQ3LjQxMTFDMTY5LjI5MiA0Ny40MTExIDIwMy4yMjIgODEuMzQxMSAyMDMuMjIyIDEyMy4xOTVWMTI0LjE3NEMyMDMuMjIyIDEyNC4zMzcgMjAzLjIxNyAxMjQuNTAxIDIwMy4yMTQgMTI0LjY2M0MyMDMuMjE0IDEyNC43OTggMjAzLjIwOCAxMjQuOTMxIDIwMy4yMDQgMTI1LjA2OEMyMDMuMjA0IDEyNS4xODggMjAzLjE5OSAxMjUuMzA5IDIwMy4xOTUgMTI1LjQyNUMyMDMuMTk1IDEyNS41NzggMjAzLjE4NiAxMjUuNzMxIDIwMy4xODEgMTI1Ljg4NFYxMjUuODk2TDIwMy4xNiAxMjYuNDI3QzIwMy4xNTMgMTI2LjU4MiAyMDMuMTQ3IDEyNi43MzggMjAzLjEzOSAxMjYuODkzTDIwMy4xMzQgMTI3LjAwM0wyMDMuMTA3IDEyNy40OTlDMjAzLjA0OCAxMjguNTYyIDIwMi45NjcgMTI5LjYyMyAyMDIuODY2IDEzMC42ODNWMTMwLjY5NkMyMDIuODQ5IDEzMC44NyAyMDIuODMyIDEzMS4wNDQgMjAyLjgxMyAxMzEuMjE4TDIwMi43NjggMTMxLjYyOUwyMDIuNjc5IDEzMi40MzNMMjAyLjYyOCAxMzIuODRMMjAyLjU2NSAxMzMuMzE5QzIwMi41NDIgMTMzLjQ5MyAyMDIuNTE5IDEzMy42NjggMjAyLjQ5MyAxMzMuODQxQzIwMi40NjcgMTM0LjAzNiAyMDIuNDM4IDEzNC4yMyAyMDIuNDA5IDEzNC40MjRMMjAyLjM0IDEzNC44ODNMMjAyLjI1OCAxMzUuNDAzQzIwMi4yMyAxMzUuNTc2IDIwMi4yIDEzNS43NDggMjAyLjE2OCAxMzUuOTJDMjAyLjEzNSAxMzYuMDkzIDIwMi4xMDkgMTM2LjI2NSAyMDIuMDc5IDEzNi40MzdDMjAyLjAxOSAxMzYuNzgxIDIwMS45NTYgMTM3LjEyNSAyMDEuODkgMTM3LjQ2OEMyMDEuNzg5IDEzNy45ODEgMjAxLjY4NiAxMzguNDkzIDIwMS41OCAxMzkuMDA1TDIwMS40NyAxMzkuNTEyQzIwMS40MzQgMTM5LjY4MSAyMDEuMzk1IDEzOS44NTEgMjAxLjM1NyAxNDAuMDJDMTk5LjIyNCAxMzcuOTQ3IDE5Ni4zOTkgMTM2LjgxOCAxOTMuMjg0IDEzNi44MThDMTkwLjQ1NyAxMzYuODE4IDE4Ny41NSAxMzcuNzUzIDE4NC42NDEgMTM5LjU5OEMxODIuNzExIDE0MC44MjQgMTgwLjU3OCAxNDIuOTk2IDE3OC4zODEgMTQ1LjcyNkMxNzYuMzQ2IDE0Mi45MDQgMTczLjQ5OCAxNDEuMDI5IDE3MC4yNDIgMTQwLjUxNkMxNjkuNjIxIDE0MC40MTggMTY4Ljk5MyAxNDAuMzY4IDE2OC4zNjQgMTQwLjM2OEMxNjAuOTI1IDE0MC4zNjggMTU2LjQ1IDE0Ni44MjEgMTU0Ljc1NyAxNTIuNjI2QzE1My45MTcgMTU0LjU4NyAxNDkuODg3IDE2My41MTkgMTQzLjgyNSAxNjkuNTc3QzEzNC41OTYgMTc4Ljc3NSAxMzIuMjY4IDE4OC4yNTQgMTM2Ljc2NiAxOTguNDA3Wk0yMTUuMDA3IDE3Ny45OThMMjE0Ljk3NyAxNzguMDg3QzIxNC45MDEgMTc4LjI4OCAyMTQuODEzIDE3OC40ODQgMjE0LjcxNCAxNzguNjc0QzIxNC42MzkgMTc4LjgxNCAyMTQuNTU4IDE3OC45NSAyMTQuNDcgMTc5LjA4MkMyMTQuMzAzIDE3OS4zMzEgMjE0LjEyIDE3OS41NjkgMjEzLjkyMSAxNzkuNzkzQzIxMy44NzUgMTc5Ljg0NSAyMTMuODMxIDE3OS44OTcgMjEzLjc3OSAxNzkuOTQ4QzIxMy43MDcgMTgwLjAyNSAyMTMuNjM0IDE4MC4xMDEgMjEzLjU1OSAxODAuMTc1QzIxMi4yMTMgMTgxLjUwOSAyMTAuMTYxIDE4Mi42NzkgMjA3Ljg0MSAxODMuNzUyQzIwNy41NzggMTgzLjg3MSAyMDcuMzExIDE4My45OSAyMDcuMDQyIDE4NC4xMUwyMDYuNzc0IDE4NC4yMjlDMjA2LjU5NSAxODQuMzA4IDIwNi40MTYgMTg0LjM4NiAyMDYuMjI4IDE4NC40NjNDMjA2LjA0OSAxODQuNTQxIDIwNS44NjMgMTg0LjYxOSAyMDUuNjc3IDE4NC42OTVMMjA1LjExOSAxODQuOTI1QzIwMy44MTQgMTg1LjQ2MiAyMDIuNDc3IDE4NS45NzQgMjAxLjE3MyAxODYuNDc5TDIwMC42MTUgMTg2LjY5NkwyMDAuMDY0IDE4Ni45MTJDMTk5LjY5NyAxODcuMDU1IDE5OS4zMzUgMTg3LjE5OCAxOTguOTc5IDE4Ny4zNDFMMTk4LjQ0OCAxODcuNTU1TDE5Ny45MjYgMTg3Ljc2OEwxOTcuNjcgMTg3Ljg3NkMxOTcuNDk5IDE4Ny45NDcgMTk3LjMzMiAxODguMDE4IDE5Ny4xNjUgMTg4LjA4OUMxOTMuMzI4IDE4OS43MzYgMTkwLjU2NyAxOTEuNDExIDE5MS4xNDcgMTkzLjQ4OUMxOTEuMTYzIDE5My41NDggMTkxLjE4MSAxOTMuNjA0IDE5MS4yMDEgMTkzLjY1OUMxOTEuMjUzIDE5My44MTMgMTkxLjMyNCAxOTMuOTU4IDE5MS40MTMgMTk0LjA5NUMxOTEuNDY1IDE5NC4xNzYgMTkxLjUyNSAxOTQuMjUzIDE5MS41OTIgMTk0LjMyM0MxOTIuMjc0IDE5NS4wMzIgMTkzLjUxNSAxOTQuOTIgMTk1LjA4IDE5NC4zNTdDMTk1LjMgMTk0LjI3NiAxOTUuNTE5IDE5NC4xOTIgMTk1LjczNiAxOTQuMTA0TDE5NS44NzIgMTk0LjA0OEMxOTYuMjMgMTkzLjg5NiAxOTYuNjA5IDE5My43MjYgMTk2Ljk5NiAxOTMuNTQyQzE5Ny4wOTMgMTkzLjQ5NiAxOTcuMTkxIDE5My40NTIgMTk3LjI4OSAxOTMuNDAxQzE5OS4yMDMgMTkyLjQ2NSAyMDEuMzcyIDE5MS4yMDUgMjAzLjUyNCAxOTAuMDU4QzIwNC4zODUgMTg5LjU5MyAyMDUuMjU4IDE4OS4xNTIgMjA2LjE0MiAxODguNzMzQzIwOC4xOCAxODcuNzc0IDIxMC4wOTYgMTg3LjA5NCAyMTEuNjM2IDE4Ny4wOTRDMjEyLjM1OSAxODcuMDk0IDIxMi45OTcgMTg3LjI0MiAyMTMuNTI5IDE4Ny41ODJMMjEzLjYxOCAxODcuNjQxQzIxMy45NTIgMTg3Ljg3NiAyMTQuMjMyIDE4OC4xNzggMjE0LjQ0MSAxODguNTI4QzIxNC40ODIgMTg4LjU5NSAyMTQuNTIyIDE4OC42NjYgMjE0LjU2MSAxODguNzM5QzIxNS4zMjIgMTkwLjE4NCAyMTQuNjg1IDE5MS42OCAyMTMuMTk0IDE5My4xNDdDMjExLjc2MyAxOTQuNTU2IDIwOS41MzcgMTk1LjkzNyAyMDcuMDA3IDE5Ny4yMTVDMjA2LjgxOSAxOTcuMzEgMjA2LjYzMSAxOTcuNDA1IDIwNi40NCAxOTcuNDk4QzE5OC45MSAyMDEuMTk2IDE4OS4wNDkgMjAzLjk4MSAxODguOTEyIDIwNC4wMTZDMTg2LjI4NCAyMDQuNjk3IDE4Mi41MjYgMjA1LjU5MSAxNzguMjkyIDIwNi4yNkwxNzcuNjY2IDIwNi4zNThMMTc3LjU2MyAyMDYuMzczQzE3Ny4wODkgMjA2LjQ0NSAxNzYuNjE0IDIwNi41MTIgMTc2LjEzOCAyMDYuNTc0QzE3NS42NTUgMjA2LjYzOSAxNzUuMTY3IDIwNi42OTggMTc0LjY3NiAyMDYuNzUzTDE3NC41ODYgMjA2Ljc2M0MxNzIuODA2IDIwNi45NjggMTcxLjAxOSAyMDcuMTA0IDE2OS4yMjggMjA3LjE2OUgxNjkuMjAyQzE2OC41NTQgMjA3LjE5MiAxNjcuOTA3IDIwNy4yMDQgMTY3LjI1OSAyMDcuMjA0SDE2Ni41MTJDMTY1LjUyNCAyMDcuMTkxIDE2NC41MzggMjA3LjE0NiAxNjMuNTUzIDIwNy4wN0MxNjMuNTMgMjA3LjA3IDE2My41MDUgMjA3LjA3IDE2My40ODIgMjA3LjA2NEMxNjMuMTI5IDIwNy4wMzcgMTYyLjc3NyAyMDcuMDA0IDE2Mi40MjUgMjA2Ljk2NUMxNjIuMDYgMjA2LjkyNiAxNjEuNjk2IDIwNi44ODIgMTYxLjMzMyAyMDYuODMzQzE2MS4wOTQgMjA2LjgwMSAxNjAuODU2IDIwNi43NjUgMTYwLjYxOCAyMDYuNzI2QzE2MC4zNzYgMjA2LjY4NyAxNjAuMTM0IDIwNi42NDcgMTU5Ljg5MyAyMDYuNjA1TDE1OS41NjQgMjA2LjU0M0wxNTkuNTM5IDIwNi41MzhDMTU5LjE5MiAyMDYuNDcyIDE1OC44NDcgMjA2LjM5OSAxNTguNTAzIDIwNi4zMTlDMTU4LjMwMyAyMDYuMjc0IDE1OC4xMDQgMjA2LjIzIDE1Ny45MDcgMjA2LjE3NkwxNTcuNzg4IDIwNi4xNDZDMTU3LjY5IDIwNi4xMjIgMTU3LjU5NSAyMDYuMDk2IDE1Ny40OTggMjA2LjA3TDE1Ny40NDUgMjA2LjA1NkwxNTcuMTM3IDIwNS45NjZDMTU3LjAyNSAyMDUuOTM1IDE1Ni45MTMgMjA1LjkwMSAxNTYuODAxIDIwNS44NjhMMTU2Ljc2MiAyMDUuODU3TDE1Ni40NzEgMjA1Ljc2OEMxNTYuMzYxIDIwNS43MzQgMTU2LjI1MSAyMDUuNjk4IDE1Ni4xNDIgMjA1LjY2MkwxNTUuODc0IDIwNS41NzNMMTU1LjY3NyAyMDUuNTA0QzE1NS40ODcgMjA1LjQzNyAxNTUuMjk4IDIwNS4zNjggMTU1LjExMSAyMDUuMjk2TDE1NC45MzMgMjA1LjIyNkwxNTQuNzg2IDIwNS4xNjhDMTU0LjUwMiAyMDUuMDU0IDE1NC4yMiAyMDQuOTM1IDE1My45NDEgMjA0LjgxTDE1My43NTYgMjA0LjcyTDE1My43MjUgMjA0LjcwNkMxNTMuNjU5IDIwNC42NzUgMTUzLjU5NCAyMDQuNjQ0IDE1My41MjggMjA0LjYxN0MxNTMuMzk5IDIwNC41NTUgMTUzLjI3MSAyMDQuNDkxIDE1My4xNDQgMjA0LjQyNkwxNTMuMTA1IDIwNC40MDdMMTUyLjkyMSAyMDQuMzFDMTUyLjU5NCAyMDQuMTM5IDE1Mi4yNzQgMjAzLjk1NyAxNTEuOTYgMjAzLjc2NEwxNTEuNzg4IDIwMy42NThDMTUxLjcwMiAyMDMuNjA1IDE1MS42MTYgMjAzLjU1IDE1MS41MzIgMjAzLjQ5NEwxNTEuMzA4IDIwMy4zNDZMMTUxLjA2NyAyMDMuMThMMTUwLjkyMyAyMDMuMDc3QzE1MC43NzEgMjAyLjk2OSAxNTAuNjIyIDIwMi44NTcgMTUwLjQ3NiAyMDIuNzQyTDE1MC4yNDMgMjAyLjU2M0MxNTAuMTUgMjAyLjQ4OCAxNTAuMDU4IDIwMi40MTIgMTQ5Ljk2NyAyMDIuMzM1QzE0OS44OSAyMDIuMjcyIDE0OS44MTUgMjAyLjIwNiAxNDkuNzQgMjAyLjE0TDE0OS43MzQgMjAyLjEzNUMxNDkuNjUzIDIwMi4wNjQgMTQ5LjU3NCAyMDEuOTkzIDE0OS40OTUgMjAxLjkyQzE0OS40MTcgMjAxLjg0OSAxNDkuMzM5IDIwMS43NzcgMTQ5LjI2MyAyMDEuNzA0TDE0OS4yNTQgMjAxLjY5NUMxNDkuMTc0IDIwMS42MTkgMTQ5LjA5NiAyMDEuNTQyIDE0OS4wMTkgMjAxLjQ2M0MxNDguOTQyIDIwMS4zODUgMTQ4Ljg2MyAyMDEuMzA3IDE0OC43ODggMjAxLjIyN0MxNDguNzEzIDIwMS4xNDggMTQ4LjYzNiAyMDEuMDY3IDE0OC41NjIgMjAwLjk4NEMxNDguNDg4IDIwMC45MDIgMTQ4LjQyIDIwMC44MjcgMTQ4LjM1IDIwMC43NDZMMTQ4LjMyNyAyMDAuNzE5QzE0OC4yNTkgMjAwLjY0MSAxNDguMTkyIDIwMC41NjIgMTQ4LjEyNiAyMDAuNDgxQzE0Ny45ODMgMjAwLjMxIDE0Ny44NDQgMjAwLjEzNSAxNDcuNzEgMTk5Ljk1NkMxNDcuNTc1IDE5OS43NzYgMTQ3LjQ0MyAxOTkuNTkyIDE0Ny4zMTQgMTk5LjQwNUwxNDcuMTkxIDE5OS4yMjFDMTQ3LjAyNyAxOTguOTgxIDE0Ni44NjcgMTk4LjczOSAxNDYuNzEyIDE5OC40OTNDMTQ2LjU5NiAxOTguMzE2IDE0Ni40ODMgMTk4LjEzOCAxNDYuMzczIDE5Ny45NTdDMTQ2LjMwMiAxOTcuODQ0IDE0Ni4yMzQgMTk3LjczIDE0Ni4xNjYgMTk3LjYxOEwxNDYuMTM4IDE5Ny41NzJDMTQ2LjA3MyAxOTcuNDYyIDE0Ni4wMDkgMTk3LjM1NCAxNDUuOTQ3IDE5Ny4yNDVDMTQ1LjkxMSAxOTcuMTg2IDE0NS44NzcgMTk3LjEyNyAxNDUuODQ1IDE5Ny4wNjZDMTQ1LjgxMiAxOTcuMDA0IDE0NS43NzQgMTk2Ljk0MSAxNDUuNzM5IDE5Ni44NzhMMTQ1LjY4MiAxOTYuNzc5TDE0NS42NDcgMTk2LjcxNUMxNDUuNTggMTk2LjU5NSAxNDUuNTE0IDE5Ni40NzQgMTQ1LjQ1IDE5Ni4zNTJDMTQ1LjQyIDE5Ni4yOTggMTQ1LjM5MSAxOTYuMjQ0IDE0NS4zNiAxOTYuMTkyTDE0NS4yNzEgMTk2LjAxOUwxNDUuMTgxIDE5NS44NDhDMTQ0Ljk1NiAxOTUuMzk4IDE0NC43NDMgMTk0Ljk0MiAxNDQuNTQzIDE5NC40OEwxNDQuNDcyIDE5NC4zMTFDMTQ0LjQyNiAxOTQuMTk4IDE0NC4zODMgMTk0LjA4NiAxNDQuMzM3IDE5My45NzVDMTQ0LjMxNSAxOTMuOTIxIDE0NC4yOTMgMTkzLjg2OCAxNDQuMjc0IDE5My44MTRDMTQ0LjE2NyAxOTMuNTM3IDE0NC4wNjcgMTkzLjI1NyAxNDMuOTc1IDE5Mi45NzVDMTQzLjk0MiAxOTIuODc0IDE0My45MSAxOTIuNzc1IDE0My44OCAxOTIuNjc1QzE0My44MDggMTkyLjQ0OCAxNDMuNzQzIDE5Mi4yMTkgMTQzLjY4NSAxOTEuOTg4QzE0My42MTQgMTkxLjcxOSAxNDMuNTUxIDE5MS40NDggMTQzLjQ5OCAxOTEuMTc1QzE0My40ODcgMTkxLjEyIDE0My40NzYgMTkxLjA2NSAxNDMuNDY3IDE5MS4wMTJDMTQzLjQxNSAxOTAuNzQ1IDE0My4zNzMgMTkwLjQ3NiAxNDMuMzQgMTkwLjIwNkMxNDMuMzMyIDE5MC4xNTMgMTQzLjMyNiAxOTAuMSAxNDMuMzIgMTkwLjA0N0wxNDMuMzAzIDE4OS44ODVDMTQzLjI4MSAxODkuNjczIDE0My4yNjQgMTg5LjQ2IDE0My4yNTQgMTg5LjI0N0MxNDMuMjU0IDE4OS4xOTMgMTQzLjI0OSAxODkuMTM5IDE0My4yNDcgMTg5LjA4N0MxNDMuMjQyIDE4OC45ODEgMTQzLjI0IDE4OC44NzUgMTQzLjIzOSAxODguNzY5QzE0My4xODMgMTg0LjQ5NiAxNDUuMzQ1IDE4MC4zODggMTQ5Ljk2OCAxNzUuNzY3QzE1OC4yMDMgMTY3LjU0IDE2Mi45OTcgMTU1LjUwMSAxNjIuOTk3IDE1NS41MDFDMTYyLjk5NyAxNTUuNTAxIDE2My4xMjYgMTU0Ljk5NiAxNjMuMzk0IDE1NC4yNjlDMTYzLjQzMSAxNTQuMTY4IDE2My40NyAxNTQuMDY0IDE2My41MTQgMTUzLjk1NUMxNjMuNjcgMTUzLjU0OCAxNjMuODQ2IDE1My4xNDggMTY0LjA0MSAxNTIuNzU4TDE2NC4wOCAxNTIuNjgzQzE2NC4yNDYgMTUyLjM1MSAxNjQuNDI4IDE1Mi4wMjcgMTY0LjYyNCAxNTEuNzEyQzE2NC42NyAxNTEuNjM5IDE2NC43MTQgMTUxLjU2NyAxNjQuNzY1IDE1MS40OTRDMTY0LjkxMiAxNTEuMjc3IDE2NS4wNjcgMTUxLjA2NSAxNjUuMjMgMTUwLjg2QzE2NS4zMTkgMTUwLjc0OSAxNjUuNDE2IDE1MC42MzkgMTY1LjUxMyAxNTAuNTMyQzE2NS41NTIgMTUwLjQ5IDE2NS41OSAxNTAuNDQ4IDE2NS42MzEgMTUwLjQwOEMxNjYuMTA4IDE0OS45MTUgMTY2LjY1MyAxNDkuNTEzIDE2Ny4yNyAxNDkuMjk5TDE2Ny4zNDggMTQ5LjI3M0MxNjcuNCAxNDkuMjU2IDE2Ny40NTIgMTQ5LjI0IDE2Ny41MDUgMTQ5LjIyNUMxNjcuNTY2IDE0OS4yMDkgMTY3LjYyNyAxNDkuMTk1IDE2Ny42OSAxNDkuMTgyTDE2Ny43MTkgMTQ5LjE3NkMxNjcuODQ5IDE0OS4xNSAxNjcuOTgxIDE0OS4xMzMgMTY4LjExNCAxNDkuMTI0SDE2OC4xMjVDMTY4LjE5NCAxNDkuMTI0IDE2OC4yNjQgMTQ5LjExNyAxNjguMzM1IDE0OS4xMTdDMTY4LjQyNCAxNDkuMTE3IDE2OC41MDcgMTQ5LjExNyAxNjguNTk0IDE0OS4xMjZDMTY4LjY4NCAxNDkuMTM0IDE2OC43NzMgMTQ5LjE0NCAxNjguODYzIDE0OS4xNThDMTY5LjYwNSAxNDkuMjc2IDE3MC4zMTEgMTQ5LjcxOCAxNzAuOTE5IDE1MC40QzE3MS4xNSAxNTAuNjYgMTcxLjM1OCAxNTAuOTQgMTcxLjU0IDE1MS4yMzZDMTcxLjY2IDE1MS40MjggMTcxLjc3MyAxNTEuNjMxIDE3MS44OCAxNTEuODQ1QzE3MS45MjMgMTUxLjkzNCAxNzEuOTY0IDE1Mi4wMTYgMTcyLjAwNCAxNTIuMTA0QzE3Mi4xMDggMTUyLjMzIDE3Mi4yMDIgMTUyLjU2IDE3Mi4yODQgMTUyLjc5NUMxNzIuNDc5IDE1My4zNDUgMTcyLjYyNiAxNTMuOTExIDE3Mi43MjMgMTU0LjQ4N0MxNzIuODA3IDE1NC45OTIgMTcyLjg1NyAxNTUuNTAyIDE3Mi44NzMgMTU2LjAxM0MxNzIuODgxIDE1Ni4yODYgMTcyLjg4MSAxNTYuNTYzIDE3Mi44NzMgMTU2Ljg0MkMxNzIuODE5IDE1OC4xNCAxNzIuNTUzIDE1OS40MjEgMTcyLjA4NiAxNjAuNjM0QzE3Mi4wNDQgMTYwLjc0NSAxNzEuOTk3IDE2MC44NTcgMTcxLjk1MiAxNjAuOTY5QzE3MS44NiAxNjEuMTk1IDE3MS43NTkgMTYxLjQxNyAxNzEuNjUgMTYxLjYzNEMxNzEuNTY5IDE2MS43OTkgMTcxLjQ4NCAxNjEuOTY1IDE3MS4zOTIgMTYyLjEzQzE3MS4zMzIgMTYyLjI0IDE3MS4yNjkgMTYyLjM1IDE3MS4yMDYgMTYyLjQ2QzE3MS4wNDUgMTYyLjczNCAxNzAuODcxIDE2My4wMDYgMTcwLjY4NCAxNjMuMjc3TDE3MC41NzEgMTYzLjQzOUMxNzAuMTI5IDE2NC4wNTUgMTY5LjYzNyAxNjQuNjMzIDE2OS4wOTkgMTY1LjE2N0MxNjguNTY5IDE2NS42OTggMTY4LjAwMSAxNjYuMTg5IDE2Ny40IDE2Ni42MzdDMTY2Ljc5OCAxNjcuMDgzIDE2Ni4yMzMgMTY3LjU3NyAxNjUuNzExIDE2OC4xMTRDMTY0LjIwOCAxNjkuNjkxIDE2My44NTggMTcxLjA4MyAxNjQuMTk2IDE3Mi4xMzhDMTY0LjI1IDE3Mi4zMDQgMTY0LjMyMSAxNzIuNDY1IDE2NC40MDcgMTcyLjYxN0MxNjQuNTA4IDE3Mi43OTEgMTY0LjYyOCAxNzIuOTUxIDE2NC43NjQgMTczLjA5N0wxNjQuODE3IDE3My4xNTJMMTY0Ljg3MSAxNzMuMjA2QzE2NC45MjUgMTczLjI1OCAxNjQuOTgyIDE3My4zMDkgMTY1LjA0MyAxNzMuMzU5TDE2NS4xMDMgMTczLjQwN0MxNjUuMjQ4IDE3My41MTkgMTY1LjQwMiAxNzMuNjE5IDE2NS41NjMgMTczLjcwN0MxNjUuNjEgMTczLjczMiAxNjUuNjUyIDE3My43NTcgMTY1LjcwNSAxNzMuNzgxQzE2NS44NzkgMTczLjg2NiAxNjYuMDU4IDE3My45MzkgMTY2LjI0MiAxNzMuOTk4QzE2Ni4yOTMgMTc0LjAxNSAxNjYuMzQ0IDE3NC4wMyAxNjYuMzk2IDE3NC4wNDZMMTY2LjQ2MSAxNzQuMDYzTDE2Ni41NTEgMTc0LjA4N0wxNjYuNjI4IDE3NC4xMDZMMTY2LjcxMiAxNzQuMTI0TDE2Ni43OTUgMTc0LjE0MUwxNjYuODc0IDE3NC4xNTRDMTY2LjkzMiAxNzQuMTY0IDE2Ni45OTIgMTc0LjE3NCAxNjcuMDUyIDE3NC4xODFMMTY3LjEwOSAxNzQuMTlMMTY3LjIxMyAxNzQuMkwxNjcuMjc3IDE3NC4yMDdMMTY3LjM4MiAxNzQuMjE0SDE2Ny40NDRMMTY3LjU1NCAxNzQuMjJIMTY3LjlMMTY3Ljk5OSAxNzQuMjE0TDE2OC4xMTMgMTc0LjIwN0wxNjguMjUyIDE3NC4xOTRMMTY4LjM4MiAxNzQuMTc5QzE2OC40MTIgMTc0LjE3OSAxNjguNDQyIDE3NC4xNzEgMTY4LjQ3MiAxNzQuMTY1QzE2OC44NzIgMTc0LjEwNyAxNjkuMjY0IDE3NC4wMDEgMTY5LjYzOSAxNzMuODQ5TDE2OS43OTggMTczLjc4MkMxNjkuODg3IDE3My43NDMgMTY5Ljk3NyAxNzMuNzAyIDE3MC4wNTkgMTczLjY1OEMxNzAuMjM1IDE3My41NyAxNzAuNDA2IDE3My40NyAxNzAuNTcgMTczLjM2MUMxNzAuNzk5IDE3My4yMTEgMTcxLjAxNSAxNzMuMDQzIDE3MS4yMTcgMTcyLjg1OEMxNzEuMjY1IDE3Mi44MTUgMTcxLjMxMiAxNzIuNzY5IDE3MS4zNTggMTcyLjcyNUMxNzEuMzgxIDE3Mi43MDMgMTcxLjQwMyAxNzIuNjgyIDE3MS40MjUgMTcyLjY1OEMxNzEuNDY5IDE3Mi42MTMgMTcxLjUxNCAxNzIuNTY5IDE3MS41NTggMTcyLjUyQzE3MS44NzggMTcyLjE2OCAxNzIuMTU1IDE3MS43OCAxNzIuMzgzIDE3MS4zNjNDMTc0LjM0IDE2Ny44MDQgMTc2LjM5MSAxNjQuMjk4IDE3OC41MzQgMTYwLjg0OUwxNzguODI4IDE2MC4zNzhMMTc5LjEyNSAxNTkuOTA3QzE3OS4yNzMgMTU5LjY2OCAxNzkuNDIzIDE1OS40MzMgMTc5LjU3MiAxNTkuMTk5TDE3OS43MjIgMTU4Ljk2NUMxODAuMjIgMTU4LjE4NSAxODAuNzI2IDE1Ny40MSAxODEuMjQxIDE1Ni42NDFMMTgxLjU0NiAxNTYuMTg1QzE4Mi4xNTggMTU1LjI3OCAxODIuNzY4IDE1NC4zOTYgMTgzLjM3MyAxNTMuNTU4TDE4My42NzQgMTUzLjE0M0MxODQuMzMyIDE1Mi4yMzYgMTg1LjAxNyAxNTEuMzQ4IDE4NS43MjggMTUwLjQ4MkwxODYuMDEgMTUwLjE0NEMxODYuMDU3IDE1MC4wODggMTg2LjEgMTUwLjAzMiAxODYuMTUxIDE0OS45NzhDMTg2LjI0NCAxNDkuODY4IDE4Ni4zMzcgMTQ5Ljc2MSAxODYuNDI4IDE0OS42NTdDMTg2LjQ3NCAxNDkuNjA0IDE4Ni41MTcgMTQ5LjU1MiAxODYuNTY2IDE0OS41TDE4Ni44MzQgMTQ5LjE5OEwxODYuOTY4IDE0OS4wNTFDMTg3LjEwMyAxNDguOTA2IDE4Ny4yMzUgMTQ4Ljc2NyAxODcuMzY1IDE0OC42MzRDMTg3LjQ1NSAxNDguNTQ0IDE4Ny41MzggMTQ4LjQ1NSAxODcuNjI0IDE0OC4zNzFDMTg4LjEzMSAxNDcuODUzIDE4OC42OSAxNDcuMzg4IDE4OS4yOTMgMTQ2Ljk4NUwxODkuNDMzIDE0Ni44OTVDMTg5LjU2NyAxNDYuODA1IDE4OS43MDYgMTQ2LjcyMSAxODkuODQ4IDE0Ni42NDVDMTkyLjIxMiAxNDUuMzAzIDE5NC4xNjkgMTQ1LjIwNCAxOTUuMjk2IDE0Ni4zMzFDMTk1Ljk3OCAxNDcuMDEzIDE5Ni4zNTYgMTQ4LjE0NCAxOTYuMzM1IDE0OS43MThDMTk2LjMzNSAxNDkuNzg3IDE5Ni4zMzUgMTQ5Ljg1NyAxOTYuMzMgMTQ5LjkyOVYxNTAuMDA2QzE5Ni4zMyAxNTAuMDc4IDE5Ni4zMjQgMTUwLjE1IDE5Ni4zMTggMTUwLjIyM0MxOTYuMzE4IDE1MC4zMTMgMTk2LjMwOCAxNTAuNDAyIDE5Ni4yOTkgMTUwLjQ5MkMxOTYuMjkgMTUwLjU4MSAxOTYuMjg1IDE1MC42NDkgMTk2LjI3NiAxNTAuNzI5QzE5Ni4yNzYgMTUwLjc1MSAxOTYuMjcyIDE1MC43NzQgMTk2LjI2OCAxNTAuNzk4QzE5Ni4yNjIgMTUwLjg2NyAxOTYuMjUzIDE1MC45MzggMTk2LjI0MyAxNTEuMDA5QzE5Ni4yNDMgMTUxLjAzIDE5Ni4yNDMgMTUxLjA1MiAxOTYuMjM1IDE1MS4wNzRDMTk2LjIyNCAxNTEuMTY5IDE5Ni4yMSAxNTEuMjYzIDE5Ni4xOTQgMTUxLjM1N0MxOTYuMTgzIDE1MS40NDcgMTk2LjE2OCAxNTEuNTMxIDE5Ni4xNTIgMTUxLjYxOUwxOTYuMTI2IDE1MS43NjhDMTk2LjEgMTUxLjkxIDE5Ni4wNjcgMTUyLjA1IDE5Ni4wMjYgMTUyLjE4OEMxOTUuOTQ4IDE1Mi40NDcgMTk1Ljg1NCAxNTIuNyAxOTUuNzQzIDE1Mi45NDZDMTk1LjU4OCAxNTMuMjg0IDE5NS40MTcgMTUzLjYxMyAxOTUuMjI5IDE1My45MzNDMTk1LjEyNSAxNTQuMTExIDE5NS4wMTggMTU0LjI4NiAxOTQuOTA3IDE1NC40NTlDMTk0Ljc5MyAxNTQuNjM4IDE5NC42NzMgMTU0LjgxOSAxOTQuNTQ5IDE1NS4wMDJDMTk0LjIzMyAxNTUuNDU0IDE5My45MDUgMTU1Ljg5NyAxOTMuNTY0IDE1Ni4zM0wxOTMuNDA4IDE1Ni41MjdDMTkyLjg1MiAxNTcuMjIgMTkyLjI3OCAxNTcuODk5IDE5MS42ODYgMTU4LjU2MkwxOTEuNDk5IDE1OC43NzJDMTkxLjI0NyAxNTkuMDUzIDE5MC45OTEgMTU5LjMzNiAxOTAuNzI5IDE1OS42MkwxOTAuNTMyIDE1OS44MzRDMTkwLjQwMSAxNTkuOTc3IDE5MC4yNjQgMTYwLjEyIDE5MC4xMzIgMTYwLjI2NEMxOTAuMDAxIDE2MC40MDcgMTg5Ljg2NCAxNjAuNTUyIDE4OS43MjYgMTYwLjY5N0wxODkuMzE1IDE2MS4xM0wxODguODk4IDE2MS41NjZMMTg4LjQ3OCAxNjIuMDAyQzE4OC4xOTYgMTYyLjI5NCAxODcuOTEzIDE2Mi41ODYgMTg3LjYyOCAxNjIuODc4QzE4My41NzMgMTY3LjAzNyAxNzkuMzAxIDE3MS4xODIgMTc3Ljg1NSAxNzMuNzY2QzE3Ny43NTggMTczLjkzNCAxNzcuNjcxIDE3NC4xMDggMTc3LjU5MyAxNzQuMjg1QzE3Ny4zODcgMTc0Ljc1NSAxNzcuMzAxIDE3NS4xNTcgMTc3LjM2IDE3NS40ODJDMTc3LjM3OSAxNzUuNTg5IDE3Ny40MTYgMTc1LjY5MSAxNzcuNDcxIDE3NS43ODVDMTc3LjU1MiAxNzUuOTI2IDE3Ny42NTEgMTc2LjA1NiAxNzcuNzY2IDE3Ni4xNzJDMTc3LjgxOSAxNzYuMjI0IDE3Ny44NzUgMTc2LjI3MiAxNzcuOTM0IDE3Ni4zMTZDMTc4LjIzMiAxNzYuNTI4IDE3OC41OTEgMTc2LjYzNyAxNzguOTU3IDE3Ni42MjdIMTc5LjA3MUwxNzkuMTg4IDE3Ni42MThMMTc5LjMwNSAxNzYuNjA1TDE3OS40MDIgMTc2LjU5MUMxNzkuNDE1IDE3Ni41ODkgMTc5LjQyOSAxNzYuNTg3IDE3OS40NDIgMTc2LjU4M0wxNzkuNTMxIDE3Ni41NjZMMTc5LjU1NCAxNzYuNTYxTDE3OS42NTMgMTc2LjU0TDE3OS42ODggMTc2LjUzMUMxNzkuNzIzIDE3Ni41MjIgMTc5Ljc1NyAxNzYuNTEzIDE3OS43OTIgMTc2LjUwM0MxNzkuODI3IDE3Ni40OTMgMTc5Ljg3NSAxNzYuNDggMTc5LjkxNyAxNzYuNDY2QzE4MC4wOTMgMTc2LjQxMyAxODAuMjY1IDE3Ni4zNSAxODAuNDM0IDE3Ni4yNzhDMTgwLjUyMyAxNzYuMjQyIDE4MC42MSAxNzYuMjAzIDE4MC42OTYgMTc2LjE2MUMxODAuNzQxIDE3Ni4xNDEgMTgwLjc4NiAxNzYuMTIgMTgwLjgyOCAxNzYuMDk4TDE4MC45NjIgMTc2LjAzMkMxODEuMjgyIDE3NS44NjYgMTgxLjU5NCAxNzUuNjg1IDE4MS44OTggMTc1LjQ5MUwxODIuMDMxIDE3NS40MDFDMTgyLjA3NiAxNzUuMzczIDE4Mi4xMjEgMTc1LjM0NCAxODIuMTY0IDE3NS4zMTJMMTgyLjI5NyAxNzUuMjIzTDE4Mi4zNjggMTc1LjE3NEwxODIuNTYgMTc1LjAzOUMxODIuNzM5IDE3NC45MTYgMTgyLjkwNiAxNzQuNzg5IDE4My4wNzUgMTc0LjY2TDE4My4wOSAxNzQuNjQ4TDE4My4zNTkgMTc0LjQ0QzE4My43MjYgMTc0LjE1IDE4NC4wNzQgMTczLjg1OCAxODQuMzkgMTczLjU4M0wxODQuNiAxNzMuMzk5TDE4NC42MTkgMTczLjM4MUwxODQuNzI5IDE3My4yODRDMTg0Ljk4NyAxNzMuMDUyIDE4NS4yMTcgMTcyLjgzNiAxODUuNDA4IDE3Mi42NThMMTg1LjQ4NyAxNzIuNTgxQzE4NS41NTYgMTcyLjUxNiAxODUuNjE5IDE3Mi40NTUgMTg1LjY3NiAxNzIuNDAzTDE4NS43ODggMTcyLjI5MkwxODUuODI4IDE3Mi4yNTNMMTg1LjgzOSAxNzIuMjQyTDE4NS45NTYgMTcyLjEyNUwxODYuMDMgMTcyLjA0OEwxODYuMDM5IDE3Mi4wNDFMMTg2LjA3NCAxNzIuMDA5TDE4Ni4xMTggMTcxLjk2OUwxODYuMTMyIDE3MS45NTZMMTg2LjE2OSAxNzEuOTIyTDE4Ni4zNzMgMTcxLjc0M0wxODYuNDg3IDE3MS42NDFDMTg2LjU0OCAxNzEuNTg4IDE4Ni42MDcgMTcxLjUzNCAxODYuNjY2IDE3MS40NzlMMTg2LjgwMiAxNzEuMzU4QzE4Ni44MjcgMTcxLjMzOCAxODYuODUxIDE3MS4zMTYgMTg2Ljg3NiAxNzEuMjk0TDE4Ny4wMTkgMTcxLjE2OUwxODcuMjI5IDE3MC45ODRMMTg3LjM0MSAxNzAuODg3QzE4Ny43NzYgMTcwLjUwOSAxODguMzA1IDE3MC4wNTIgMTg4LjkxMyAxNjkuNTM3TDE4OS4xNjIgMTY5LjMyNkwxODkuNTczIDE2OC45ODFMMTg5Ljk5NCAxNjguNjNDMTkwLjU0NCAxNjguMTczIDE5MS4xMzYgMTY3LjY4OCAxOTEuNzYyIDE2Ny4xODVMMTkyLjE3MyAxNjYuODU1QzE5Mi41MjMgMTY2LjU3NiAxOTIuODgyIDE2Ni4yOTIgMTkzLjI0NiAxNjYuMDA2QzE5My4zOTMgMTY1Ljg5MSAxOTMuNTQyIDE2NS43NzYgMTkzLjY5NCAxNjUuNjYyQzE5NC4wNjYgMTY1LjM3MyAxOTQuNDQgMTY1LjA4NiAxOTQuODE3IDE2NC44MDNDMTk1LjY3NSAxNjQuMTU1IDE5Ni41NiAxNjMuNTA2IDE5Ny40NTYgMTYyLjg3NEwxOTcuODQgMTYyLjYwNkMxOTguMTA5IDE2Mi40MjEgMTk4LjM3NyAxNjIuMjM1IDE5OC42NDUgMTYyLjA1NEwxOTguODg4IDE2MS44OUMxOTkuMzY3IDE2MS41NjUgMTk5Ljg1MyAxNjEuMjQ4IDIwMC4zNDMgMTYwLjkzOUwyMDAuNTg2IDE2MC43ODZMMjAwLjgyNyAxNjAuNjM2QzIwMS4wNjkgMTYwLjQ4NiAyMDEuMzA5IDE2MC4zMzkgMjAxLjU0OCAxNjAuMTk2TDIwMS43ODcgMTYwLjA1M0wyMDIuMjY1IDE1OS43NzVMMjAyLjczNCAxNTkuNTA2TDIwMi44MjkgMTU5LjQ1NEwyMDMuMiAxNTkuMjVDMjAzLjM1NSAxNTkuMTY2IDIwMy41MDkgMTU5LjA4NSAyMDMuNjYzIDE1OS4wMDZMMjAzLjg5MiAxNTguODg4TDIwNC4xMTUgMTU4Ljc3NkMyMDQuMTkzIDE1OC43MzkgMjA0LjI3IDE1OC43IDIwNC4zNDYgMTU4LjY2M0MyMDQuODQ4IDE1OC40MTUgMjA1LjM2IDE1OC4xODcgMjA1Ljg4IDE1Ny45NzlDMjA2LjAyMSAxNTcuOTE5IDIwNi4xNjEgMTU3Ljg2NSAyMDYuMyAxNTcuODE4TDIwNi43MSAxNTcuNjc0QzIwNi44MzMgMTU3LjYzMyAyMDYuOTUzIDE1Ny41OTQgMjA3LjA2OCAxNTcuNTU5TDIwNy4xMDggMTU3LjU0N0MyMDcuMTcgMTU3LjUyNyAyMDcuMjMyIDE1Ny41MDkgMjA3LjI5MyAxNTcuNDkzTDIwNy4zMTEgMTU3LjQ4OEMyMDcuNDM5IDE1Ny40NTEgMjA3LjU2NiAxNTcuNDE5IDIwNy42OTEgMTU3LjM4OUgyMDcuN0MyMDguMDU0IDE1Ny4zMDQgMjA4LjQxNCAxNTcuMjQzIDIwOC43NzcgMTU3LjIwNkMyMDguOTQ0IDE1Ny4xODkgMjA5LjExMSAxNTcuMTggMjA5LjI3OSAxNTcuMTgxSDIwOS4zNjNDMjA5LjQ3NSAxNTcuMTgxIDIwOS41ODMgMTU3LjE4OCAyMDkuNjkgMTU3LjE5OUMyMDkuNzM5IDE1Ny4xOTkgMjA5Ljc4OCAxNTcuMjA5IDIwOS44MzYgMTU3LjIxNUgyMDkuODU2QzIwOS45MDQgMTU3LjIyMSAyMDkuOTUyIDE1Ny4yMjggMjEwIDE1Ny4yMzlDMjEwLjA0NyAxNTcuMjQ4IDIxMC4wOTUgMTU3LjI1NiAyMTAuMTQxIDE1Ny4yNjdIMjEwLjE1NkMyMTAuMjAzIDE1Ny4yNzcgMjEwLjI0NSAxNTcuMjg5IDIxMC4yOTQgMTU3LjMwM0MyMTAuNTQ4IDE1Ny4zNzQgMjEwLjc5IDE1Ny40ODQgMjExLjAxMiAxNTcuNjI4QzIxMS4xMjEgMTU3LjY5OSAyMTEuMjIzIDE1Ny43NzkgMjExLjMxNyAxNTcuODY4TDIxMS4zNDQgMTU3Ljg5NEMyMTEuMzYyIDE1Ny45MSAyMTEuMzc5IDE1Ny45MjcgMjExLjM5NSAxNTcuOTQ0TDIxMS40NDQgMTU3Ljk5N0MyMTEuODQ2IDE1OC40MTggMjEyLjE3OCAxNTguOTAxIDIxMi40MjggMTU5LjQyN0wyMTIuNDY2IDE1OS41MTdDMjEyLjU1MSAxNTkuNzE3IDIxMi42MTggMTU5LjkyNCAyMTIuNjY2IDE2MC4xMzVDMjEyLjgwOCAxNjAuNzgxIDIxMi43NTMgMTYxLjQ1NSAyMTIuNTA4IDE2Mi4wN0MyMTIuNDE1IDE2Mi4zMTggMjEyLjMwMiAxNjIuNTU3IDIxMi4xNjkgMTYyLjc4NUMyMTEuODU4IDE2My4zMDkgMjExLjQ4OSAxNjMuNzk2IDIxMS4wNyAxNjQuMjM3TDIxMC45ODEgMTY0LjMzMkMyMTAuODQ4IDE2NC40NzIgMjEwLjcxIDE2NC42MTIgMjEwLjU2NSAxNjQuNzUyQzIxMC41MDEgMTY0LjgxNSAyMTAuNDM0IDE2NC44NzcgMjEwLjM2NyAxNjQuOTRMMjEwLjE2MiAxNjUuMTI5TDIxMC4wNTUgMTY1LjIyNEMyMDkuNzk3IDE2NS40NTQgMjA5LjUzMiAxNjUuNjc3IDIwOS4yNjMgMTY1Ljg5M0MyMDkuMSAxNjYuMDI1IDIwOC45MzYgMTY2LjE1NCAyMDguNzcgMTY2LjI4MUMyMDguMTg0IDE2Ni43MjkgMjA3LjU4NyAxNjcuMTYxIDIwNi45NzkgMTY3LjU3OEMyMDYuNjEyIDE2Ny44MyAyMDYuMjQyIDE2OC4wNzcgMjA1Ljg2OSAxNjguMzIxQzIwNC45NSAxNjguOTI0IDIwNC4wMjEgMTY5LjUxMiAyMDMuMDgzIDE3MC4wODRDMjAxLjExNSAxNzEuMjk0IDE5OC45MzQgMTcyLjU4OCAxOTYuNjA5IDE3My45OTVMMTk2LjAwNyAxNzQuMzZDMTk1LjM0OCAxNzQuNzYyIDE5NC43MjYgMTc1LjE0NiAxOTQuMTQgMTc1LjUxMkwxOTMuODQ1IDE3NS42OTdMMTkzLjI4NyAxNzYuMDU1QzE5Mi45MTcgMTc2LjI5MiAxOTIuNTQ4IDE3Ni41MzEgMTkyLjE3OSAxNzYuNzdMMTkxLjg4MiAxNzYuOTY2QzE5MS43MzcgMTc3LjA2IDE5MS41OTMgMTc3LjE1NiAxOTEuNDQ5IDE3Ny4yNTJMMTkxLjMwOCAxNzcuMzQyTDE5MC44NzYgMTc3LjYzM0wxOTAuNjQ3IDE3Ny43OUwxOTAuMzc5IDE3Ny45NzZMMTkwLjEzIDE3OC4xNDlDMTg5LjcxMyAxNzguNDQ0IDE4OS4zMjUgMTc4LjcyNSAxODguOTY4IDE3OC45OTJMMTg4LjgzNCAxNzkuMDk0QzE4OC42MjQgMTc5LjI1MyAxODguNDE2IDE3OS40MTUgMTg4LjIxMSAxNzkuNThDMTg3LjkwMiAxNzkuODI5IDE4Ny42MiAxODAuMDY3IDE4Ny4zNjcgMTgwLjI5NkwxODcuMjQzIDE4MC40MDlDMTg3LjE3MiAxODAuNDc0IDE4Ny4xMDIgMTgwLjUzOSAxODcuMDM1IDE4MC42MDNDMTg2Ljk4OSAxODAuNjQ4IDE4Ni45NDYgMTgwLjY5MyAxODYuODk4IDE4MC43MzZMMTg2LjgzNCAxODAuOEMxODYuNjkxIDE4MC45NDQgMTg2LjU1MSAxODEuMDkxIDE4Ni40MTYgMTgxLjI0MkwxODYuMzUgMTgxLjMxOEMxODYuMjAzIDE4MS40ODggMTg2LjA3NSAxODEuNjUxIDE4NS45NjMgMTgxLjgxTDE4NS45MTMgMTgxLjg4MUMxODUuODI1IDE4Mi4wMDkgMTg1Ljc0NCAxODIuMTQxIDE4NS42NzEgMTgyLjI3N0MxODUuNjUyIDE4Mi4zMTEgMTg1LjYzNSAxODIuMzQ1IDE4NS42MTggMTgyLjM3OUwxODUuNTY5IDE4Mi40ODFMMTg1LjUzNiAxODIuNTU1TDE4NS41MTUgMTgyLjYwNUwxODUuNDk4IDE4Mi42NUwxODUuNDc1IDE4Mi43MTFDMTg1LjQxMyAxODIuODggMTg1LjM3IDE4My4wNTYgMTg1LjM0NSAxODMuMjM0TDE4NS4zMzcgMTgzLjI5NkwxODUuMzMxIDE4My4zNTRWMTgzLjY2OUMxODUuMzMxIDE4My42OTUgMTg1LjMzMSAxODMuNzIxIDE4NS4zMzggMTgzLjc0OUwxODUuMzQzIDE4My43OTdDMTg1LjM0MyAxODMuODIzIDE4NS4zNDkgMTgzLjg0OCAxODUuMzUzIDE4My44NzZDMTg1LjM1NyAxODMuOTAyIDE4NS4zNjQgMTgzLjk0OSAxODUuMzcyIDE4My45ODZWMTgzLjk5MUMxODUuMzc5IDE4NC4wMjYgMTg1LjM4NiAxODQuMDYgMTg1LjM5NSAxODQuMDk1QzE4NS40MDQgMTg0LjEzIDE4NS40MTMgMTg0LjE3IDE4NS40MjQgMTg0LjIwNkMxODUuNDQzIDE4NC4yNzcgMTg1LjQ2NyAxODQuMzQ3IDE4NS40OTIgMTg0LjQxN0MxODUuNTA4IDE4NC40NTkgMTg1LjUyMyAxODQuNSAxODUuNTQgMTg0LjU0MUMxODUuNTQgMTg0LjU0OSAxODUuNTQ2IDE4NC41NTggMTg1LjU1IDE4NC41NjZMMTg1LjU4NiAxODQuNjQ3TDE4NS42MzYgMTg0Ljc1OEMxODUuNjkgMTg0Ljg3MyAxODUuNzQ5IDE4NC45ODUgMTg1LjgxMyAxODUuMDk0TDE4NS44NzkgMTg1LjIwOEwxODUuOTQ3IDE4NS4zMjJDMTg1Ljk1OSAxODUuMzQxIDE4NS45NzMgMTg1LjM1OSAxODUuOTg4IDE4NS4zNzZMMTg2LjAxIDE4NS4zOTlMMTg2LjAzNSAxODUuNDIyTDE4Ni4wNjEgMTg1LjQ0MkMxODYuMDk5IDE4NS40NjkgMTg2LjE0IDE4NS40OSAxODYuMTgzIDE4NS41MDVDMTg2LjIwNiAxODUuNTEzIDE4Ni4yMyAxODUuNTE5IDE4Ni4yNTQgMTg1LjUyNUMxODYuODMxIDE4NS42NTUgMTg4LjAxNyAxODUuMTc4IDE4OS41OTMgMTg0LjM0NkMxODkuNjgyIDE4NC4yOTggMTg5Ljc4IDE4NC4yNDggMTg5Ljg3NSAxODQuMTk2TDE5MC4zNTUgMTgzLjkzNEwxOTAuNTg5IDE4My44MDRDMTkwLjc1NiAxODMuNzE1IDE5MC45MjYgMTgzLjYxNCAxOTEuMSAxODMuNTE1TDE5MS40MTcgMTgzLjMzNkMxOTMuNSAxODIuMTM3IDE5NS45ODggMTgwLjU5NyAxOTguNTYgMTc5LjA5M0MxOTguODAxIDE3OC45NTIgMTk5LjA0MyAxNzguODExIDE5OS4yODUgMTc4LjY3MkwxOTkuNzcxIDE3OC4zNjFDMjAwLjMzNSAxNzguMDM4IDIwMC45MDIgMTc3LjcxOSAyMDEuNDcxIDE3Ny40MDRDMjAyLjE4OCAxNzcuMDEgMjAyLjkxIDE3Ni42MjYgMjAzLjYzOSAxNzYuMjU0TDIwNC4xMTUgMTc2LjAxM0MyMDQuNDMxIDE3NS44NTcgMjA0Ljc0NCAxNzUuNzA1IDIwNS4wNTMgMTc1LjU1N0MyMDUuNjUxIDE3NS4yNzMgMjA2LjI1NiAxNzUuMDAzIDIwNi44NjggMTc0Ljc0OEwyMDcuMjAzIDE3NC42MTJMMjA3LjI0MyAxNzQuNTk2QzIwOS4wMTggMTczLjg5MyAyMTAuNjI3IDE3My40NTkgMjExLjkyOSAxNzMuNDU5QzIxMi4yMSAxNzMuNDU2IDIxMi40OTIgMTczLjQ4IDIxMi43NjkgMTczLjUyOEgyMTIuNzc4QzIxMi44NjcgMTczLjU0NCAyMTIuOTQ4IDE3My41NjIgMjEzLjAzMSAxNzMuNTgySDIxMy4wNDZDMjEzLjI1OSAxNzMuNjM2IDIxMy40NjYgMTczLjcxMyAyMTMuNjYyIDE3My44MTJDMjEzLjkzNyAxNzMuOTU0IDIxNC4xODQgMTc0LjE0MyAyMTQuMzkzIDE3NC4zNzFDMjE0LjQ4OSAxNzQuNDc3IDIxNC41NzQgMTc0LjU5MiAyMTQuNjQ5IDE3NC43MTRDMjE0Ljc4OSAxNzQuOTI5IDIxNC44OTkgMTc1LjE2MiAyMTQuOTc4IDE3NS40MDZDMjE1LjAxIDE3NS41MDEgMjE1LjAzOCAxNzUuNTk0IDIxNS4wNjcgMTc1LjY5M0MyMTUuMjc4IDE3Ni40NSAyMTUuMjU3IDE3Ny4yNTMgMjE1LjAwNyAxNzcuOTk4WiIvPiYjeGE7PHBhdGggZmlsbD0iI0ZGRDIxRSIgZD0iTTIwMy4yMSAxMjMuNjg1VjEyMy4xOTRDMjAzLjIxIDgxLjM0IDE2OS4yOTIgNDcuNDExIDEyNy40MzUgNDcuNDExQzg1LjU3OTEgNDcuNDExIDUxLjY0OCA4MS4zNDIgNTEuNjQ4IDEyMy4xOTRWMTIzLjM1OEM1MS42NDYgMTIzLjQ2NyA1MS42NDUgMTIzLjU3NiA1MS42NDggMTIzLjY4NUM1MS42NTI5IDEyMy44NDggNTEuNjU0NiAxMjQuMDExIDUxLjY1MyAxMjQuMTc0TDUxLjY1ODEgMTI0LjUzNEw1MS42NjEgMTI0LjY2M0M1MS42NjEgMTI0LjcyMyA1MS42NjMxIDEyNC43ODIgNTEuNjY1MSAxMjQuODQyQzUxLjY2ODEgMTI0LjkzNyA1MS42NyAxMjUuMDMzIDUxLjY3IDEyNS4xMjhMNTEuNjgxIDEyNS41MTdMNTEuNjk3IDEyNS45NzRMNTEuNzAyIDEyNi4xMjRMNTEuNzIyIDEyNi41OTdWMTI2LjYyQzUxLjczIDEyNi44MDUgNTEuNzQwMSAxMjYuOTg5IDUxLjc0OTEgMTI3LjE3M0w1MS43NSAxMjcuMTg3QzUxLjc2IDEyNy4zNzUgNTEuNzcwMSAxMjcuNTY0IDUxLjc4MjEgMTI3Ljc1M0M1MS43OTIxIDEyNy45MjcgNTEuODAyIDEyOC4xMDEgNTEuODE1IDEyOC4yNzVMNTEuODE3MSAxMjguMzA2QzUxLjgyNTggMTI4LjQ1NSA1MS44MzU4IDEyOC42MDUgNTEuODQ3IDEyOC43NTRMNTEuODUgMTI4Ljc5NEw1MS44ODMgMTI5LjIyNkw1MS44ODYxIDEyOS4yNTRDNTEuODkyMSAxMjkuMzM4IDUxLjg5OCAxMjkuNDIyIDUxLjkwNiAxMjkuNTAzQzUxLjk2NTggMTMwLjIyNCA1Mi4wMzU1IDEzMC45NDUgNTIuMTE1MSAxMzEuNjY0TDUyLjEyIDEzMS43MDlMNTIuMTgxIDEzMi4yMzhMNTIuMjQ5MSAxMzIuNzkzTDUyLjI5OSAxMzMuMTdMNTIuMzIyIDEzMy4zNDdDNTIuMzc1MyAxMzMuNzU1IDUyLjQzMyAxMzQuMTYyIDUyLjQ5NSAxMzQuNTY4TDUyLjQ5OTEgMTM0LjU5NUw1Mi41NTggMTM0Ljk3OUM1Mi44NDM1IDEzNi44MDggNTMuMTk3MSAxMzguNjI2IDUzLjYxOCAxNDAuNDI5TDUzLjYyMzEgMTQwLjQ1MUw1My42NTUgMTQwLjU4Nkw1My43NDYgMTQwLjk3MUw1My44MDIgMTQwLjkwNEM1Ni4wMDIgMTM4LjI3NCA1OS4xNTggMTM2LjgyNCA2Mi42ODkgMTM2LjgyNEM2NS41MTkgMTM2LjgyNCA2OC40MjIxIDEzNy43NiA3MS4zMzIxIDEzOS42MDVDNzMuMjYyMSAxNDAuODMxIDc1LjM5NjEgMTQzLjAwMiA3Ny41OTIxIDE0NS43MzNDNzkuNjI0MSAxNDIuOTExIDgyLjQ3MjEgMTQxLjAzNSA4NS43MzAxIDE0MC41MjNDODYuMzUxMyAxNDAuNDI1IDg2Ljk3OTIgMTQwLjM3NiA4Ny42MDgxIDE0MC4zNzVDOTUuMDQ0MSAxNDAuMzc1IDk5LjUyMyAxNDYuODI4IDEwMS4yMTUgMTUyLjYzM0MxMDIuMDUxIDE1NC41OTQgMTA2LjA4IDE2My41MjYgMTEyLjE1NiAxNjkuNTY4QzEyMS4zOTIgMTc4Ljc5NSAxMjMuNzAzIDE4OC4zMTYgMTE5LjEzMiAxOTguNTExSDExOS4xNDhDMTE5LjQ1OSAxOTguNTQ2IDExOS43NzIgMTk4LjU3OCAxMjAuMDg3IDE5OC42MDdDMTIwLjI3NCAxOTguNjI1IDEyMC40NiAxOTguNjQzIDEyMC42NDggMTk4LjY1OUwxMjAuNzE0IDE5OC42NjVMMTIxLjEyNyAxOTguN0wxMjEuNTA3IDE5OC43M0MxMjEuODY5IDE5OC43NTggMTIyLjIzMiAxOTguNzg0IDEyMi41OTYgMTk4LjgwN0wxMjIuODg1IDE5OC44MjRMMTIzLjExNCAxOTguODM4TDEyMy4yNTYgMTk4Ljg0NkwxMjMuNzAzIDE5OC44NjlMMTIzLjgyNSAxOTguODc0TDEyNC4yOTQgMTk4Ljg5NUwxMjQuODE2IDE5OC45MTVMMTI1LjIzNSAxOTguOTI3TDEyNS4zMDUgMTk4LjkyOUMxMjUuMzk0IDE5OC45MzMgMTI1LjQ4MyAxOTguOTM2IDEyNS41NzIgMTk4LjkzNkwxMjUuNjY4IDE5OC45MzlDMTI2LjI1OCAxOTguOTUzIDEyNi44NDcgMTk4Ljk2IDEyNy40MzcgMTk4Ljk1OUgxMjguMDYzTDEyOC41MSAxOTguOTU0QzEyOC42MiAxOTguOTQ5IDEyOC43MjkgMTk4Ljk0OSAxMjguODQgMTk4Ljk0OUgxMjkuMDE0TDEyOS4xNjUgMTk4Ljk0NUMxMjkuMjI0IDE5OC45NDMgMTI5LjI4MyAxOTguOTQxIDEyOS4zNDMgMTk4Ljk0MUgxMjkuNTIyTDEyOS44NzMgMTk4LjkzMkwxMzAuNDAxIDE5OC45MTRMMTMwLjk4MiAxOTguODg4QzEzMS4xNSAxOTguODgyIDEzMS4zMTYgMTk4Ljg3MyAxMzEuNDgyIDE5OC44NjVMMTMxLjY2MSAxOTguODU0TDEzMS45MjcgMTk4Ljg0TDEzMi4wODMgMTk4LjgzMUwxMzIuMjAxIDE5OC44MjNMMTMyLjczOCAxOTguNzg4TDEzMy4yNzQgMTk4Ljc0OUwxMzMuNzYxIDE5OC43MUwxMzQuMTAzIDE5OC42ODFMMTM0LjQ3OSAxOTguNjQ3QzEzNS4xMDcgMTk4LjU5MSAxMzUuNzMzIDE5OC41MjUgMTM2LjM1OSAxOTguNDVMMTM2Ljc4NiAxOTguMzk5QzEzMi4yODcgMTg4LjI0NyAxMzQuNjE2IDE3OC43NjcgMTQzLjgxMyAxNjkuNTc3QzE0OS44NzYgMTYzLjUxOSAxNTMuOTA1IDE1NC41ODcgMTU0Ljc0NSAxNTIuNjI1QzE1Ni40MzggMTQ2LjgyMSAxNjAuOTE0IDE0MC4zNjggMTY4LjM1MiAxNDAuMzY4QzE2OC45ODEgMTQwLjM2OCAxNjkuNjEgMTQwLjQxOCAxNzAuMjMxIDE0MC41MTZDMTczLjQ4NiAxNDEuMDI4IDE3Ni4zMzQgMTQyLjkwNCAxNzguMzY5IDE0NS43MjZDMTgwLjU2NiAxNDIuOTk2IDE4Mi42OTkgMTQwLjgyMyAxODQuNjMgMTM5LjU5N0MxODcuNTM5IDEzNy43NTMgMTkwLjQ0NSAxMzYuODE3IDE5My4yNzIgMTM2LjgxN0MxOTYuMzg4IDEzNi44MTcgMTk5LjIxMiAxMzcuOTQ3IDIwMS4zNDUgMTQwLjAyQzIwMS4zODQgMTM5Ljg1MSAyMDEuNDIyIDEzOS42ODIgMjAxLjQ1OSAxMzkuNTEyTDIwMS41NjggMTM5LjAwNkMyMDEuNjA3IDEzOC44MjEgMjAxLjY0NiAxMzguNjM2IDIwMS42ODMgMTM4LjQ1MUMyMDEuNzQ5IDEzOC4xMjQgMjAxLjgxNSAxMzcuNzk3IDIwMS44NzggMTM3LjQ2N0MyMDEuOTQ0IDEzNy4xMjUgMjAyLjAwNyAxMzYuNzgxIDIwMi4wNjcgMTM2LjQzN0wyMDIuMDk4IDEzNi4yNTFDMjAyLjExNyAxMzYuMTQxIDIwMi4xMzUgMTM2LjAzMSAyMDIuMTU2IDEzNS45MkMyMDIuMTkgMTM1Ljc0OCAyMDIuMjE4IDEzNS41NzYgMjAyLjI0NiAxMzUuNDAyTDIwMi4yNTcgMTM1LjMzNkwyMDIuMzI4IDEzNC44ODNMMjAyLjM5OCAxMzQuNDI0VjEzNC40MkMyMDIuNDQ5IDEzNC4wODEgMjAyLjQ5NyAxMzMuNzQyIDIwMi41NDIgMTMzLjQwM0wyMDIuNTUzIDEzMy4zMTlMMjAyLjYxNiAxMzIuODQxTDIwMi42NjcgMTMyLjQzM0wyMDIuNzU3IDEzMS42MjlMMjAyLjc5MiAxMzEuMzA2TDIwMi44MDEgMTMxLjIxOEMyMDIuODIgMTMxLjA0NCAyMDIuODM4IDEzMC44NyAyMDIuODU0IDEzMC42OTZWMTMwLjY4MkMyMDIuODY3IDEzMC41NDQgMjAyLjg4MSAxMzAuNDA1IDIwMi44OTMgMTMwLjI2NkMyMDIuOTY0IDEyOS40NzggMjAzLjAyNCAxMjguNjg2IDIwMy4wNzIgMTI3Ljg5MUMyMDMuMDgxIDEyNy43NjEgMjAzLjA4OCAxMjcuNjMgMjAzLjA5NiAxMjcuNDk5VjEyNy40OTNMMjAzLjEyMiAxMjcuMDAyTDIwMy4xMjggMTI2Ljg5MkMyMDMuMTQ0IDEyNi41NiAyMDMuMTU4IDEyNi4yMjggMjAzLjE2OSAxMjUuODk2VjEyNS44ODRMMjAzLjE3NCAxMjUuNzU0QzIwMy4xNzkgMTI1LjY0NSAyMDMuMTgzIDEyNS41MzUgMjAzLjE4MyAxMjUuNDI1TDIwMy4xODUgMTI1LjM4MUMyMDMuMTg5IDEyNS4yNzggMjAzLjE5MyAxMjUuMTcyIDIwMy4xOTMgMTI1LjA2N0wyMDMuMTk2IDEyNC45NzdDMjAzLjE5OSAxMjQuODcyIDIwMy4yMDIgMTI0Ljc2OCAyMDMuMjAyIDEyNC42NjNMMjAzLjIwNCAxMjQuNTc0QzIwMy4yMDcgMTI0LjQ0MSAyMDMuMjEgMTI0LjMwNyAyMDMuMjEgMTI0LjE3NFYxMjMuNjg1Wk0xMDguNjM4IDE5OS4zOTFDMTE0LjY0IDE5MC41OSAxMTQuMjE0IDE4My45ODQgMTA1Ljk4IDE3NS43NTRDOTcuNzQ0MSAxNjcuNTIzIDkyLjk1MSAxNTUuNDg3IDkyLjk1MSAxNTUuNDg3QzkyLjk1MSAxNTUuNDg3IDkxLjE2MjEgMTQ4LjQ5NiA4Ny4wODIxIDE0OS4xMzhDODMuMDAyMSAxNDkuNzggODAuMDA5MSAxNjAuMjI3IDg4LjU1MjEgMTY2LjYyMkM5Ny4wOTQxIDE3My4wMTcgODYuODUyMSAxNzcuMzUzIDgzLjU2NDEgMTcxLjM1MkM4MC4yNzYxIDE2NS4zNSA3MS4yOTkgMTQ5LjkyMyA2Ni42NDUgMTQ2Ljk3MkM2MS45OTEgMTQ0LjAyMSA1OC43MTggMTQ1LjY3NSA1OS44MTUgMTUxLjc1N0M2MC4zNiAxNTQuNzc2IDY1LjQyODEgMTU5LjkyOSA3MC4xNjMxIDE2NC43NDNDNzQuOTY3MSAxNjkuNjI3IDc5LjQyOCAxNzQuMTYzIDc4LjQ3NCAxNzUuNzY4Qzc2LjU4MSAxNzguOTU1IDY5LjkxNDEgMTcyLjAyMyA2OS45MTQxIDE3Mi4wMjNDNjkuOTE0MSAxNzIuMDIzIDQ5LjAzOCAxNTMuMDI1IDQ0LjQ5NCAxNTcuOTc2QzQwLjMwNCAxNjIuNTM5IDQ2Ljc2NSAxNjYuNDE4IDU2LjcyMTEgMTcyLjM5N0M1Ny41NjcxIDE3Mi45MDUgNTguNDM5MSAxNzMuNDI5IDU5LjMzMjEgMTczLjk2OUM3MC43MjMxIDE4MC44NjUgNzEuNjA5IDE4Mi42ODQgNjkuOTkyIDE4NS4yOTNDNjkuMzk1IDE4Ni4yNTcgNjUuNTgyIDE4My45NjggNjAuODkyIDE4MS4xNTNDNTIuODk3IDE3Ni4zNTIgNDIuMzU1MSAxNzAuMDIzIDQwLjg2NjEgMTc1LjY4OEMzOS41NzgxIDE4MC41OTEgNDcuMzM0IDE4My41OTUgNTQuMzY4IDE4Ni4zMkM2MC4yMjggMTg4LjU5IDY1LjU4ODEgMTkwLjY2NiA2NC43OTkxIDE5My40ODRDNjMuOTgyMSAxOTYuNDA2IDU5LjU1MzEgMTkzLjk2OSA1NC43MTIxIDE5MS4zMDVDNDkuMjc3MSAxODguMzE0IDQzLjMyMjEgMTg1LjAzOCA0MS4zNzMxIDE4OC43MzVDMzcuNjkwMSAxOTUuNzI1IDY2Ljc4MzEgMjAzLjk1NCA2Ny4wMjMxIDIwNC4wMTVDNzYuNDIzMSAyMDYuNDUzIDEwMC4yOTUgMjExLjYxOSAxMDguNjM4IDE5OS4zOTFaTTE0Ny4zMDMgMTk5LjM5MUMxNDEuMzAxIDE5MC41OSAxNDEuNzI3IDE4My45ODQgMTQ5Ljk2MiAxNzUuNzU0QzE1OC4xOTcgMTY3LjUyMyAxNjIuOTkgMTU1LjQ4NyAxNjIuOTkgMTU1LjQ4N0MxNjIuOTkgMTU1LjQ4NyAxNjQuNzc5IDE0OC40OTYgMTY4Ljg1OSAxNDkuMTM4QzE3Mi45MzkgMTQ5Ljc4IDE3NS45MzIgMTYwLjIyNyAxNjcuMzkgMTY2LjYyMkMxNTguODQ3IDE3My4wMTcgMTY5LjA4OSAxNzcuMzUzIDE3Mi4zNzcgMTcxLjM1MkMxNzUuNjY2IDE2NS4zNSAxODQuNjM3IDE0OS45MjMgMTg5LjI5MSAxNDYuOTcyQzE5My45NDUgMTQ0LjAyMSAxOTcuMjIgMTQ1LjY3NSAxOTYuMTIyIDE1MS43NTdDMTk1LjU3OCAxNTQuNzc2IDE5MC41MDkgMTU5LjkyOSAxODUuNzc0IDE2NC43NDRDMTgwLjk3IDE2OS42MjggMTc2LjUwOSAxNzQuMTYzIDE3Ny40NjIgMTc1Ljc2OEMxNzkuMzU1IDE3OC45NTUgMTg2LjAyNyAxNzIuMDE5IDE4Ni4wMjcgMTcyLjAxOUMxODYuMDI3IDE3Mi4wMTkgMjA2LjkwMiAxNTMuMDIyIDIxMS40NDggMTU3Ljk3M0MyMTUuNjM3IDE2Mi41MzUgMjA5LjE3NiAxNjYuNDE1IDE5OS4yMTkgMTcyLjM5NEMxOTguMzQ4IDE3Mi45MTcgMTk3LjQ3OCAxNzMuNDQxIDE5Ni42MDkgMTczLjk2NkMxODUuMjE4IDE4MC44NjIgMTg0LjMzMiAxODIuNjgxIDE4NS45NDggMTg1LjI4OUMxODYuNTQ2IDE4Ni4yNTQgMTkwLjM1OSAxODMuOTY0IDE5NS4wNDggMTgxLjE0OUMyMDMuMDQ0IDE3Ni4zNDkgMjEzLjU4NiAxNzAuMDE5IDIxNS4wNzUgMTc1LjY4NUMyMTYuMzY0IDE4MC41ODggMjA4LjYwNyAxODMuNTkyIDIwMS41NzMgMTg2LjMxN0MxOTUuNzEzIDE4OC41ODcgMTkwLjM1MyAxOTAuNjYzIDE5MS4xNDEgMTkzLjQ4MUMxOTEuOTU3IDE5Ni40MDIgMTk2LjM4NSAxOTMuOTY1IDIwMS4yMjUgMTkxLjMwMUMyMDYuNjYgMTg4LjMxIDIxMi42MTYgMTg1LjAzMiAyMTQuNTY0IDE4OC43MzJDMjE4LjI0OCAxOTUuNzI2IDE4OS4xNSAyMDMuOTQ3IDE4OC45MTUgMjA0LjAwN0MxNzkuNTE1IDIwNi40NTMgMTU1LjY0MyAyMTEuNjE5IDE0Ny4zMDMgMTk5LjM5MVoiIGNsaXAtcnVsZT0iZXZlbm9kZCIgZmlsbC1ydWxlPSJldmVub2RkIi8+JiN4YTs8cGF0aCBmaWxsPSIjMzIzNDNEIiBkPSJNMTUyLjA0NyAxMDIuNTY3QzE1My4yMjkgMTAyLjk4NSAxNTQuMTA4IDEwNC4yNTcgMTU0Ljk0NCAxMDUuNDY4QzE1Ni4wNzQgMTA3LjEwNCAxNTcuMTI2IDEwOC42MjcgMTU4Ljc0IDEwNy43NjlDMTYwLjY0NCAxMDYuNzU2IDE2Mi4yMDUgMTA1LjIwMiAxNjMuMjI1IDEwMy4zMDJDMTY0LjI0NiAxMDEuNDAyIDE2NC42ODEgOTkuMjQyNyAxNjQuNDc1IDk3LjA5NkMxNjQuMzIxIDk1LjQ5MDggMTYzLjgxMyA5My45Mzk4IDE2Mi45ODcgOTIuNTU0OEMxNjIuMTYxIDkxLjE2OTcgMTYxLjAzOCA4OS45ODUgMTU5LjcgODkuMDg2MkMxNTguMzYxIDg4LjE4NzQgMTU2LjgzOSA4Ny41OTY4IDE1NS4yNDUgODcuMzU2OUMxNTMuNjUgODcuMTE3IDE1Mi4wMjIgODcuMjMzOSAxNTAuNDc4IDg3LjY5OUMxNDguOTM0IDg4LjE2MzkgMTQ3LjUxMyA4OC45NjUzIDE0Ni4zMTYgOTAuMDQ1NUMxNDUuMTE5IDkxLjEyNTcgMTQ0LjE3NiA5Mi40NTc4IDE0My41NTYgOTMuOTQ2QzE0Mi45MzYgOTUuNDM0MiAxNDIuNjUzIDk3LjA0MTUgMTQyLjcyOCA5OC42NTJDMTQyLjgwNCAxMDAuMjYzIDE0My4yMzUgMTAxLjgzNiAxNDMuOTkyIDEwMy4yNkMxNDQuNzQgMTA0LjY2NyAxNDYuNCAxMDQuMDAzIDE0OC4xNTIgMTAzLjMwMkMxNDkuNTI1IDEwMi43NTMgMTUwLjk1NiAxMDIuMTgxIDE1Mi4wNDcgMTAyLjU2N1pNMTAwLjY3MiAxMDIuNTY3Qzk5LjQ5IDEwMi45ODUgOTguNjExIDEwNC4yNTggOTcuNzc1IDEwNS40NjhDOTYuNjQ1IDEwNy4xMDUgOTUuNTkyIDEwOC42MjcgOTMuOTc5IDEwNy43NjlDOTEuNTg0NSAxMDYuNTAxIDg5Ljc0ODIgMTA0LjM4NiA4OC44Mjc4IDEwMS44MzhDODcuOTA3NSA5OS4yODk1IDg3Ljk2OTIgOTYuNDg5NiA4OS4wMDA4IDkzLjk4NDFDOTAuMDMyNCA5MS40Nzg2IDkxLjk2MDEgODkuNDQ3MSA5NC40MDggODguMjg1NUM5Ni44NTYgODcuMTIzOSA5OS42NDg4IDg2LjkxNTYgMTAyLjI0MiA4Ny43MDFDMTA0LjMwNyA4OC4zMjI4IDEwNi4xNDEgODkuNTQyNyAxMDcuNTEzIDkxLjIwNjVDMTA4Ljg4NSA5Mi44NzA0IDEwOS43MzIgOTQuOTAzNSAxMDkuOTQ5IDk3LjA0OUMxMTAuMTY1IDk5LjE5NDUgMTA5Ljc0IDEwMS4zNTYgMTA4LjcyOCAxMDMuMjZDMTA3Ljk3OSAxMDQuNjY3IDEwNi4zMTkgMTA0LjAwMyAxMDQuNTY3IDEwMy4zMDNDMTAzLjE5MyAxMDIuNzUzIDEwMS43NjQgMTAyLjE4MSAxMDAuNjcyIDEwMi41NjdaTTE0NC4wOTkgMTQ5LjMxOEMxNTIuMjQyIDE0Mi45MDMgMTU1LjIzMyAxMzIuNDI5IDE1NS4yMzMgMTI1Ljk3N0MxNTUuMjMzIDEyMC44NzcgMTUxLjgwMiAxMjIuNDgyIDE0Ni4zMDkgMTI1LjIwMkwxNDUuOTk5IDEyNS4zNTVDMTQwLjk1NyAxMjcuODUyIDEzNC4yNDUgMTMxLjE3NyAxMjYuODc3IDEzMS4xNzdDMTE5LjUwOCAxMzEuMTc3IDExMi43OTYgMTI3Ljg1MiAxMDcuNzU1IDEyNS4zNTRDMTAyLjA4NCAxMjIuNTQ1IDk4LjUyNyAxMjAuNzgzIDk4LjUyNyAxMjUuOTc4Qzk4LjUyNyAxMzIuNjM0IDEwMS43MDkgMTQzLjU2MyAxMTAuNDQzIDE0OS45MTJDMTExLjU5NiAxNDcuNTczIDExMy4yMTkgMTQ1LjQ5NyAxMTUuMjExIDE0My44MTNDMTE3LjIwMiAxNDIuMTI5IDExOS41MiAxNDAuODc0IDEyMi4wMTggMTQwLjEyNkMxMjIuODkgMTM5Ljg2NiAxMjMuNzg4IDE0MS4zNjcgMTI0LjcwNyAxNDIuOTA0QzEyNS41OTQgMTQ0LjM4NiAxMjYuNTAxIDE0NS45MDIgMTI3LjQyMyAxNDUuOTAyQzEyOC40MDYgMTQ1LjkwMiAxMjkuMzcxIDE0NC40MDggMTMwLjMxNCAxNDIuOTVDMTMxLjI5OSAxNDEuNDI1IDEzMi4yNiAxMzkuOTQgMTMzLjE4OSAxNDAuMjM3QzEzNy44NjQgMTQxLjczOCAxNDEuNzc1IDE0NC45OTMgMTQ0LjA5OSAxNDkuMzE4WiIgY2xpcC1ydWxlPSJldmVub2RkIiBmaWxsLXJ1bGU9ImV2ZW5vZGQiLz4mI3hhOzxwYXRoIGZpbGw9IiNGRjMyM0QiIGQ9Ik0xNDQuMDk3IDE0OS4zMTdDMTM5Ljg1NiAxNTIuNjU5IDEzNC4yMTkgMTU0LjkgMTI2Ljg3OCAxNTQuOUMxMTkuOTgxIDE1NC45IDExNC41ODcgMTUyLjkyMiAxMTAuNDQzIDE0OS45MTFDMTExLjU5NiAxNDcuNTcyIDExMy4yMTkgMTQ1LjQ5NSAxMTUuMjExIDE0My44MTJDMTE3LjIwMiAxNDIuMTI4IDExOS41MiAxNDAuODczIDEyMi4wMTggMTQwLjEyNUMxMjMuNzMgMTM5LjYxNCAxMjUuNTQ1IDE0NS45MDEgMTI3LjQyMyAxNDUuOTAxQzEyOS40MzMgMTQ1LjkwMSAxMzEuMzcgMTM5LjY1NSAxMzMuMTg5IDE0MC4yMzZDMTM3Ljg2MyAxNDEuNzM4IDE0MS43NzMgMTQ0Ljk5MyAxNDQuMDk3IDE0OS4zMTdaIi8+JiN4YTs8cGF0aCBmaWxsPSIjRkZBRDAzIiBkPSJNODEuMiAxMTEuNjRDODAuMjMxMiAxMTIuMjg4IDc5LjExNzMgMTEyLjY4NyA3Ny45NTcyIDExMi44MDFDNzYuNzk3MSAxMTIuOTE2IDc1LjYyNjcgMTEyLjc0MiA3NC41NSAxMTIuMjk1QzczLjY4OTMgMTExLjk0IDcyLjkwNzIgMTExLjQxOCA3Mi4yNDg4IDExMC43NTlDNzEuNTkwMyAxMTAuMTAxIDcxLjA2ODQgMTA5LjMxOSA3MC43MTMgMTA4LjQ1OEM3MC4yNjcgMTA3LjM4MSA3MC4wOTM1IDEwNi4yMTEgNzAuMjA4MiAxMDUuMDUxQzcwLjMyMjggMTAzLjg5MSA3MC43MjE5IDEwMi43NzcgNzEuMzcgMTAxLjgwOEM3Mi4xNDg4IDEwMC42NDIgNzMuMjU1OCA5OS43MzMzIDc0LjU1MTIgOTkuMTk2N0M3NS44NDY2IDk4LjY2MDEgNzcuMjcyIDk4LjUxOTcgNzguNjQ3MSA5OC43OTM1QzgwLjAyMjMgOTkuMDY3MiA4MS4yODUzIDk5Ljc0MjcgODIuMjc2NCAxMDAuNzM0QzgzLjI2NzUgMTAxLjcyNiA4My45NDIyIDEwMi45OSA4NC4yMTUgMTA0LjM2NUM4NC40ODgzIDEwNS43NCA4NC4zNDc3IDEwNy4xNjUgODMuODExMyAxMDguNDZDODMuMjc0OCAxMDkuNzU1IDgyLjM2NTQgMTEwLjg2MSA4MS4yIDExMS42NFpNMTgyLjYxMyAxMTEuNjRDMTgxLjY0NCAxMTIuMjg4IDE4MC41MyAxMTIuNjg3IDE3OS4zNyAxMTIuODAxQzE3OC4yMDkgMTEyLjkxNiAxNzcuMDM5IDExMi43NDIgMTc1Ljk2MiAxMTIuMjk1QzE3NS4xMDEgMTExLjkzOSAxNzQuMzE5IDExMS40MTggMTczLjY2MSAxMTAuNzU5QzE3My4wMDMgMTEwLjEwMSAxNzIuNDgxIDEwOS4zMTkgMTcyLjEyNSAxMDguNDU4QzE3MS42OCAxMDcuMzgxIDE3MS41MDcgMTA2LjIxMSAxNzEuNjIxIDEwNS4wNTFDMTcxLjczNiAxMDMuODkxIDE3Mi4xMzUgMTAyLjc3NyAxNzIuNzgyIDEwMS44MDhDMTczLjM2NCAxMDAuOTM2IDE3NC4xMzMgMTAwLjIwNSAxNzUuMDMyIDk5LjY2NThDMTc1LjkzMSA5OS4xMjY5IDE3Ni45MzggOTguNzk0MiAxNzcuOTgxIDk4LjY5MTdDMTc5LjAyNSA5OC41ODkxIDE4MC4wNzggOTguNzE5MyAxODEuMDY0IDk5LjA3MjhDMTgyLjA1MSA5OS40MjY0IDE4Mi45NDcgOTkuOTk0NCAxODMuNjg4IDEwMC43MzZDMTg0LjY4IDEwMS43MjcgMTg1LjM1NSAxMDIuOTkgMTg1LjYyOCAxMDQuMzY1QzE4NS45MDIgMTA1Ljc0IDE4NS43NjEgMTA3LjE2NSAxODUuMjI0IDEwOC40NkMxODQuNjg3IDEwOS43NTUgMTgzLjc3OSAxMTAuODYxIDE4Mi42MTMgMTExLjY0WiIgY2xpcC1ydWxlPSJldmVub2RkIiBmaWxsLXJ1bGU9ImV2ZW5vZGQiLz4mI3hhOzwvc3ZnPg==;" vertex="1" parent="1">
          <mxGeometry x="1430" y="-402.5" width="95" height="84" as="geometry" />
        </mxCell>
        <mxCell id="IJoVcqCJSkyeiCKx4dnM-12" value="spaCy" style="icon;html=1;image=data:image/png,iVBORw0KGgoAAAANSUhEUgAAAgAAAAIACAMAAADDpiTIAAADAFBMVEUAAAAAAAAAAAAAAAAAAAAAAAAAAAAAAAAAAAAAAAAAAAAAAAAAAAAAAAAAAAAAAAAAAAAAAAAAAAAAAAAAAAAAAAAAAAAAAAAAAAAAAAAAAAAAAAAAAAAAAAAAAAAAAAAAAAAAAAAAAAAAAAAAAAAAAAAAAAAAAAAAAAAAAAAAAAAAAAAAAAAAAAAAAAAAAAAAAAAAAAAAAAAAAAAAAAAAAAAAAAAAAAAAAAAAAAAAAAAAAAAAAAAAAAAAAAAAAAAAAAAAAAAAAAAAAAAAAAAAAAAAAAAAAAAAAAAAAAAAAAAAAAAAAAAAAAAAAAAAAAAAAAAAAAAAAAAAAAAAAAAAAAAAAAAAAAAAAAAAAAAAAAAAAAAAAAAAAAAAAAAAAAAAAAAAAAAAAAAAAAAAAAAAAAAAAAAAAAAAAAAAAAAAAAAAAAAAAAAAAAAAAAAAAAAAAAAAAAAAAAAAAAAAAAAAAAAAAAAAAAAAAAAAAAAAAAAAAAAAAAAAAAAAAAAAAAAAAAAAAAAAAAAAAAAAAAAAAAAAAAAAAAAAAAAAAAAAAAAAAAAAAAAAAAAAAAAAAAAAAAAAAAAAAAAAAAAAAAAAAAAAAAAAAAAAAAAAAAAAAAAAAAAAAAAAAAAAAAAAAAAAAAAAAAAAAAAAAAAAAAAAAAAAAAAAAAAAAAAAAAAAAAAAAAAAAAAAAAAAAAAAAAAAAAAAAAAAAAAAAAAAAAAAAAAAAAAAAAAAAAAAAAAAAAAAAAAAAAAAAAAAAAAAAAAAAAAAAAAAAAAAAAAAAAAAAAAAAAAAAAAAAAAAAAAAAAAAAAAAAAAAAAAAAAAAAAAAAAAAAAAAAAAAAAAAAAAAAAAAAAAAAAAAAAAAAAAAAAAAAAAAAAAAAAAAAAAAAAAAAAAAAAAAAAAAAAAAAAAAAAAAAAAAAAAAAAAAAAAAAAAAAAAAAAAAAAAAAAAAAAAAAAAAAAAAAAAAAAAAAAAAAAAAAAAAAAAAAAAAAAAAAAAAAAAAAAAAAAAAAAAAAACzMPSIAAABAHRSTlMAO//+9/37+gn4qvlCDrL0W+oKeRvsm/DzzOJRDSpTDxPEN5z1L7aS05HLFNXmpT/RGhJr3ryQ7ntyF91aubCYVchzKXzF7XEmf6eVX0mEwXTZJ8MfZ5qsjbMkNTldQaLXT846eOGCo79eHdBkb7ePhtRhwohNbFaBMJchNr0eWdx9fhyDesBLoDFqhzjWdcpKpDQtq81IxoBHQK1G33ArYM8VYqluaWPYJYm651JMMzKmEJS1sUQoPp1cmajpdrRYilRFliNtntKOyUPr5VCu8qG45K/jINtlx76T2uiMLoW79hmLaBZOnywYCwjx4O93PQc8IgwEZgIRBgMF/FcB3C9LhwAAGSZJREFUeNrs1j8rhAEcwHF+JdwlMjEZ/OkWMSipG7DcoBjcYmE2mb0AWS3KYr2RLBYGkzIZyGZgujKQq1PXU7wApXNPhufx+byE7/TtAgAAAAAAAAAAAAAAAAAAAAAAAAAAAAAAAAAAAAAAAAAAAAAAAAAAAAAAAAAAAAAAAAAAAAAAAAAAAAAAAAAAAAAAAAAAAAAAAAAAAAAAAAAAAAAAAAAA4G80q43ywurKWeH+aaqwdXGzfNV4aMryL4yd713OFuO7/sN6ZXNYoDx7Odgp9cRPimtHM4lQuTQwdPsc7Ziv77fkypvu+mC073X8VLIcSRaX4rdGP/xATrRqd9GJx0qfeNn3WZ6LTk1fvwuYcbvrkcbxiYRZlrz1RkobVRkza7IU6Y3UhMyo7Yn4Yuc+46Oq0jCAP3kmk4RUAgYCBEMTiYSVKihVXQRXpNgWQXdlV8WyWBfbrlt+uurakLVhAUXsIIqCAlY6BOlVWqQFDSW9Z5j9IJpk5j1n7rl3Jia/3/y/5kvmnWfuPfc97z1BsbUiXMtGqPCPDJb+48PlbHTaPcLgabI0XNBGZvsOBpPnL+GSNiqfbWNwuf4TLmojMq4bg25GuKyNxkPTGXzuIeHCNhIfZzIUIgvCpW0UqmczNL7MCRe3MbiElqSMGvzX5pPKysryl/zx7r60YkO4uI3APxnYDcvnnoc6HmraIpkBhR8GG77hqQwgdXc2JFWvbnBTb2P4JtDQVX1Hvb35FVAaN89FrYxwhRu45tTy7P4YWk9mUqfJ9nCJG7RxkdRZ/SECKcygzg/hGjdonakTexQWLI6jWmR4a7ghm0wNV3MvLHk1iWqHw1VuuLwzqebqBasujaLSd+EyN1wfUGMYrHuHaivCdW6oyldTbSRMTKPSleFCN1T3Um1/OUx4N1PlN+FCN1DeTCptyYGZHilUyAxXuoF6mWprYep0KkRV4ldV/d5Lb99x1Sv7s1q1avXi/gVX3ff4q9vLYU/xjMfmZ329qKwrNNoV7Jw2OPa52bGLMr5/PD4HQZXWdtmI0SM/mRobO3//1tjYLz7f16/XgLXjbNV4IoN62f4NFa6AoGLpkk0LHhvZ5hhs+XFGx98nrrp4YSm0hl/ZolUT+jtw/pmLt8NU9k08JWrTGxAlnPxhB+tK6ZOfjSAofHLl4JuSKXOtG5UxIrsUJioOUKVlLsz1SKXsGvg54zkPf3J8TRqMLcziKeveLlUW7MgP26jz7jlrq2CgVxRrpCyEn/JnNsRRtOWB++FE4dolWXEMaOPWK68w+DxUOhd2XE/ZMvioesLFGq3Hw1BzN2sMTIekYOJxBrZu7I+w6rCLtaVGoC7v+i7UGDqgEvbEDNmQRMvaj4iBNX+iSnIzezHdQ9Fk1FV5G+to2QFGDrOOUVXwVVm2mha5Zr/ghRXvRbKuLQmo7dMpDKD/EC/MPdvxOM3k3ZEOC36kUnPYc4SiP6CuTfSxNwcGipNYVz/UVb3zBE1kLYQF8+lrN2qkLaIFQzvAUPxmF82lzKhEQF+pE5QAm3ZRko061tNPIgzcRh99S1Bb0Z00Neg0BHKFm74ie+JnBb1pifv7UhhoO582nbUCgTxClUtg10du+jtejdqq3qW/T2FZtou+ZqHG0cEumut7rZ25ibdwymg3rXpxO6wqPBRF246fhF56NFX+B9s20d9W1FHgcMdoFf1MxC8uvJP2dKyE1mb6238q0p/QQF48rGk7k0643rbZt2EX2PfQRvo5G3UcoqQDLIpJpZ+n8LNnUmnXqHbQ2Ut/eV4AaJZII01OhxWXJtEZ10roLKLKV3BgBn0N9FtMSTo62cD8FqcsjaN9rdKh1k650Vk4m4Y8ZQhscTSdch2BxgmqtIUDVb7l6JZr6emzZaGDfmMT/GS9h060j4HSClWLqzqRxlzXIpDT3XSu73YodaXKdDjSM5O1zfkQPm6l6BlYUtmS/v51qr2YSmeugtL9in+66k3aELcWeh8lMRjOL4fKMqoshzMV+1lj6BXwdTVFi6Cj/787AwASTtCpb6DyZ0ruxT7a0vJZ6JScYHCMgEo+VdbDqSN3R5Ek3e1Pei3PoV9UDSs+oaBfzZ9knVpNvP3G/EllF5w5+wA1vkyAQgQlJ2fRpj0l0DjEINkWA4UvqJIL59LiB9zz+NyDkJxB2aWwwNuagvEA0MFNWf8nnizHL2Im96Haw2YBuCSOdi2CWttoBssFUNhDhRMItVsdvEDwIQXJ5ZoB9x3XlsJHRBeqJCUYBMCZ06HUgjpR3+0e1ua/xT0qYiqK/3t20ztuakK1PV6IStxUiEWoHaYorxKBPaz8MT3romTqUfirXkOVvzgMwLbN+/LLBpQ9vW9/CvVSekLh4yQqpXb89Ch8lIxoRaV4iF7TdAFCLW0jRXMRkLc/BY8CwHJK9kH2uoeyu50E4Kxhw/EL7zVrvqXOmVAoo0ryPWmQeE8mU2EeRC9p1oAht5yiTQioiILjhQC82ygYWAWFph6KoprZDkDnIvgoefoiqkVfCNk8ytxj06HSoztleaWGc/yvIeSyabcX9Lky4/eLJS6G0rUeioo0ATA/JTt3kC4xkN1AUd6l0Oi5h7JrILmYCu5jCL0XKTqCAAr7UrAUAK6k4GtovOOi5LC9AHSugOxpF5XGQ5JDUev3oJUdTdHFZuvM1qgHIyiaamvwOC8GAMaaT7b9lpI2tgLwQDlUvvFQ5U2DSZ3kyxDA7RTtgmQzFbJQD2L6UnL8GPQGqTuXV8tfptYDFIyzE4DBXqjtpIqnGIKFFET+D4GcFkfJt2bzgFejPpxjawHaNU59Hb3cxj2lah79vAgbAZhdBXt9vQzLg3VvIbBBFB2E4DoqrEJ9uJCiedDqpZleGErBTuhVbaIP1ws2AtC6K7Qqz6JCSiX8FdDffC8Ce52iZRBMp8L7qBejKEmNgc75mvv8dxS0QADlLYSfpHEA5kKga+3qr1G30E/SP6Cjb+6shGCOdiA49AZo26Oy4RRE52hOOkk+hgC8w6JZyyflNgLwewSUQYUvIJhJX/mworQJJd9DkKfdPAi9wm91y2LZjdQMHJ5JST8EdMYu/qx1G8A8AJ7LEFDPjZR1SrNyq3uqEpY8b/2uHkmFe1A/DlGS1AxK3t66a+gk+6cVF63qRjJlwclqqEU4e41yLBUmw19pd5sz089RMl8qposKZagf77koGQKlAgrmlOInL1DU92VYcdqPuV5oRRh0cwS3eCg7B4IV3VjbcwYD04LnpYxR5XXUkz4U6D7rVRQcwinpHoqi/1MNA+YB6A5LNhuNYF+2mjW2vQGLMigZA39eqsxCPRlCSacSKBzL0w+wTqFC5pByOBfhcNHUlDJXLiTHfpvMU24thlUjrU94uH/1A32q95pN5S0N8D7JX6k0ZnRu6AIwHJYkRFPWBrJmE3bPvnPmrt3rrcbX+9rh8ymZA0E0FVaivtxByStQWBBgxZJNDXdWvzNCE4A9sOgmyqYhCKqvGZ14ERXyIEiiwrmoL39zU3AgDaKuUmQ7paPGFOqte/Otj6qCHoDPnZ7JvAEOlSy7b1cnahyAYAsV+qHe3EbJAIjuoWCiMOKglfrI+x+cZi8ATtdM8ZT1hwM5bdZMiWIAkRCspsJY1Jv1lAyCKCvgvFv1u7Sm96Z3is0D4HR+JsFNkeso7PnbzS2uo4Y+AI80gMO9S7dQEJkAwWUUTC/XvDWol/l+UZVZAByfgPYvyj6DsfLsXr8TimcSgFeosAD15z5KFkPwsIVZF+8gmkiZOKTEcQB2GN7xnB/IVxiR/3UeBWYBuJ0K7RF6+vZYIvx5p9Ofezvq6tmaZiIT72rnLACbYdluym6GZQkvjBwVSYF5ACZR4QbUo0QKmnxscUimD3x1SKUpz4OzShwEYBMsu97Z/mvu0oznPRTYC8AEKniqEQy5Bfc2LUpAAI9SMsLiCGNT+PnDAZpLXVXktRuAQ7Bslv1l98HXV+2hwEEAsqlSDMdKy9q7STIytgO0qm6gYL61NnDLGAgJuIh2jBlWYi8A1zs+Qo0PQKsqYuSfXBQ4C8CxKCqshVPju/Bn7hb6wv6bgrgKS6eaD4ZkXCZtSbm4xE4AZsCytZQ9Bo2HprWmU5GQdAlZL3huEmtplQuNHmIO77K0VugAUbPb3bRlzs5y8wC8DcuKSNMhmOKOcWSIAjA1VFOhBXGs46kEaGyg4DbU9UY0/d0JlYizaM/lK4wD8A4s+ztliVCoWBNHhiwAT1NhJhw5+CV9JHqh9hIF0e1Qx0oKRkPJe/Jd2pL0jWkADjvvJQ6CbHI3Guo9xiAABVSIK4QT8+hnKdTK+1t4R3uKFJLzoFE+4W7a4ZrmNfv6JgFONwN+B0n1bhqJe/CCC7HGIACFkVQoCPau6Y5S06fjgajtM1sdy88e7k0bnjALQD4se9Sk+V5xuUlsu2RMSAOgDoDRbsB9cKAzBfFQOy+O/qK6opbvKZiAgLwRy1No7NxQ9QFupmy5VJXutGrP5ydzAMA4ADdSYSjsa+syPnv4zUCjqeUn6G9vNawofXlJJs1EPRmiTuC5lO2Dn/TutOS6FjffglrOMQlAkbIC6bBtCSWXQyM+UJf3bLlqlm1/fH4nGtjRzCAAA53VRj6SpfRBCznNWrP+DfhYbhKAqmQq3AW7qruZnzvlHUN/nhz8oqPzYyyOfbqku8vZwVoRjsc5XqFssXBx1tuytd/aoxAsMgkAfqBCH9jVlKJu0LlA/3gV0zI4L7EfHDF1HS358qj1AHgKYVV3yuL/3959OFdZpXEcf+Z3k5sKKYSW0MuiQXpRUEQEIkVUUEFcKUoRsStrWRFdZ3bWuqtgGcoqoiiwICyM4EpVhEUFRRBpgoHQQgKGJUAqd2cUF8g9533Pee9l5w75ff6CO/f5zjtvPUcqaFQOrbgxT/whR3RaWgWQAY3oNPGotpeNA5tHOa5qcFrbh73ZHw5Lh7sh5gGgqRgqizJ8IaSoNnS2D4kVJ7+zCiC2JjR6iDfHvJ1WvoZg5YfljJUItneheFb4yOtN4KyqRQCnxNALUIvOMzuMAlsPiovaVgFIY2gsjxVPvofaSg/dtJNfHYgJ/2a0qfWmlsNBXKp5AIfE0DaYvVMUaA21+Dxxk24XwCfQeVG8OO7z+CddhmA3yq9mQmGxhGrNziTojTcP4KgY6mP4WngrqHUMiJv8crsAAu2h0f4/Yq/0Lvt96PVDjm4jv8hU/elFEro2faB1yjwA/CRGSqsbfhiyFErxReIqF3YByEiE8yzgVui08rKF6Vr9WjJPiNrYgh1/v7z9W4tWmwVyfRw0dlsE0CO0h8GYJ+cpWg+VlIXi7hrbABo0gUaTH8RW2xRo+OqLi0Pau0cPIZjvKVHJaxaHM9a9LCYm6wpobBHA1oCY6Gr4cWhuCO8d7IZSnGgthc7KgFj6FvD8+dzLuovRolHGC989dRnOissI6aAVbxEAhoqB/CyoPWz0k6KqiIFuUCsTnXd80Pmr2HkMWh29rSD/tohMMf5w4PBWnGvvAjHxqCZ/mwAGi4FtpitGd/T+tUZxDNRmiNZg6PiPiY3EGGgdF1cfIFhPzb3Nmqkml6BvFImBaVBaZhOAb764KuoPjQyjicwRA9M97AJ2B7R2LRFzk7KgtcFgFFVqIYhvrMQeMfoeV3mo2CYGinZBpYZNANgjrh4BYHZsrw2VmYaP4u3XYN4BrRYDxFTd5dBrJgZqIFgnWWW8+vXzqCilWDwvrvmlVQBIFhd15hovMTfc85u6t0d7WcRkCvQ2TBIzI9ZDL3qJGJiIYN2Ue0y+YroDTlfvJ85X2AWQkibOuprvG3PU83sni6DTWBxUhV5SspgYEgUHUz0/R/KN9xufne5VlNdI3PVQj8UuALxVIk4+h4JmeexZ8Li18u1x8PSe7xI/HPQ9IW7qD4Oj8d5vlfdHMP9hUdmIYJekiqtsqNS1DACvlYre/I2A8VdBmVDxdRc3g6EVE+t25NDbcE9AHF3VAo72iJkTR2CkqsVGuP/2ePcipsQ2ADyvL2DJcuhED5CK9ni8lN4GB43EwcINcNTt8zLRCdyZCWcJ74ihL2AkQyyWv7/PW3Y9xToAdGkraq2yzGvW/w1xueJofhQctBMn38DFht69RCVnxSy4yRZTTWFieZnNuzDlq8RZAVR6eAgA7aeJwsmRCYDNQ5KZUHujTBw0XQ8F00NhPFy17/r57JNyjgbTRmdGw9WzsWJsOwx8KWproeR/RpwsaAKVBV4CAOJzpaLETDh42uYZ/bKTopVYHY7WiaMG6TCRMPzjQ33HVRs57raWN2+BkfIpYm46DEwStYlQ8+3Md5j/cqhcGfAWAHxdriqWsxq859x0+ZMSrGQjNN4vEbWyHuVuc6gjjkbE4MJYYbmRkKtMhx0lNVovFrWT1eKg1CmEnUP9Pbu2m7d44pRvTvVt6IezxpbX5e/mikq/4XA1VJzdhAtiUEBsXApXL4pOD2j1/KhMkdt9l0CtVn2bALz7+bCoPAOtqOwDUkGd9+6FgWriLPAdLoCH64iVunATVSw6aVHQq7ns07olclbakGFZ0Jkj/58AkrVbaejt/WJ1vvwm7/jbm+Jg5GpxUdIBYbc1TSw9Chd9RO8GOPP/+Lv4gZeO27f0/a9+hoMtJywCWAfP/ika2XC09+Y+Hcc9uHRZw/RyGJsrburfizA7OkFsJcPFatE7sRlhUU8sArhqDDxKXygaC7MQfj+Im+Z3Iay2rBFr+dXhaFSROPjajzA4JDYBnM7ZBU82viBa18GzFn6oZYir4r8hjO4dKx7shqPRF/5Utlu+XQCSGAMP/G+KXmlDePSPGXOg1lvc1d+DsFlZR7zo5YMDX6E4CixCqK5sI5YByKpoWPPdJ07WHIEX5b2LJLZ/CDtbnWyGMHmwVLx5Gg7GiIvAPoTmlTZiHYDs91lP6pQ4m+yHvaNDRUSOq3vcIUZORSEMdn0kXj0OB/eIq/sTEIJuM8RDAHKTZQFx9cTNe9Gw5KtRxWkDxS5iJvddhOzjA+JZyS5oHckTd42Owivf7hLxFICsioKF6oni7tMYWBnVT86IXQeFGsYTeMmPkMydLqF4CVo1xESd22LgydFXRTwGIHcsh7EdaWLizSyYS/pTrPxP9yQE+1SM5XaAdwmfVZGQFEZDZ4SYyV3pg7VaV8SK9wBk7AMwE1OtSMzcsh2Gooed31RGtOroaeGb/vAmetBsCVUXaAwXYy/El8NK9ezDIqEEIHJPFgxUHSDGSu8/AgNxNXq5L0fVTqyUPn4X7MUc6i6hmweNArGQVu1HmPJt/yBPJNQApHPfKLh4I1Gs5OzcCxe75rSRYAU+nGdqQCwF3vw4BlbW3zZBwuHkBij5c8RKYMFzmT6DahsW/CAK9gGIdH6oJvQS+nwi1g5nb4beke8ml4rSqTico2WZeNC50zqY8ledVyJhkg2llWKv+cF9DR1mkrJnTr8TomMfgEiV5EFJ6unvuKmzeFLab2A6FBIaZk+OFa2fWuM3m1eJV4Vru8TB1cap2zpL+AyC0jzx6JZ+M3fHvzUrxY8zktJbj7n7hm2r24iCdQAVxR78bNNmnGvXjmZ3npBQ1L2+444r43BGzXXffnaqVapbOBkd/ACWv366TEKR16rg2w3Q+rlD9tAyCac15VBZXyKhKikublBcnCoq3gNQanv8YPL+gpeqPTa93oi2EibFT81uWjjDIqXUXgOKJSyaj3jkofibh2fhLP/RG4eNfmZ2QMJtJ5Q6SriEOYBKpexAYeGT8+fPL0wrLpULo85GKDVlAJXDrVCqLQygcqgNpXYMoHL4PZSi2jKAyuE7KC0TBlApNI+C0mIGUDlcAaVnAwygUjiRAqUCYQCVQm8oJXRmAJVC85pQihcGUCm0hNrXDKBSSIbaKwEGUBmMaAK1D4UBVAKJR6A2N58BXPxie/uh0UMYwMUmsGD/7oF/vPbO3FT5xYSRo6CT1IABXGRKVrTHb9Z/dXfLTVvgoJkwgItL4WWwkJQjkWEEVK7hPG3lpMNGtkSIiVB5lQO11Qc2WlSRCDEJKp9woJbSfLBxWiJFL6hM5EQt7YeNByRiFEOlDSdqaR8spORI5GiCYBsDnKilxjAX3U8iyI8IlsmB2uoIc50kkixDsEUcqK3rYKyZRJS1CDaNA7U1Hqb2BSSiDPChostLOFBbgVkw4r9WIs0mVPRnztNeBkxsOSYRJxEVtMjjOC/MaWDMpcUSgXbiPEmNOEwvAs+Vu4y/T3eJSKV9cY6U1ZylR00HR0Nr6w1pErGmNcQZtWo04CC9u2X/1TURbMv3K7pLZJuQPHrpv75c8Zd8DjFUOa0+rDZnYHz893v2DIof2GxF8rHO/FOIiIiIiIiIiIiIiIiIiIiIiIiIiIiIiIiIiIiIiIiIiIiIiIiIiIiIiIiIiIiIiIiIiIiIiIiIiIiIiIiIiIiIiIiIiIiIiIiIiIiIiIiIiIiIiIiIiIiIiIiIiIiIiIiIiIiIiIiIiIiIiIiIiIiIiIiIiIiIiIiIiIiIiIiIiIiIiIiIiIiIiIiIiIiIiIiIiIiIiIiIiIiIiIiIiIiIiIiIiIiIiIiIiIiIiMjafwE2zttPTXONCgAAAABJRU5ErkJggg==;" vertex="1" parent="1">
          <mxGeometry x="1562" y="-402.5" width="90" height="84" as="geometry" />
        </mxCell>
        <mxCell id="IJoVcqCJSkyeiCKx4dnM-20" value="" style="endArrow=classic;startArrow=classic;html=1;rounded=0;entryX=0;entryY=0.5;entryDx=0;entryDy=0;" edge="1" parent="1" target="IJoVcqCJSkyeiCKx4dnM-16">
          <mxGeometry width="50" height="50" relative="1" as="geometry">
            <mxPoint x="404" y="-356" as="sourcePoint" />
            <mxPoint x="494" y="-387" as="targetPoint" />
          </mxGeometry>
        </mxCell>
        <mxCell id="IJoVcqCJSkyeiCKx4dnM-21" value="" style="endArrow=classic;startArrow=classic;html=1;rounded=0;exitX=1;exitY=0.5;exitDx=0;exitDy=0;entryX=0;entryY=0.5;entryDx=0;entryDy=0;" edge="1" parent="1" source="IJoVcqCJSkyeiCKx4dnM-16" target="IJoVcqCJSkyeiCKx4dnM-18">
          <mxGeometry width="50" height="50" relative="1" as="geometry">
            <mxPoint x="764" y="-354.5" as="sourcePoint" />
            <mxPoint x="906" y="-357.5" as="targetPoint" />
          </mxGeometry>
        </mxCell>
        <mxCell id="IJoVcqCJSkyeiCKx4dnM-22" value="" style="endArrow=classic;startArrow=classic;html=1;rounded=0;exitX=1;exitY=0.481;exitDx=0;exitDy=0;entryX=0;entryY=0.5;entryDx=0;entryDy=0;exitPerimeter=0;" edge="1" parent="1" source="IJoVcqCJSkyeiCKx4dnM-18" target="IJoVcqCJSkyeiCKx4dnM-14">
          <mxGeometry width="50" height="50" relative="1" as="geometry">
            <mxPoint x="1124" y="-359.8299999999999" as="sourcePoint" />
            <mxPoint x="1254" y="-360.8299999999999" as="targetPoint" />
          </mxGeometry>
        </mxCell>
        <mxCell id="db" value="Supabase PostgreSQL&#xa;â€¢ Core data &amp; relations" style="shape=process;rounded=1;whiteSpace=wrap;html=1;fillColor=#d5e8d4;strokeColor=#82b366;" parent="1" vertex="1">
          <mxGeometry x="980" y="70" width="360" height="80" as="geometry" />
        </mxCell>
        <mxCell id="auth" value="Supabase Auth&#xa;â€¢ JWT / Cookies&#xa;â€¢ Roles / Policies" style="shape=process;rounded=1;whiteSpace=wrap;html=1;fillColor=#d5e8d4;strokeColor=#82b366;" parent="1" vertex="1">
          <mxGeometry x="980" y="170" width="360" height="80" as="geometry" />
        </mxCell>
        <mxCell id="storage" value="Supabase Storage&#xa;â€¢ Slides (PPTX/PDF)&#xa;â€¢ Signed URLs" style="shape=process;rounded=1;whiteSpace=wrap;html=1;fillColor=#d5e8d4;strokeColor=#82b366;" parent="1" vertex="1">
          <mxGeometry x="980" y="270" width="360" height="80" as="geometry" />
        </mxCell>
        <mxCell id="judge0" value="Judge0&#xa;â€¢ Code execution / auto-marking" style="rounded=1;whiteSpace=wrap;html=1;fillColor=#dae8fc;strokeColor=#6c8ebf;" parent="1" vertex="1">
          <mxGeometry x="1430" y="70" width="360" height="70" as="geometry" />
        </mxCell>
        <mxCell id="hf" value="NLP Models (Hugging Face, spaCy)&#xa;â€¢ Topic extraction&#xa;â€¢ Question generation" style="rounded=1;whiteSpace=wrap;html=1;fillColor=#dae8fc;strokeColor=#6c8ebf;" parent="1" vertex="1">
          <mxGeometry x="1430" y="160" width="360" height="90" as="geometry" />
        </mxCell>
        <mxCell id="email" value="Email / Notifications (SMTP / Provider)" style="rounded=1;whiteSpace=wrap;html=1;fillColor=#dae8fc;strokeColor=#6c8ebf;dashed=1;" parent="1" vertex="1">
          <mxGeometry x="1430" y="270" width="360" height="60" as="geometry" />
        </mxCell>
        <mxCell id="api" value="FastAPI Application Layer&#xa;â€¢ REST/JSON APIs&#xa;â€¢ Auth &amp; RBAC&#xa;â€¢ Business Logic" style="rounded=1;whiteSpace=wrap;html=1;fillColor=#e1d5e7;strokeColor=#9673a6;" parent="1" vertex="1">
          <mxGeometry x="480" y="70" width="410" height="100" as="geometry" />
        </mxCell>
        <mxCell id="worker" value="Celery Workers&#xa;â€¢ Async jobs&#xa;â€¢ Long-running tasks" style="rounded=1;whiteSpace=wrap;html=1;fillColor=#e1d5e7;strokeColor=#9673a6;" parent="1" vertex="1">
          <mxGeometry x="480" y="190" width="410" height="70" as="geometry" />
        </mxCell>
        <mxCell id="gateway" value="API Gateway / Rate Limiter (optional)" style="rounded=1;whiteSpace=wrap;html=1;fillColor=#e1d5e7;strokeColor=#9673a6;dashed=1;" parent="1" vertex="1">
          <mxGeometry x="480" y="280" width="410" height="50" as="geometry" />
        </mxCell>
        <mxCell id="cache" value="Redis Cache / Queue" style="rounded=1;whiteSpace=wrap;html=1;fillColor=#ffe6cc;strokeColor=#d79b00;" parent="1" vertex="1">
          <mxGeometry x="480" y="350" width="410" height="50" as="geometry" />
        </mxCell>
        <mxCell id="monitoring" value="Monitoring &amp; Logs&#xa;â€¢ Sentry / ELK / Prometheus" style="rounded=1;whiteSpace=wrap;html=1;fillColor=#f8cecc;strokeColor=#b85450;" parent="1" vertex="1">
          <mxGeometry x="480" y="420" width="410" height="70" as="geometry" />
        </mxCell>
        <mxCell id="cdn" value="CDN / Static Assets (optional)" style="rounded=1;whiteSpace=wrap;html=1;fillColor=#f5f5f5;strokeColor=#b3b3b3;dashed=1;" parent="1" vertex="1">
          <mxGeometry x="480" y="510" width="410" height="50" as="geometry" />
        </mxCell>
        <mxCell id="users" value="Students / Lecturers / Admins" style="rounded=1;whiteSpace=wrap;html=1;fillColor=#dae8fc;strokeColor=#6c8ebf;" parent="1" vertex="1">
          <mxGeometry x="50" y="70" width="350" height="50" as="geometry" />
        </mxCell>
        <mxCell id="webapp" value="Web App (React + Tailwind + TS)" style="rounded=1;whiteSpace=wrap;html=1;fillColor=#d5e8d4;strokeColor=#82b366;" parent="1" vertex="1">
          <mxGeometry x="50" y="140" width="350" height="60" as="geometry" />
        </mxCell>
        <mxCell id="browser" value="Browser / HTTPS" style="rounded=1;whiteSpace=wrap;html=1;fillColor=#fff2cc;strokeColor=#d6b656;" parent="1" vertex="1">
          <mxGeometry x="50" y="220" width="350" height="50" as="geometry" />
        </mxCell>
        <mxCell id="IJoVcqCJSkyeiCKx4dnM-26" value="Recode â€” High Level Architecture" style="text;html=1;strokeColor=none;fillColor=none;align=left;verticalAlign=top;fontSize=20;fontStyle=1" vertex="1" parent="1">
          <mxGeometry x="10" y="-615" width="800" height="30" as="geometry" />
        </mxCell>
      </root>
    </mxGraphModel>
  </diagram>
</mxfile>
